<mxfile host="app.diagrams.net" modified="2020-03-26T17:20:57.425Z" agent="Mozilla/5.0 (Windows NT 10.0; Win64; x64) AppleWebKit/537.36 (KHTML, like Gecko) Chrome/80.0.3987.149 Safari/537.36" etag="FeLFtUTBXNsAsk3NV4Ee" version="12.9.3" type="github">
  <diagram name="Page 1" id="Page_1">
    <mxGraphModel dx="1985" dy="1773" grid="1" gridSize="10" guides="1" tooltips="1" connect="1" arrows="1" fold="1" page="1" pageScale="1" pageWidth="827" pageHeight="1169" math="0" shadow="0">
      <root>
        <mxCell id="0" />
        <mxCell id="1" parent="0" />
        <mxCell id="KTyvs7jCrJftO7zdNOzY-64" value="" style="rounded=0;whiteSpace=wrap;html=1;" parent="1" vertex="1">
          <mxGeometry x="-400" y="-950" width="680" height="660" as="geometry" />
        </mxCell>
        <mxCell id="2" style="vsdxID=1;fillColor=none;gradientColor=none;strokeColor=none;spacingTop=-3;spacingBottom=-3;spacingLeft=-3;spacingRight=-3;labelBackgroundColor=none;rounded=0;html=1;whiteSpace=wrap;fontSize=12;" parent="1" vertex="1">
          <mxGeometry x="-180" y="-920" width="430" height="580" as="geometry" />
        </mxCell>
        <mxCell id="3" style="vsdxID=2;fillColor=#FFFFFF;gradientColor=none;shape=stencil(nZBLDsIwDERP4y1KYiEOUMoFOEFEDbEISZWG8jk9aQ1SQKy688y8kaUBbAZnewKjhpzimW7cZQe4BWM4OEqcywXYAjbHmOiU4jV0ontbSKNmhzrp6Ik2yqbDnp8knlqh3qwlkOYljtPH+zuX6FGrnYCeQwVqtRj96L/wYvQLLMe8iGzF3sugdf67YLFkfWxf);strokeColor=#000000;spacingTop=-3;spacingBottom=-3;spacingLeft=-3;spacingRight=-3;labelBackgroundColor=none;rounded=1;html=1;whiteSpace=wrap;" parent="2" vertex="1">
          <mxGeometry width="430" height="580" as="geometry" />
        </mxCell>
        <mxCell id="4" value="&lt;p style=&quot;margin-left: 0 ; margin-right: 0 ; margin-top: 0px ; margin-bottom: 0px ; text-indent: 0 ; direction: ltr&quot;&gt;&lt;font style=&quot;font-size: 11px ; font-family: &amp;#34;arial&amp;#34; ; color: #000000 ; direction: ltr ; letter-spacing: 0px ; line-height: 100% ; opacity: 1&quot;&gt;&lt;b&gt;&amp;lt;&amp;lt;application&amp;gt;&amp;gt;&lt;/b&gt;&lt;/font&gt;&lt;/p&gt;&lt;p style=&quot;margin-left: 0 ; margin-right: 0 ; margin-top: 0px ; margin-bottom: 0px ; text-indent: 0 ; direction: ltr&quot;&gt;&lt;font style=&quot;font-size: 11px ; font-family: &amp;#34;arial&amp;#34; ; color: #000000 ; direction: ltr ; letter-spacing: 0px ; line-height: 100% ; opacity: 1&quot;&gt;&lt;b&gt;Vidix OTT App&lt;br&gt;&lt;/b&gt;&lt;/font&gt;&lt;/p&gt;" style="text;vsdxID=1;fillColor=none;gradientColor=none;strokeColor=none;spacingTop=-3;spacingBottom=-3;spacingLeft=-3;spacingRight=-3;labelBackgroundColor=none;rounded=0;html=1;whiteSpace=wrap;verticalAlign=top;align=center;;html=1;" parent="2" vertex="1">
          <mxGeometry x="5.978508771929825" y="4.54078947368421" width="419.155701754386" height="569.4111842105262" as="geometry" />
        </mxCell>
        <mxCell id="KTyvs7jCrJftO7zdNOzY-68" value="&lt;&lt;component&gt;&gt;&#xa;Login / Settings" style="shape=module;align=left;spacingLeft=20;align=center;verticalAlign=top;fontSize=11;" parent="2" vertex="1">
          <mxGeometry x="30" y="60" width="120" height="140" as="geometry" />
        </mxCell>
        <mxCell id="KTyvs7jCrJftO7zdNOzY-69" value="Tokens,&lt;br&gt;codes, licenses" style="shape=cylinder;whiteSpace=wrap;html=1;boundedLbl=1;backgroundOutline=1;fontSize=12;" parent="2" vertex="1">
          <mxGeometry x="40" y="240" width="110" height="70" as="geometry" />
        </mxCell>
        <mxCell id="KTyvs7jCrJftO7zdNOzY-90" value="OAuth2 / OpenID&lt;br&gt;SDK" style="html=1;fontSize=12;" parent="2" vertex="1">
          <mxGeometry x="40" y="150" width="110" height="50" as="geometry" />
        </mxCell>
        <mxCell id="KTyvs7jCrJftO7zdNOzY-94" value="&lt;&lt;component&gt;&gt;&#xa;Search" style="shape=module;align=left;spacingLeft=20;align=center;verticalAlign=top;fontSize=12;" parent="2" vertex="1">
          <mxGeometry x="30" y="344" width="120" height="50" as="geometry" />
        </mxCell>
        <mxCell id="KTyvs7jCrJftO7zdNOzY-102" value="&lt;&lt;component&gt;&gt;&#xa;TV Show&#xa;Details" style="shape=module;align=left;spacingLeft=20;align=center;verticalAlign=top;fontSize=12;" parent="2" vertex="1">
          <mxGeometry x="30" y="410" width="120" height="50" as="geometry" />
        </mxCell>
        <mxCell id="KTyvs7jCrJftO7zdNOzY-103" value="&lt;&lt;component&gt;&gt;&#xa;Player" style="shape=module;align=left;spacingLeft=20;align=center;verticalAlign=top;fontSize=12;" parent="2" vertex="1">
          <mxGeometry x="30" y="480" width="120" height="80" as="geometry" />
        </mxCell>
        <mxCell id="KTyvs7jCrJftO7zdNOzY-104" value="Decoder" style="html=1;fontSize=12;" parent="2" vertex="1">
          <mxGeometry x="40" y="530" width="110" height="30" as="geometry" />
        </mxCell>
        <mxCell id="KTyvs7jCrJftO7zdNOzY-124" value="&lt;&lt;component&gt;&gt;&#xa;Favorites" style="shape=module;align=left;spacingLeft=20;align=center;verticalAlign=top;fontSize=12;" parent="2" vertex="1">
          <mxGeometry x="270" y="344" width="120" height="50" as="geometry" />
        </mxCell>
        <mxCell id="KTyvs7jCrJftO7zdNOzY-137" value="&lt;&lt;component&gt;&gt;&#xa;EPG UI" style="shape=module;align=left;spacingLeft=20;align=center;verticalAlign=top;fontSize=12;" parent="2" vertex="1">
          <mxGeometry x="270" y="410" width="120" height="50" as="geometry" />
        </mxCell>
        <mxCell id="KTyvs7jCrJftO7zdNOzY-138" value="&lt;&lt;component&gt;&gt;&#xa;Integration&#xa;Service&#xa;Layer" style="shape=module;align=left;spacingLeft=20;align=center;verticalAlign=top;fontSize=12;" parent="2" vertex="1">
          <mxGeometry x="270" y="150" width="120" height="110" as="geometry" />
        </mxCell>
        <mxCell id="KTyvs7jCrJftO7zdNOzY-160" value="&lt;&lt;component&gt;&gt;&#xa;Error&#xa;Handler" style="shape=module;align=left;spacingLeft=20;align=center;verticalAlign=top;fontSize=12;" parent="2" vertex="1">
          <mxGeometry x="270" y="510" width="120" height="50" as="geometry" />
        </mxCell>
        <mxCell id="R-XISiOptKXvvySLi7NW-62" value="" style="endArrow=classic;dashed=1;html=1;exitX=1;exitY=0.5;exitDx=0;exitDy=0;entryX=0;entryY=0.5;entryDx=10;entryDy=0;entryPerimeter=0;edgeStyle=orthogonalEdgeStyle;startArrow=classic;startFill=1;endFill=1;" edge="1" parent="2" source="KTyvs7jCrJftO7zdNOzY-68" target="KTyvs7jCrJftO7zdNOzY-138">
          <mxGeometry width="50" height="50" relative="1" as="geometry">
            <mxPoint x="180" y="180" as="sourcePoint" />
            <mxPoint x="230" y="130" as="targetPoint" />
          </mxGeometry>
        </mxCell>
        <mxCell id="R-XISiOptKXvvySLi7NW-65" value="" style="endArrow=classic;dashed=1;html=1;exitX=1;exitY=0.5;exitDx=0;exitDy=0;entryX=0;entryY=0.5;entryDx=10;entryDy=0;entryPerimeter=0;edgeStyle=orthogonalEdgeStyle;startArrow=classic;startFill=1;endFill=1;" edge="1" parent="2" source="KTyvs7jCrJftO7zdNOzY-103" target="KTyvs7jCrJftO7zdNOzY-138">
          <mxGeometry width="50" height="50" relative="1" as="geometry">
            <mxPoint x="140" y="235" as="sourcePoint" />
            <mxPoint x="270" y="310" as="targetPoint" />
            <Array as="points">
              <mxPoint x="210" y="520" />
              <mxPoint x="210" y="205" />
            </Array>
          </mxGeometry>
        </mxCell>
        <mxCell id="R-XISiOptKXvvySLi7NW-66" value="" style="endArrow=classic;dashed=1;html=1;exitX=1;exitY=0.5;exitDx=0;exitDy=0;entryX=0;entryY=0.5;entryDx=10;entryDy=0;entryPerimeter=0;edgeStyle=orthogonalEdgeStyle;startArrow=classic;startFill=1;endFill=1;" edge="1" parent="2" source="KTyvs7jCrJftO7zdNOzY-102" target="KTyvs7jCrJftO7zdNOzY-138">
          <mxGeometry width="50" height="50" relative="1" as="geometry">
            <mxPoint x="160" y="530" as="sourcePoint" />
            <mxPoint x="290" y="215" as="targetPoint" />
            <Array as="points">
              <mxPoint x="210" y="435" />
              <mxPoint x="210" y="205" />
            </Array>
          </mxGeometry>
        </mxCell>
        <mxCell id="R-XISiOptKXvvySLi7NW-67" value="" style="endArrow=classic;dashed=1;html=1;exitX=1;exitY=0.5;exitDx=0;exitDy=0;edgeStyle=orthogonalEdgeStyle;startArrow=classic;startFill=1;endFill=1;entryX=0;entryY=0.5;entryDx=10;entryDy=0;entryPerimeter=0;" edge="1" parent="2" source="KTyvs7jCrJftO7zdNOzY-94" target="KTyvs7jCrJftO7zdNOzY-138">
          <mxGeometry width="50" height="50" relative="1" as="geometry">
            <mxPoint x="160" y="445" as="sourcePoint" />
            <mxPoint x="280" y="210" as="targetPoint" />
            <Array as="points">
              <mxPoint x="210" y="369" />
              <mxPoint x="210" y="205" />
            </Array>
          </mxGeometry>
        </mxCell>
        <mxCell id="R-XISiOptKXvvySLi7NW-69" value="" style="endArrow=classic;dashed=1;html=1;exitX=0;exitY=0.5;exitDx=10;exitDy=0;edgeStyle=orthogonalEdgeStyle;startArrow=classic;startFill=1;endFill=1;entryX=0;entryY=0;entryDx=0;entryDy=15;entryPerimeter=0;exitPerimeter=0;" edge="1" parent="2" source="KTyvs7jCrJftO7zdNOzY-138" target="KTyvs7jCrJftO7zdNOzY-124">
          <mxGeometry width="50" height="50" relative="1" as="geometry">
            <mxPoint x="160" y="379" as="sourcePoint" />
            <mxPoint x="290" y="215" as="targetPoint" />
            <Array as="points">
              <mxPoint x="210" y="205" />
              <mxPoint x="210" y="359" />
            </Array>
          </mxGeometry>
        </mxCell>
        <mxCell id="R-XISiOptKXvvySLi7NW-70" value="" style="endArrow=classic;dashed=1;html=1;exitX=0;exitY=0.5;exitDx=10;exitDy=0;edgeStyle=orthogonalEdgeStyle;startArrow=classic;startFill=1;endFill=1;entryX=0;entryY=0;entryDx=0;entryDy=15;entryPerimeter=0;exitPerimeter=0;" edge="1" parent="2" source="KTyvs7jCrJftO7zdNOzY-138" target="KTyvs7jCrJftO7zdNOzY-137">
          <mxGeometry width="50" height="50" relative="1" as="geometry">
            <mxPoint x="290" y="215" as="sourcePoint" />
            <mxPoint x="280" y="369" as="targetPoint" />
            <Array as="points">
              <mxPoint x="210" y="205" />
              <mxPoint x="210" y="425" />
            </Array>
          </mxGeometry>
        </mxCell>
        <mxCell id="26" style="vsdxID=17;fillColor=none;gradientColor=none;strokeColor=none;spacingTop=-3;spacingBottom=-3;spacingLeft=-3;spacingRight=-3;labelBackgroundColor=none;rounded=0;html=1;whiteSpace=wrap;" parent="1" vertex="1">
          <mxGeometry x="440" y="-606" width="110" height="86" as="geometry" />
        </mxCell>
        <mxCell id="27" style="vsdxID=18;fillColor=#FFFFFF;gradientColor=none;shape=stencil(nZBLDsIwDERP4y1KYiEOUMoFOEFEDbEISZWG8jk9aQ1SQKy688y8kaUBbAZnewKjhpzimW7cZQe4BWM4OEqcywXYAjbHmOiU4jV0ontbSKNmhzrp6Ik2yqbDnp8knlqh3qwlkOYljtPH+zuX6FGrnYCeQwVqtRj96L/wYvQLLMe8iGzF3sugdf67YLFkfWxf);strokeColor=#000000;spacingTop=-3;spacingBottom=-3;spacingLeft=-3;spacingRight=-3;labelBackgroundColor=none;rounded=1;html=1;whiteSpace=wrap;" parent="26" vertex="1">
          <mxGeometry width="110.00000000000001" height="86" as="geometry" />
        </mxCell>
        <mxCell id="28" value="&lt;p style=&quot;align:center;margin-left:0;margin-right:0;margin-top:0px;margin-bottom:0px;text-indent:0;valign:middle;direction:ltr;&quot;&gt;&lt;font style=&quot;font-size:11px;font-family:Arial;color:#000000;direction:ltr;letter-spacing:0px;line-height:100%;opacity:1&quot;&gt;Google Analytics&lt;br/&gt;&lt;/font&gt;&lt;/p&gt;" style="text;vsdxID=17;fillColor=none;gradientColor=none;strokeColor=none;spacingTop=-3;spacingBottom=-3;spacingLeft=-3;spacingRight=-3;labelBackgroundColor=none;rounded=0;html=1;whiteSpace=wrap;verticalAlign=middle;align=center;;html=1;" parent="26" vertex="1">
          <mxGeometry x="3.4524752475247524" y="3.3721052631578945" width="103.73762376237624" height="79.0407894736842" as="geometry" />
        </mxCell>
        <mxCell id="29" style="vsdxID=19;fillColor=none;gradientColor=none;strokeColor=none;spacingTop=-3;spacingBottom=-3;spacingLeft=-3;spacingRight=-3;labelBackgroundColor=none;rounded=0;html=1;whiteSpace=wrap;" parent="1" vertex="1">
          <mxGeometry x="-610" y="-426" width="101" height="76" as="geometry" />
        </mxCell>
        <mxCell id="30" style="vsdxID=20;fillColor=#FFFFFF;gradientColor=none;shape=stencil(nZBLDsIwDERP4y1KYiEOUMoFOEFEDbEISZWG8jk9aQ1SQKy688y8kaUBbAZnewKjhpzimW7cZQe4BWM4OEqcywXYAjbHmOiU4jV0ontbSKNmhzrp6Ik2yqbDnp8knlqh3qwlkOYljtPH+zuX6FGrnYCeQwVqtRj96L/wYvQLLMe8iGzF3sugdf67YLFkfWxf);strokeColor=#000000;spacingTop=-3;spacingBottom=-3;spacingLeft=-3;spacingRight=-3;labelBackgroundColor=none;rounded=1;html=1;whiteSpace=wrap;" parent="29" vertex="1">
          <mxGeometry width="101" height="76" as="geometry" />
        </mxCell>
        <mxCell id="31" value="&lt;p style=&quot;align:center;margin-left:0;margin-right:0;margin-top:0px;margin-bottom:0px;text-indent:0;valign:middle;direction:ltr;&quot;&gt;&lt;font style=&quot;font-size:11px;font-family:Arial;color:#000000;direction:ltr;letter-spacing:0px;line-height:100%;opacity:1&quot;&gt;Akamai Media Analytics&lt;br/&gt;&lt;/font&gt;&lt;/p&gt;" style="text;vsdxID=19;fillColor=none;gradientColor=none;strokeColor=none;spacingTop=-3;spacingBottom=-3;spacingLeft=-3;spacingRight=-3;labelBackgroundColor=none;rounded=0;html=1;whiteSpace=wrap;verticalAlign=middle;align=center;;html=1;" parent="29" vertex="1">
          <mxGeometry x="3.17" y="2.98" width="95.25" height="69.85" as="geometry" />
        </mxCell>
        <mxCell id="32" style="vsdxID=21;fillColor=none;gradientColor=none;strokeColor=none;spacingTop=-3;spacingBottom=-3;spacingLeft=-3;spacingRight=-3;labelBackgroundColor=none;rounded=0;html=1;whiteSpace=wrap;" parent="1" vertex="1">
          <mxGeometry x="440" y="-420" width="110" height="76" as="geometry" />
        </mxCell>
        <mxCell id="33" style="vsdxID=22;fillColor=#FFFFFF;gradientColor=none;shape=stencil(nZBLDsIwDERP4y1KYiEOUMoFOEFEDbEISZWG8jk9aQ1SQKy688y8kaUBbAZnewKjhpzimW7cZQe4BWM4OEqcywXYAjbHmOiU4jV0ontbSKNmhzrp6Ik2yqbDnp8knlqh3qwlkOYljtPH+zuX6FGrnYCeQwVqtRj96L/wYvQLLMe8iGzF3sugdf67YLFkfWxf);strokeColor=#000000;spacingTop=-3;spacingBottom=-3;spacingLeft=-3;spacingRight=-3;labelBackgroundColor=none;rounded=1;html=1;whiteSpace=wrap;" parent="32" vertex="1">
          <mxGeometry width="110.00000000000001" height="76" as="geometry" />
        </mxCell>
        <mxCell id="34" value="&lt;p style=&quot;align:center;margin-left:0;margin-right:0;margin-top:0px;margin-bottom:0px;text-indent:0;valign:middle;direction:ltr;&quot;&gt;&lt;font style=&quot;font-size:11px;font-family:Arial;color:#000000;direction:ltr;letter-spacing:0px;line-height:100%;opacity:1&quot;&gt;Splunk&lt;/font&gt;&lt;/p&gt;" style="text;vsdxID=21;fillColor=none;gradientColor=none;strokeColor=none;spacingTop=-3;spacingBottom=-3;spacingLeft=-3;spacingRight=-3;labelBackgroundColor=none;rounded=0;html=1;whiteSpace=wrap;verticalAlign=middle;align=center;;html=1;" parent="32" vertex="1">
          <mxGeometry x="3.4524752475247524" y="2.98" width="103.73762376237624" height="69.85" as="geometry" />
        </mxCell>
        <mxCell id="61" value="&lt;p style=&quot;margin-left: 0 ; margin-right: 0 ; margin-top: 0px ; margin-bottom: 0px ; text-indent: 0 ; direction: ltr&quot;&gt;&lt;font style=&quot;font-size: 11px ; font-family: &amp;#34;arial&amp;#34; ; color: #000000 ; direction: ltr ; letter-spacing: 0px ; line-height: 100% ; opacity: 1&quot;&gt;restore pwd&lt;br&gt;2FA (email, SMS)&lt;br&gt;&lt;/font&gt;&lt;/p&gt;" style="vsdxID=40;edgeStyle=none;startArrow=none;endArrow=block;startSize=5;endSize=5;strokeColor=#000000;spacingTop=-3;spacingBottom=-3;spacingLeft=-3;spacingRight=-3;verticalAlign=middle;html=1;labelBackgroundColor=none;rounded=0;align=center;" parent="1" edge="1">
          <mxGeometry x="1" y="-34" relative="1" as="geometry">
            <mxPoint x="-10" y="1" as="offset" />
            <Array as="points" />
            <mxPoint x="-604" y="-871" as="sourcePoint" />
            <mxPoint x="-675" y="-871" as="targetPoint" />
          </mxGeometry>
        </mxCell>
        <mxCell id="62" value="&lt;p style=&quot;align:center;margin-left:0;margin-right:0;margin-top:0px;margin-bottom:0px;text-indent:0;valign:middle;direction:ltr;&quot;&gt;&lt;font style=&quot;font-size:11px;font-family:Arial;color:#000000;direction:ltr;letter-spacing:0px;line-height:100%;opacity:1&quot;&gt;Social login&lt;br/&gt;&lt;/font&gt;&lt;/p&gt;" style="vsdxID=47;edgeStyle=none;startArrow=block;endArrow=block;startSize=5;endSize=5;strokeColor=#000000;spacingTop=-3;spacingBottom=-3;spacingLeft=-3;spacingRight=-3;verticalAlign=middle;html=1;labelBackgroundColor=#ffffff;rounded=0;align=center;entryX=0.5;entryY=1;entryDx=0;entryDy=0;" parent="1" target="49" edge="1">
          <mxGeometry x="0.0066" y="32" relative="1" as="geometry">
            <mxPoint y="1" as="offset" />
            <Array as="points">
              <mxPoint x="-553" y="-935.0699999999999" />
              <mxPoint x="-553.19" y="-935.0699999999999" />
            </Array>
            <mxPoint x="-553" y="-910" as="sourcePoint" />
            <mxPoint x="-556" y="-980" as="targetPoint" />
          </mxGeometry>
        </mxCell>
        <mxCell id="52" style="vsdxID=29;edgeStyle=none;startArrow=none;endArrow=block;startSize=5;endSize=5;strokeColor=#000000;spacingTop=-3;spacingBottom=-3;spacingLeft=-3;spacingRight=-3;verticalAlign=middle;html=1;labelBackgroundColor=none;rounded=0;" parent="1" edge="1">
          <mxGeometry relative="1" as="geometry">
            <mxPoint as="offset" />
            <Array as="points" />
            <mxPoint x="-559" y="-463" as="sourcePoint" />
            <mxPoint x="-559" y="-426" as="targetPoint" />
          </mxGeometry>
        </mxCell>
        <mxCell id="38" style="vsdxID=27;fillColor=none;gradientColor=none;strokeColor=none;spacingTop=-3;spacingBottom=-3;spacingLeft=-3;spacingRight=-3;labelBackgroundColor=none;rounded=0;html=1;whiteSpace=wrap;horizontal=1;verticalAlign=top;" parent="1" vertex="1">
          <mxGeometry x="-610" y="-610" width="110" height="146" as="geometry" />
        </mxCell>
        <mxCell id="39" style="vsdxID=28;fillColor=#FFFFFF;gradientColor=none;shape=stencil(nZBLDsIwDERP4y1KYiEOUMoFOEFEDbEISZWG8jk9aQ1SQKy688y8kaUBbAZnewKjhpzimW7cZQe4BWM4OEqcywXYAjbHmOiU4jV0ontbSKNmhzrp6Ik2yqbDnp8knlqh3qwlkOYljtPH+zuX6FGrnYCeQwVqtRj96L/wYvQLLMe8iGzF3sugdf67YLFkfWxf);strokeColor=#000000;spacingTop=-3;spacingBottom=-3;spacingLeft=-3;spacingRight=-3;labelBackgroundColor=none;rounded=1;html=1;whiteSpace=wrap;" parent="38" vertex="1">
          <mxGeometry width="101" height="146" as="geometry" />
        </mxCell>
        <mxCell id="40" value="&lt;p style=&quot;align:center;margin-left:0;margin-right:0;margin-top:0px;margin-bottom:0px;text-indent:0;valign:middle;direction:ltr;&quot;&gt;&lt;font style=&quot;font-size:11px;font-family:Arial;color:#000000;direction:ltr;letter-spacing:0px;line-height:100%;opacity:1&quot;&gt;Content Distribution Service + DRM&lt;br/&gt;&lt;/font&gt;&lt;/p&gt;" style="text;vsdxID=27;fillColor=none;gradientColor=none;strokeColor=none;spacingTop=-3;spacingBottom=-3;spacingLeft=-3;spacingRight=-3;labelBackgroundColor=none;rounded=0;html=1;whiteSpace=wrap;verticalAlign=top;align=center;;html=1;" parent="38" vertex="1">
          <mxGeometry x="3.17" y="5.724736842105263" width="95.25" height="134.18552631578947" as="geometry" />
        </mxCell>
        <mxCell id="KTyvs7jCrJftO7zdNOzY-105" value="Encoder" style="html=1;fontSize=12;" parent="38" vertex="1">
          <mxGeometry y="110" width="100" height="36" as="geometry" />
        </mxCell>
        <mxCell id="KTyvs7jCrJftO7zdNOzY-106" value="Licence Master" style="html=1;fontSize=12;" parent="38" vertex="1">
          <mxGeometry x="0.8000000000000114" y="74" width="100" height="36" as="geometry" />
        </mxCell>
        <mxCell id="41" style="vsdxID=33;fillColor=none;gradientColor=none;strokeColor=none;spacingTop=-3;spacingBottom=-3;spacingLeft=-3;spacingRight=-3;labelBackgroundColor=none;rounded=0;html=1;whiteSpace=wrap;" parent="1" vertex="1">
          <mxGeometry x="-604" y="-911" width="101" height="149" as="geometry" />
        </mxCell>
        <mxCell id="42" style="vsdxID=34;fillColor=#FFFFFF;gradientColor=none;shape=stencil(nZBLDsIwDERP4y1KYiEOUMoFOEFEDbEISZWG8jk9aQ1SQKy688y8kaUBbAZnewKjhpzimW7cZQe4BWM4OEqcywXYAjbHmOiU4jV0ontbSKNmhzrp6Ik2yqbDnp8knlqh3qwlkOYljtPH+zuX6FGrnYCeQwVqtRj96L/wYvQLLMe8iGzF3sugdf67YLFkfWxf);strokeColor=#000000;spacingTop=-3;spacingBottom=-3;spacingLeft=-3;spacingRight=-3;labelBackgroundColor=none;rounded=1;html=1;whiteSpace=wrap;" parent="41" vertex="1">
          <mxGeometry width="101" height="149" as="geometry" />
        </mxCell>
        <mxCell id="43" value="&lt;p style=&quot;margin-left: 0 ; margin-right: 0 ; margin-top: 0px ; margin-bottom: 0px ; text-indent: 0 ; direction: ltr&quot;&gt;&lt;font style=&quot;font-size: 11px ; font-family: &amp;#34;arial&amp;#34; ; color: #000000 ; direction: ltr ; letter-spacing: 0px ; line-height: 100% ; opacity: 1&quot;&gt;Authentication service (Auth0) + Social Login (SSO)&lt;br&gt;&lt;/font&gt;&lt;/p&gt;" style="text;vsdxID=33;fillColor=none;gradientColor=none;strokeColor=none;spacingTop=-3;spacingBottom=-3;spacingLeft=-3;spacingRight=-3;labelBackgroundColor=none;rounded=0;html=1;whiteSpace=wrap;verticalAlign=middle;align=center;;html=1;" parent="41" vertex="1">
          <mxGeometry x="3.17" y="5.842368421052631" width="95.25" height="136.94276315789472" as="geometry" />
        </mxCell>
        <mxCell id="44" style="vsdxID=41;fillColor=none;gradientColor=none;strokeColor=none;spacingTop=-3;spacingBottom=-3;spacingLeft=-3;spacingRight=-3;labelBackgroundColor=none;rounded=0;html=1;whiteSpace=wrap;" parent="1" vertex="1">
          <mxGeometry x="-700" y="-885" width="28" height="28" as="geometry" />
        </mxCell>
        <mxCell id="45" style="vsdxID=42;fillColor=#403f3f;gradientColor=none;shape=stencil(nZBLDoAgDAVP0z3SIyjeg0SURgWD+Lu9EGL8xBW7N828Ji1gOWs5KeBs9s72aqPGa8AKOCejlSMfEqAALFvrVOfsYprEk4xmTKNd44Y99VhscHY8qU7iQOYhFixbvfhXzlZfYgj3hQG+54dReh2KEw==);strokeColor=#000000;spacingTop=-3;spacingBottom=-3;spacingLeft=-3;spacingRight=-3;labelBackgroundColor=none;rounded=0;html=1;whiteSpace=wrap;" parent="44" vertex="1">
          <mxGeometry width="28" height="28" as="geometry" />
        </mxCell>
        <mxCell id="46" style="vsdxID=43;fillColor=#403f3f;gradientColor=none;shape=stencil(pZHLDsIgEEW/ZrakMtCWda3/0aRUiAgNpWr/vhBifEWNcXfnzhzmAWAzqW6UQIspeHeQZ90HBbgFSrVV0usQFWAL2AzOy713s+1zPHapMqmjO6UXLpnbcMKrRNFiyQ6Kq7PLgNH2I1BFh70HakYY/gd8GYkJIuoHgJek/GmHlw5R3E42aGPuM8/HjVb+GGxX);strokeColor=#000000;spacingTop=-3;spacingBottom=-3;spacingLeft=-3;spacingRight=-3;labelBackgroundColor=none;rounded=0;html=1;whiteSpace=wrap;" parent="44" vertex="1">
          <mxGeometry width="28" height="28" as="geometry" />
        </mxCell>
        <mxCell id="47" style="vsdxID=44;fillColor=#403f3f;gradientColor=none;shape=stencil(lZHLDoMgEEW/ZrYEGGh1be1/mIiFlIJB7OPvC2XRh6mJuzt35jAPAJtJd6MCTqcY/FndTB814AE4N06rYGJSgC1gM/igTsHPri/x2OXKrC7+ml+4F45JIveZ4vRRHC6I2L2cYwGscasACkL5f0DUpK6+AMkIWwGqNABu6bAENu+wAJJ4n2ww1n5mfo+brPIx2D4B);strokeColor=#000000;spacingTop=-3;spacingBottom=-3;spacingLeft=-3;spacingRight=-3;labelBackgroundColor=none;rounded=0;html=1;whiteSpace=wrap;" parent="44" vertex="1">
          <mxGeometry width="28" height="28" as="geometry" />
        </mxCell>
        <mxCell id="48" style="vsdxID=45;fillColor=none;gradientColor=none;strokeColor=none;strokeWidth=0;spacingTop=-3;spacingBottom=-3;spacingLeft=-3;spacingRight=-3;labelBackgroundColor=none;rounded=0;html=1;whiteSpace=wrap;" parent="1" vertex="1">
          <mxGeometry x="-573.5" y="-1020" width="40" height="40" as="geometry" />
        </mxCell>
        <mxCell id="49" style="vsdxID=46;fillColor=none;gradientColor=none;image;aspect=fixed;image=data:image/png,iVBORw0KGgoAAAANSUhEUgAAAIAAAACACAMAAAD04JH5AAAABGdBTUEAALGPC/xhBQAAACBjSFJNAAB6JgAAgIQAAPoAAACA6AAAdTAAAOpgAAA6mAAAF3CculE8AAAA8FBMVEUAAAA8WJU7WZY7V5Y5V5Y7V5Y6V5g6V5g6WppISJE7WZY7WZY6WJc4VI05WZg7WJY7WJc7WJg7WZY6WZc6V5g/X587WZhYcqeLncKwvNXO1eXm6vLx8/j7/P3///9UbqWgr81Zcqi+yN3+/v9BXpuntdH9/f5ddqrg5e9yh7X09vl2i7f8/P1sg7L5+vxRa6Pw8/c+XJrT2uiTo8ZPaqP19/quutRNaaKfrs08Wpjo6/OotdHf5O5MZ6FyiLXi5vCls9B4jbhGYp6Xp8jZ3+tvhbO1wdiqt9LM0+Tv8ff29/rs7/XEzeCdrMt1irdOaaIw4z8cAAAAFnRSTlMALpLX9PramDAHl/6ZCb/Bltj5lJUIH0IhMwAAAAFiS0dEHnIKICsAAAAHdElNRQfkAxkTHyNa7fM0AAAB3UlEQVR42u3b11ICQRAF0IYVWJG4wBrQUcwJFXMWEHP6/78RhBetHncKZ7oLq/u96x527lQtDwvQnVjcGwuJJ5FM+dCf8fQEdfpgMtmv/BxTfHfyPUGaLz8MU93z53r+/fEhzpofFsDjBRSB/P59nwB488NQAAIQgAAE8E8Bk1PTM9XZOfVjiADzC1WFDwmgtrikFB9geWVVKUbA2rpSnICNTcUK2NpWrID6jmIF7O5F5bsFNPYj890CDqLznQIOj5gBxwb5LgEnkTfAMeDUJN8h4OycGVA3yncIuOAGXDIDrszy3QGutZE3zVat3fht1wrgVhPfuYvetQK4x/MfGga7VgCPeL7RrhUA+ibYMfn9lgBPGMDg/K0BnrH+G+5aAWD/BZqUAOwEWtyAGjegzQ0wu4QOAaa7AhCAAEYToIabF27AKzfgjRvwzg34YAagHaQEoB2kBKAdpASgHaQEoB0kBOAdJATgHSQE4B0kBOAdJATgHaQDaDpIB9B0kA6g6SAdQNNBOoCmgyP6UioAAQhAAAIQgAAEIAABCEAAAhCAAAQgAAEIwCogwQsIIMkL8CDFCyiBzwuIAWQ4AWUAyOb5ALlK7+Pz7J+fwbCAcmXw/b1fKAbUgMArxXrZn4O951XLWHhfAAAAJXRFWHRkYXRlOmNyZWF0ZQAyMDIwLTAzLTI1VDE5OjMxOjM1KzAwOjAwsaJjbwAAACV0RVh0ZGF0ZTptb2RpZnkAMjAyMC0wMy0yNVQxOTozMTozNSswMDowMMD/29MAAAAASUVORK5CYII=;strokeWidth=102;spacingTop=-3;spacingBottom=-3;spacingLeft=-3;spacingRight=-3;labelBackgroundColor=none;rounded=0;html=1;whiteSpace=wrap;" parent="48" vertex="1">
          <mxGeometry width="40" height="40" as="geometry" />
        </mxCell>
        <mxCell id="KTyvs7jCrJftO7zdNOzY-62" value="" style="shape=image;verticalLabelPosition=bottom;labelBackgroundColor=#ffffff;verticalAlign=top;aspect=fixed;imageAspect=0;image=data:image/png,iVBORw0KGgoAAAANSUhEUgAABAAAAAQACAYAAAB/HSuDAAAABmJLR0QA/wD/AP+gvaeTAAAACXBIWXMAAABIAAAASABGyWs+AAAACXZwQWcAAAQAAAAEAADmlDHGAACAAElEQVR42uzdB3Bc5bn/8TtMJsPcydzJ3PnPnTt37siEEEIINyGEAAEChBYg9GaqaWbljmnGBELHxjbuuPded2XJcu9dsnrvvfe+2tVKfv7nPTbEgC3tSrurs+d8d+aDyL1Yto92z3mf3/u+z/tv/8aLFy9evHjx4mXB15Bwx78NsdkDI9xxifY1QLTvHR4QPwmg/wyz2a8IhCHh9lu1739nANyneTVA3tJ8GiDLNKv8LSzcsUn7eiQw7Gna15IAcWskyHo0ZWd/f/3vdkS7frvOXceZ2tePtM+yeh88HGZz3KC9j/9HfU60f78kLFz/nHOD5sWLFy9evHgNcrFk04sl/xcz3xYeNrvfhakBVbjjp0MC59LAsP+vNgi8KhC073+vNtj0O+37Pq6xBciHmi8DYLL2vl4XEOGOSO29dywQtO+do/0eJX4Xbq8YhEIJwFkqqCjSHDoXFHyofS6f0z6XN+gB2tlnjnpeMiDhxYsXL4POLAVyhiZgBY32gLk0ELSH2L9r3/9nAfAfmiu1Yu8avwt3XK95IECGaUYFwBi9qAm3T/G3MJtjrvZ1g/85lH2aE/5nP6XPwNgcZX4X7mhgwAoACNKKArWaYVdYuH26vorEZr8u7OwYSI3dLmHkzYsXL4MVw/azs3A2+6XnFW4/19kc1+rCHTdpN7WHf0j7vz96bgZoXAC8NUS/kfpfmM2+RPv+WwLkiFaMnfI37fsmnFuyFghtPMABAAD8pk0Pu22ORdrXERo1pv4PbQz6U7VqjxcvXrwCOdOt0sdvi/owzW2aFzTvaIXlzLCzM3x7NLHnljdVacU9N24AAADAf2rOjblVP4g7tHH4f55b5UnRwosXr34V+mpvqrqRXK4V9WrP53jt6zzt6w5NCktiAQAAAMNoOi8QUA0z1Tj+J1Q2vHjx+n6xf7aDsZrR/2+1NF/tKw4Lty8IO9uYpOLcXiRuqgAAAEDoqBpic2zRxvTDtX+/Qo33qXx48bLm7L7ao///tBvC77RCX90QFmhOnUsNuVkCAAAgIC4b4ZBfjIwIiMtHbZMrxkQG1S9Hb/vu9zf4te881zRXnThw3ZCzTQUpjHjxMmvBr/kv7cOuupy/o4nQ5DGzDwCA8QSqOFJ+OTpwhdCV47bLr98IjN+8uUOufisw/vD+XvnTh/sD4uZPD8vtk44FxN3TTskDs+MC4uF5ifLkkpSAeGZ5urywJisghq3LluGb84PqlQ253/3+Q5el6X/Hh75J0K+j+jmp98AfP9inv9eueiNafjU2Sg8qVBAyiPeZnjCbXTWDVsej3nSurxdFEy9eIV70qw/y1WFnjwrbpH24CxhUATBTgaQGUIGgBmeBctX46ID4jea3b++UawLhnV1yvVbI3PDRgQA4KLdpA+Q7Jh8PiPtnnZa/z4kLiCcXp8hTS1MD4vlVmfLi2qyAeHVjngzfkh8QI7cVy5io0oB4c1eFvLO3CghZb++plLHbSyXcXigvrc+RZ1akyyPzEuXOqSflRu1eeM07O/WwS4V0QX6meoacPRnq0zCb/dowG9sEePEKlYJfNe37H83dmplawR93bqkPxYIll9cFrji6QnswXakVMoHw63FnZ3kCQSXv//furoC49r09cuPHBwNCzRzcOeVEQKjZowfnxgeEmv14elmaPhvib2r26MW12fpMj7+9tC5HL2Re31Lgf1sLAlYcqUGlGlwyyAaA0PTW7koZGVGsryhQz7r7ZsbKTZ8c0kPYK8dF6WO7YGwTCLPZVQ+wced6BtBAkBcvAy7tv0wr9p/Rvq7RFBhtWf+3s2lXjvvX8j2VcP5uwm7d77XC6c/azW0g1PKqu6aeDAh1831YK2QC4fFFyXr6GwjPr87UC5lAULNHNq2QCYQRjiK9kAmEcTvKGGAAAICQola/qDGSWhmkAvY/f3pIX511xZioYBwxuE7zQJg6TcDGFgFevAZzpj9M+xAOC7PZ7Xp3z0Eq7tUSJbX0VCWTav/czZ8d1ovmh+clyFNLzi5hfHl9jr4/ymYvlNFRJXohNn5nOTd0AAAAoB/e2FEmr2nja7VlSK3oUxNqaiVlQLcI2PQ+YleyKoAXr+AU/f8Wppr4hTsePDfTXxSsmX7VoETN3n+7B1TdZNR+pedWZegzwSMiivSbEEtPAQAAgMFZJaC2mqkGhGplrNqeqFbh+rsuCDt7rOAK7d9vGxJuv5QqjRcvP7+0D9m/a1Rnzmnahy3jXAIX0H3jqjvpHybuldu+PCaPzE/UO5qqZUfjoinyAQAAAKNT43bVS0BtGVCnUajmgn6tG2x21Wdsj+ZJrUb5T6o2XrwGVvRfon2QwrQPlG1IuN6Eoy2QS/hVQnjLZ4f1ZfuqqZbag02nXQAAgEB0ggeC62wPgUJ5fFGKNuY/op8a49fjBM+eIDBGq1/+O4yjBHnx8mWZv/2nQ87O9s/T/j0gS/x/OXqb3njvL18elScWJet7h9SefB7IAACKJAAwN3XSgJrse3ppmtzy+RG9l5cfg4Ac7es/9F5l4XaKO168etnf//Mwm+NJfRmNzdHi76L/6jd36J3yH12QpDfjGxdNwQ9QKAEAAMKAInlicYrc9PEh/dQuP9UfBVpNo4KA/x3CigBevP7V1E/zP0PC7WPCwu1J2r+7/XnsnuoEqrrxq/37o7YVs3efQgkAAAC46DaB4VsK5O9z4vVeYL8YGTHwhoE2vWm5HgRQ/fGy8v5+Vfhfpvlck+evZf7qQ3qt9mG9b+ZpveHH2O1nG/ZxQwMAABgslUDIUauF1SSiOk3AT80DVRAwXvP/qAZ5WWvW3+a4KizcMVN785f5q2P/tRP3nCv68/Run2opDw9bAABFEgBgINSqgHB7oX6SwO/f260fDT6gHgFnTzR7VfMzKkNeZl/uf5Vm7hCbo8Yve/rf2qkv739pXY6MpegHKJQAAAACSDUNf2ZFutz48UG5fNSAtgeoI82PaXXRg9rXn1Ap8jJb4a+O8lMz/gMu/K8YEyk3f3pYhi5Pl9GRJRT9FEkAAABAUL2xs0xeXp+jbw9Q9ckA6psOzRbNdVSNvMxQ+P/XuT3+A17qf807u+T+Wafl9a0FMn5nOTceAAAAAIO+PUDVJ3dPOzWw0wNsjjrNZFU/UUXyCsXC/z9UV3/96IsBNPdTe/tv/OigPL0sTV9u89buCm40AAAAAAxF1SnhjkK5b1ZsvxsGhtnsqm7K0jyj1VI/parkFQqF/080T2rizu1r6deb/5ejI+X2ycfk5Q05zPYDAAAACJkgQB09ft+s0/1fEWBzdIaFOyKG2Oy/o8LkZeTi/3rtjbpD++rub+F/5bjtcu/0GL3LplpOw00EAAAAQNAL+YE6tyLgrmkn5YrR/e4RoPqnTeS0AF6G2+evFf7Tta9N/S381TKZv8+Jk9FRJSzzBwAAsEqRBJjcm1ptY7MX6s0C+3l8oNoWcEJzA5Unr0F9aUX/TzTPaYrC+rnPX834q8J/DIU/AIBCCQBg4iDglY25+vGBPvcGOPtVTbZ+yGoAXoM163/1kLPL/T39K/yj9MKfxn4AKJIAAIBVQoDxu8rl2ZUZ8n/v7OrfagCbvhrgeipSXkEq/O2Xam+4d7SvDf1t7nffzFgZG03hT5EEAAAADLLdwaeCgLHRZfLg3Hif+wOE2b5dDWB/S/t6KRUqr0DO+l97bv+Jz4X/L0ZGyF+/OiGjIov1Nzw3GwAAAAolwMpU0/MRjiK55bMj/Ts2MNyxXfsaRqXKy5/7/FXhf2lYuF11n+zozxvzpk8OyfAtBTw0AYCBOwAAuEAQ8NzKTPnt2zv7EwRUaTXbo9rXS6heeQ2w+Ler4v93mmP9Kfx/N2G3PLcqkxl/UCQBAAAAfVD90e6ZHiOXj9rmc2+Ac6ey/WyIzU4hy6tfy/3VXv9R/TnaTzX4e+ibBBm3o4wPMgAAAAD4sBrgpfU5cu3EPf1ZDaC2a1+poaDl5XXhr/yvZkt/9vnf+vkRCXcU8eEFAAAAgH4aF12mN0//pY9NAjU1Q2yOhzU/obrl1Xvxr71JtDfMvUPC7UW+Fv/XvLNTnl2RoSdWfGABAAAAYOBeWpcjv5/g82oAt1bbfRQW7vh3qlxeF5v1/5nmU02nb8f6bZO7p52UMVElfEABAAAAwM/GRJXKXVNP+twbICzcsUXzX2wJ4HVe8a83+gvT7PJ11v/aiXtl2NpsZv0BAAAAb/Z3764A+mW8VnMNXZ4mV7+5w9fVAEmaa2gOyEsV/pcMsTnu1r4W+DbrHyn3zojRkyhu5AAAgEIJAILj9a0FctMnB+WyERHehwA2e5X29QFWAlj7iL+fnuvy3+Hr0X7Pq6P9mPUHAIokAAAQdGOjS+X+WaflijE+NQhUW71tGpoDWnDm/+dhNvsidV6kt28Ytd/kjsnHZdS2YgbcoFACAAAABnVLQLk8uzJDrn5rpw8hgN0TFu74MizcTnNAC3X6v1z74R/wZdb/N29GyxOLU2T8znI+bAAAAIA3dgGB9/qWAvnThwd8WQnQo9WEa9SkMNWx2Zf92+w3aT/orDAfiv/rP9wvr27O4wYOAAAokgDAgEZHlsidU0/KL0ZG+BIE7NH8N1WyWZv9hTueGRJur/Nlyf/d007J6KgSBiYAQKEEAAAM7I0dZfLwvESv+wKE2fQtAbHav19OxWyu4l81+xuvafO2+L9qfLQ8uSRF3mDJPyiSAAAAgJCh+gL8xsujAs+tDE/RXEflbI7i/981UzRub4v/P0zcK69szOXDAwAAAAAh6NWNeXKtVtf5sB0gR3M9FXRoF///oVmh8XjzQ79shENu/fyIjIwo5kMDAAAAACFsRESR3PTJIa9DgLBwR57mbirp0Cz+/1sT6e0xf6pZxP0zT8vY7aV8WAAAAADABMZElcjtk4/rk71eBgEVmvuoqEPrmL8w1dExzMvi/1djo/51xB8fEgAAAAAwjXHRZfK3GTG+nBBQEWazEwKESPF/pfYDi/V2mcfVb+6QF9Zk8cEAAAAAvDQeCDHjzp0Q4EMIUBbGSgDDL/v3qfi/duIeGb45n5s4AACgUAIAk1MnvD2+OEV+OXqb1yEA2wFMMvN/48cHZYSjiIEJAFAkAQAAC4UATy1L9SkECAt33ErFbaCX9gO5MsyH4v+2ScdkdGQJA25QJAEAAAAWDAGGLk+XK8dt9zYEyArjiECjLPu3X+HLzP9d007qnf554wMAAACAdUMA1QvOpxDA5riaCnzwi/84b4v/v82IlbHRZbzhAQAAAIAQwNcQIE7VoFTig7Ls/1zxb+v7B6U6PT44N57iHwAAAADQvxDgbO25Lyzc8d9U5MHt9v/f2kU/4U1Ko4r/h+cnyrgd5bzBAQAAAMCKdl6cCgGeX50lV4yJ9GYVQI/GPsTm+A8q8+A0/Psv7YLvOXfhKf4BAACAIBRJgJm9odWMTy1Nk1+OjvRmJYCqRedpLqVCD+zM/880myj+AQAARRIAYNBCgHCHR/OPITb7T6jUA9Pw71LtAi+g+AcACiUAAIBAhQCPzEvUa0ovQoBOzQtU6/6f+f+J5lNfin+1j4OBNyiSAAAAAIsV8VotOBDjdpTJ3+fEeXsyQF1YuONmqnb/Ff+XaIafW2LR5w/gvpmn9dSGNz4AAAAQuCIJMLOx0aVy17ST3oYAeZrLqd79EQDYHPdqF7PDmwt/7/RYGaeO+uOGDgAAKJIAAAMwOqpEbv38iLchwJ6wcDsnAwyg8P+3MJvjWu0i1nhzwe+YfFzGbqf4B8DgHQAAAP4xKrJY/vjBPm9DgAVh4Y6fUs37vuxfBQD/rX1N8+ZC3/zpYRkTVUqhQ5EEAAAAAH71+tYCueadXd4EAD1aHWsLC3dcQlXv+3F/u7wp/q//cL+M2lbMGxMAAAAAEBDD1mXLr8dt77M+DbM5WrSvN4eF2ynsfej4P8Wb4v93E3aLzV7IGxIAAAAAEFBPLEmRy0dt82YlQJbmv6nuvev4P8yb4/5+Mz5aXt6QwxsRAAAAABBw6njA+2adlstGeNUPYEuYzX4pVf5FXmqJhHaRbtA09XUxrxgTKc+syOBNCAAAAGDw7IDVqJMBbvnMu5MBwmyOUUNsdvoBXCQA+K8wL5r+qSUXD89P5GYDAABAoQQAQRduL5Jr39vjTQig+gHcNMRGP4AfLv3/qVb8b+rrAl6muXPqCRkbXcpDFABAkQQAAAbFsHU58us3tnsTAiRpfk7V/13xry/9H+/NEoqbPj6kL7lggAiABw8AAAAG02MLkrxqChhms89Vze6p/s/O/t8QZnN09HXR/u/dXfr5ixQ+FEoAAABAsI0DfmDM9lK546sTfQcA4Y6esHD7w9q/W774/09NRl8X7Fdjo+T5VZnceAAAACiUAMAwwh1Fcu3EvX1vBbA5ijT/ZeGmf45LwsLti/q6UL8YESEPzU3gYQoAoEgCAACG8+LabLlyXJQ3/QBU37tLrLr3/2ntL+/p6yLd9uVRGbu9lIEiQJEEAAAAGNKDcxPkshERfW4F0L4+Y8Wl/5cNsTkq+ir+fz9hj4xwFFEAUSgBAAAAgGGNjiqVmz455M0qgDLNf1mp+P+JVvzbvdr3vzqLNxMAAAAAwPBe3ZQvvxkf7UVTQPsKy2wFCLPZh/W19P+yEQ55YE4cbyIAAAAAQMh4fFGK/GJkRF8hgFvzgBVm/y/X9Ln0/8aPD+pLKHgDAQAAAABCxZjtZXLr50e92QqQFRbu+A/zFv82+0+1v2SfS/+vGh+tL53gzQMAAAAg4KLLAL96fUuBXtf2UfuqhoCTzTz7/9y5pQ69LP2PkMcXp3ATAgAAoFACgJD16IKkPk8F0DQNsdmvNWPx/7+agr5m/2/57Ii+ZIIHLACAIgkAAISqMVEl+tZ2L7YCbFeN8s1U/F8SZnMsOrfE4aJ/8V+/ES2vby1k0AhQJAEAAAAh79WNefrpdl40BHzaTAHAvUNsjra+ko8nWPpPoQQAAAAE0FggyO6bddqbVQAZmv80Q/H/M82Jvv7CN396WMZsL+WmBAAAQJEEAKYxKrJEfjdhd98NAW32f5ih8/+4ITaHp7e/rFoSMXxLPg9bAACFEgAAMJ1nVmbIL0b22RCwSnN5KM/+XzYk3F7S1+z/Q98kMIAEKJIAAAAAU1Kr3W/+7LA3WwEWhHIAMK+vv+AfJu7VuyNSHFEoAQAAAIBZvbY5X345OrKPAMDeFBbuuC4Ui/+b9DMNe/nLqTMRX1ybzZsBAAAAAGB6906P8WYVwBZ1kl7IFP9h4fafnDvLsNe/2B2Tj+tLIXgjAAAAAADMbkREsVw1PrrXOjksXD9B77ZQmv1/dIjN3tnbX+rKcVHy+tZC3gQAAAAAAMt4eH5i7wGATQ8BIkJiFcCQcPu/a3/QY33N/j84N57ZfwAAAAB+MQYIEaOiSuW3b+/saxtAxxCb474QWP7vGKb9YXs99u//3t2ln4XIjQoAAIBCCQCsZPT2UnlqWZoXvQDsB7SvPzHy0v//GGKzJ/T1F1F/WWb/AQAUSQAAwKqrAK6duLevAEBtq7/XqMW/MkrT09tf4voP98voKGb/wcAdAAAAMLztCBSvVgHY7BGGXAWg/aH+KyzcntH7sX8OeWFNNh8iAAAAUCgBsLRRkaXypw8P9BUCqBMB7jBa4z8VAIzpa/b/pk8OyaioEh4OAABQJAEAYHnPrsr0YhWAY5OhTgRQs/+aXmf/fzEyQl7akMugBwAokgAAAKAZua1ErvvHvr5CgIawcMf1RloBMKyv2f9bvziqNzpgUA8KJQAAAMCISjEInlqa6sWJAI55hlgFoBX/P9f+IHG9/WEvH7VNhq3P4QMFAAAACiUAOM/IbcXyh/f7PBGgTPt6hRGW/z/n1ex/ZCkPCgAAKJIAAMAPPLogyZteABMHu/j/meZQn7P/65j9BwCKJAAAAFxIuKNIfvv2zr5CgDTN/xu8AMDmuFf7A3T09oe8+dPDMiqyhME9KJQAAAAAgxgNY4kqkQdmx/UVAHjCbI5nBmv2/6eaLX11/n9uVSYfMAAAAFAoAUAvXtuSL1eO295XCLBriM3+06AHAGHh9muH2BwNvf3hbvjnAb2hAQ8OAAAokgAAwMWNiiqRv0450VcfgBbt603BLv4v0X7Tab39wS4b4ZCnl6UxIAIACiUAAAB44YW12fKLkdt6DQHCwh0zg3okoPab/a+moLc/1LUT9+iNDBjogyIJAAAAGMz95QgVI7YVyw0fHehrG0DeEJvjf4MZAAzv6+i/h+Yl8EEDAAAARRIA+ODxxSl9BQCqFn8uSMv/HT8LC7cf6e0P9Js3d8irm/N5iAAAQKEEAAB88PrWQi+OBLRHqsb8wZj9vzUs3NHZ2x/mzqkn9QYGDJAAgIcYAAAAvDcqskTumnayr1UAdWE2xzWBLv5V8795vf1Bfjk6Um9cwKAfFEkAAAAA4LsXtZr68lHb+goBJgQ6APgfTVFvf4gbPz6oH/3HDw0AAAAAAN+NiCiWP36wv68jAY8Nsdl/FsgA4IUwW68JhDy+KIUfGAAAAAAAA6Aa6/exAqBtiM1xQ6CK/0s123v7A6hGBcO3FPDDAgAAAABgAF7ZmCe/fmN7XyHA5EAFAFcNCbc39fab/3XKCb1hAT8sAAAAAAisUTC1EdtK5KZPDvWxDcAep339eQCO/7O/09tvrBoUPLcqkw8iAAAAKJQAwA8eX5zS1woAdULfTf6e/f93zYHefuM/vL9Xwh1FPGAAAKBIAgAAfvDq5ny5anx0ryFAWLjjc38HAL87lyxc9De9f3YcAycAFEkAAACAn4yMLJFbPj/S1yqAY5qf+TMA+LC33/BXY6Nk2LocigJQKAEAAABAcLcBdGiu8dvy/7Bwx5HefsPrP9wvI7YV88MBAAAAAMCPXtmkTgOI7isEGOevAODKc4nCRX8zdT4hPxgAAAAAAPxLnQZw48cH+woAdmku9UMA0Hv3/yvHbZdh63P5wQAAAAAAEAAPzUvsKwCo0YQNdPb/Us2O3n6j6/6xj+X/AAAAAOAvkSXA97y4NluuGBPZ+2kANvuDAw0A/kfT0ttv8sCceD6gAAAAoFACgAAJdxTJH97f2/sqAJtjnvb1koEEAM/09huoBOKFtdk8eAAAoEgCAAABdNfUk31tA4jT/Ly/xf8lmhW9/Qa/f28Py/8BUCQBAAAAATZ0ebpcNqLXAKAzLNxxRX8DgJ9rcnoLAO6adpKBOwAAAGAyIwEYjjoO8Ddv7uhrFcAL/Q0Aru3tG/9iZIQ8vTydGyQAAKBIAgAgwNTq+z/980BfAcCSITYf+wBov0jp9fg/lTy8tjmfhz8AgEIJAAAgCP42M7avRoAJYTbHf/gaAPxUs723b3zjRwcZ0AIUSQAAAACCZOiKDH01/sVrdXvnEJvjct8CAJu+/7+mtwDgwbnxFEkAAAAAABirD8CTvq4AuKm3b/jL0dvkuVWZ/AAAAAAAAAhiH4DrP9zfawAQZnPMHGKzezv7b1cm9vYNf/v2Thm+tYAfAAAAAAAAQXTP9Ji+VgAcCAt3XOrt7P9PNPbevuGfPz3EhQcAAAAADL5t1vLkktS+AoCqITbH//M2APiZpqS3b/j3ufG8yQAAAAAKJQBB9uK6HLly3Pa+QoDrvA0ArurtG10+aps8szKDmycAAKBIAgAgyF7fWij/9+7uvgKA4V4FAGHhjhd6+0ZXjY+WVzfnMzAAAFAoAQAADIKbPj7UVwAwV9Pn7L8yu7dv9McP9jPYBSiSAAAAgKAbAd19M0/3FQDsG9JXI0DtP/hpmM1xrLdvdPfXpyiSAAAAAAolAIPkiSVpctmIXgOAMs3P+24AaHM09RYAPLYohRsqAACgSAIAYJC8sDZbfjU26qJ1e5jN0aN9vbz3/f82+9W9Ff9XjImSF9ZkM1gAAIokAAAADJLXthTI1W/t7GsbwIN9rQB4prdv8Js3d+gdBxkIAxRKAAAAQGAVoxd//GBfXwHAO70U/3YVAEzp7RtcrxoAUiQBAAAAFEoABtVtk471GgCEhdsXaV8vudjs/yVhNkdkb9/gjq9OcHMFAAAUSQAADLL7Z8f1HgDY7PuG2Bw/7eUEAHtOb9/goXmJDBwAgCIJAAAAg+yJJal9nQSg6vufXfQEgLBwu/tiv/jyUdvk6eXpDIoBCiUAAAAAg+y51ZlyxZjI3gKAzrBwx39eLAC4prfZf3XEwLD1uRRJAAAAAAAMspc35spV46P7agR49YUDAJvjyb5OALA5CrnQAAAAAAAMstfthXLNO30eBfjAxVYATOjtF173j31cZAAAAAAADELV6X0EAKN+VPyHhTvUMYCLevuFt35xlAsMAAAAABiQ8Aj4yy2fH+krAJh8wSMANbt6+4V/mxnLmxUAAACgUAJgEHdNO9VXALBC1fsXCgCyevuFjyxI4iYMAAAokgAAMIgH5sT3FQDs0Pz0hwHATzQdvR8BmMYAAwAolAAAAGAQjy1K7isAiNVc+sMA4L96+0XqbMEX1mYxcAZFEgAAAAAYxNPL0/UJ+17q+TLNz34YAPyutwDgynHb5ZVNeRRJAAAAAAAYxHOrs/QJ+4vX8/YWzX/88BSAe3sLAK4aHy02RxEXGAAAAAAAg3hhbbb8amxUX9sAfv7DFQCv9vYLrp24h4sLAAAAAICBqJX6asK+t3o+zGa/8ocBwD96+wU3fHSAiwsAAAAAgIG8tqVArn5rR+8rAGyOa3+4BWBab7/g5s+OcHEBAAAAADCYa97Z1fsKgHD7Az9cAbCqt19w17RTXFgAAAAAAAzmdxN29xUAPPzDACCit19w74xYLiwAAAAAAEGmGvL35k//PNBHAOB44YcBwJHefsGD3yRw4QEAAACEdKEEmNH1H+7v6xSAcT8MAJJ6+wUPz0/khgIAAECRBAAwmJs+OeRzAFBysf/4FyMj5IklKTwsAQAUSQAAAAbzly+P+jsASGUgCIBCCQAAAAixACAs3P7pDwOAzov9x5eP2iZDV2RQ4FAoAQAAAABCbgWAffoPA4CL/se/HL1Nnl2VyYUFAAAAAMDsAcAzKzO4sAAAAAAAEAAAAAAAAIAQDwAi2QIAAAAAAIDZA4BfjY2SYetzubAAAAAAAJg9AHhpAwEAAAAAAAAEAAAAAAAA4KJeD5DbJh1jCwAAAAAAiiTA7O6eHkMTQAAAAIokAIDZ3TMjlmMAAQCgUAIAAAQABAAAKJIAAAAA/7MHFwEARRIAAABAkQRYwD3TAxAAcJMCAACgUAIAEAAAAEChBMCwwrX7w3s7S+WrQ5WyOLZWph+t4roAIAAgAAAokgAACGUjI4rls/0VsuBUjURlNkl8ebtUtHRJo9MjHV090t1zRjanNnCtABAAEABQJAEAAISSN7eX6DP69rRGSazokKrWLmlzdYun+4xotf4FTT1cybUDQABw0QCACwsAAAADGBtZLF9rBb8jvVHSq53S0OGRTs/Zmf2LFfznU6sARkUUcy0BWCQAcMweEm4nAAAAAEBoeH93mayIr9OX89f7WPD/kPoeXFMAFgoANmguIQAAAACAIdk0/9xbLptTGiS3rlPa3D3i6WfB/0PzT9VwjQH4bLi90JDumR7TVwCwhQAAAAAAhvPhnjK9QV9efed3Dfv8UfR/S20XGBHBdbZqoQSYEQEAAAAARZLXJuwslVERg/fnUU38VifUSVZNpzgDUPSfT/UNoGAAQABAAAAAoEgCLCXcUSjrk+ulpq1LxkQG/7M27UilHC9uPduxP4BF/7eaO7tlXFQxP3sABAAEAACFEgDAOj7YUybZtZ36bHt1W1fQfl8VNKxLqpeyZrd0dQe+6D+f+n352QPwytbQQQBAkQQAAHBRG5Lr9aX253fFD0bgcCC/RTrcgV3ifzEFDS4ZEcHP3uqFEmBGfg8Ahq7M4MYGAACDdoS493aWSnq183sFuPr3CLUvPgC/3+va+2zK4UpJqGgPyhL/i1Fhx+f7y3kPACAAIAAAAAolAOb2umZxbI2+B/6HxbFahj/9aJVff78RjkKZc6JaP76vexAL/28Djk0p9bwPABAAEACAIgkAAHMbH1Usx4taLzoDrxrwjd5W5Jffa2REkSyKqZHiRtegF/7fFv8xJW16s0PeCwAIAHwJALiwAAAAITXrr5bflze7ey2Skys7/Fb4Fxmk8P9WTm2nvKG6/vN+AEAA8L0AoKfXAGAFAQAAAECoUEvw1bL38xv9XWyGfF1i/5fHq5n1WceqJKvGOah7/C+ktMktE3eWBv3a2+xnA5Ex24r08EH1Xfhsf7luzvEqmXeyWr48WKH/73eiS2RsZLGM0v7713nfAghiAFBCAAAAABD63t1RInFl3jXd6+zq0f/7/hS5Xxwol8SKdnF3G6vw/7b4/2B3YIv/cHWkoVbkqyL+q0MVsjqhTvblNusnKhTUu6Su3dPnz0AFMK2ubv2EgqOFrTL/ZLW+ZYMwAIAv7pt12r8BwNPL07mwAAAABl/yP+1I30v+zy8+kyo6fP493t9VKofyW/TwwGiFv1LS5NKK/zK/X1/VJ0GFJWrFgz2tURK0Ql8FDf4OQOo7PBKd1SRvR5fwvraQ14ABeGheov8CgF+MjJDHF6fwwQQAADDskv8iWZ9UL+3uHp8a5M09Ue317zEuslg2pTRIo9NjyMJf/X3y6jr1mf+BDqZV0KGW5qsgYXlcrRwuaJHCBldQQ4+yZre+soDiEEDQA4BHFybzcAUAgNkkGNCb24v15eNdPs5E17R16Uv5+/r+ap//zGNVkl/facjC/9ujDNWM/FvRJf2+jmrf/oSdpbIwpkYOa9ezOACz+/1ZDfDFgQre5wAIAACAIgmA1X20t0yyazv71Xlfzeb39f0n7iqVI1ox7PKcMWzx3+npkV05zfoSfV+unXoGjN9erM+yb89s0q6j06cVFEE7yaCuU0b5+HcDQABAAACKJAAATGK4vVBmH6/SZ/H7U1Q2d3bLmMiiXmfDV8TVSm27x7CF/7cz5Mu0P6c3Kxm+Xc2guvKrIwtPFLdJVWuXof9+ilqFMP9UDe97M9kC+FdAAgA+rAAAAINP7fdfl1Qvba7ufheV9rSGXlcVqOX0Xd3GnfVX3fXV0YPqKL2+CioVZvxT+zupa5Za1SEtnd39WjExmNTJAsMpHAEQAAAAAAY/1jF2W7F+1NxAluQ3dHj0Bnc/KpQdRbI2sd6wTf6+1aoV8GrJ/rgL/B2+NVor+j/ZVy5bUxv0oMBp0BMLfOnX8Nb2Ej4DAAgAAIAiCYAVvBtdInFl7QOevV4VX/ej7/2PXaVyutT4s/45tZ0y9XClDL/A9RnlKJIv9ldIVGaTfhpAqBf952tz98jnarUDnwMABACgSAIAwNw+2VuuF7UDLSQL6l0ywl703fdVy8rnn6zudy+BYFGrEralN/5o1l+tWvh0X7lsSW3QwwEzFf3n69D+XpMOVvBZCEkFQMAFJgDgAwwAABBUaqZbzXj7o1md2jYw5VDld99bFdMD3U4QaC5Pj8SUtOkByLcD3XB7oXy0p0w2JNXry/uN2Lnf7wGA9nf8Uh0HSKED4IIBQEJfAcCOMJv9JwQAAAAwkwSDen1rgSw4VSNNzm6/FJGq2B9+7nt/srfMLysKAr3c/5sTVXrBr/7cE3eWyMr4WkmpPNvIz+xF/w9XQLy/q5TPBYB+BQBhNscp7etPCQAAUCgBgAHZtOJ/bWKdPvPrjwKyrNkt46OK9UJ6SWyNYRv9qf4GpU1uWaUV+mO3Fel/ZhUCqFUA9e2ekOve7y+5dZ16IMRnAwABACiUAAAwkRH2QolIa9CXv/ujeFT74qcerpAxEUWyK7tJOj09hiz8q9u6ZHNKvT7T/9WhCn3FQmVLl6EbEwbr2qxPquezEQJeBQbJg4EJAPhQAwAABNJIR6Fe+Pqr6FVL6e2pDfLejhJ96bzRZtC/LfztaQ0y42ilHgAUNLj0pndWLvrPV9Hilre3F1PkACAAAACAmSSYxehthXKqpM2vM97q2MDpWmFd3uw2XPGvtiVsz2yUTVrRn1zRIc0W29fvDbVaY3FsDZ8PAAQAAEChBMAs3ogqlpjSNr8W6aroVzPq/moi6K8VCUUNLjlS2CKntb+vOn7Q6kv8e7tWhwpa5HU7nw8ABACgSAIAwDTFf0a106/FvzoaL7683TBH5HV29Uh5i1tSqzr0Iw2dLPHvc2tEUkW7jI4o4jMCIPgBwCMLk7mwAAAAfi/+iySzxun3AlJ1zDfCzHqbu0caOjx60a/CCKt28fd15l9t3VAnIPAZAUAAAAAAYALv7iiRrAAU/0agwgdV8KuZfpb4+3bdDuS1yKiIQj4jAAgAAAAAzFL8qyZ4Zl7Czmy/b1pd3bI8rpY9/wAIAAAAACj+YdawJKvWKR/tLePzYVSbAWN78BsfA4CwcEcWAQAAAEBwin9mx6E0Oj2yJqFOwu2FFDEAghoAHCEAAACA2SQEzrvRFP84y+U5I3tzmuWt7cV8NgAMmDq177IRET5tASAAAECRBAABMnZbkRQ3uij+KfzlcEGLvLejRF7jcwHATx5blKLV7dv8EwAo98+JoxChSAIAAP0s/rNrnRT/FtbZ1UPhHwJeAULUo34PAGbHcVMAAACg+IcPmpweicxolDejiikwARAAAACY4QDMSjV2S6nsoBC2WEd/j+rqX+OURTE1YttayGcBAAEAQJEEADCzEVrxf7q0jZl/qxT93Wekpq1LojIb5f1dpXwGgB/JRwAFPQDgDQ0AAHDW61sL5EhhC8W/yXVpRX9zZ7f2s26VaUcq9Z87RRKAwQkAkvXm/X4LAO6bHccDHQAAMJvUh9e2FMje3GZ9GThFsvlm+t1a0a/29R8vapXZxytlpKOQ4gMAAQAAgCIJsJpXt+TL1tR6cXso/s1U9Hd6eqSqtUsO5jfL9KOVMsrBvRUAAQBAkQQAsG7xr1kRV6MXixTOoU3t5291dUtuXadEpDfIFwfKZfhW3uOA1zYh2PoKADQDCQB4UwMAAJxv9vEqaXdT/IfqLH9HV4/exO9oYYssjq2WCTuKKZIAhE4AsLDPACBPc6mPAQAPdwAAwGzS92h/vkkHy6XR6aGYDiGdWsHf0OGR5IoOWZdYJ5/tKzvbxI9CAoA5A4CyMAIAAKBIAjAwH+4qlYoWN0W1wbk8Zwv+jGqnRKQ1yJSDFTJaNfDjPQyAAIAAABRKAAD05a2oIsmr66TANmjBX39ewf/14QoZH1nE+xbws5dhCIEJAHiDAwAA6NTscXxZO8W2QaiTF+raPZJ+XsH/poEKfgoUAKEVAMwiAAAAABRJim1rgezLbdabx1F8D17jPtWpv6ChU6IzG2XG0Up5M6qIYhsAAQABAABQKAHwD3Xc36bken3GmUI8+Nrc3ZJT65SN2s/goz2lMnxLAe9LAAQABAAAhRIAwP/mn6yWDo77CypnV48+029Pa9C79asVGLwXASDAAQAXFgAAWNnn+8v0xnIU5YHX1X1Gyprdsju7SSYdKJcRdop+ACAAAAAACIIJO4qlqNFFcR7gff217V1yorhVZh6tlLHbinjvAQABAAAAQPCMchRKQjkd/wOl3d0jqVUdsux0jbwTXcx7DgAIAAAAAIJv+JZ82ZPTRMd/P/No/yhudMm29Ea9md/rNPMDgKAGAHYCAAAAgH9RjWSXn64RFx3//abJ2S2nSlpl+pFKGR1RyPsMAPwRACxKkctHbfMpAFhFAAAAAPAvkw+W62fNU7gPvKFfXl2nrE2sk/d2lMi4bUX6/v6JO0t0agXAF/vLvfbJ3rLvfu24yCIZE1GoH8/IexaAVT25LF2uGBPpvwDg3pmnubAAAMAy3o0u1rvQU8APXLl2HdOrOyS3rlNf9l/Z2iXVmkanR6dClo6uHq+1af/9t7+2uq1LqrTvVdLk0kMG1avhYH6LRGU0ysq4WplzvEq+PFCuhwWsOABgVk8t93MAcMeUE1xYAABgCerIOZr+medkAWdXjzSpsKC1SwobXBJT0qYHBEtja/RVHqrx4HB6EMDCXtqIUOf3FQB3fEUAAAAAzE8tJVfFoYemf5YJB9RKgsoWtx76RGo/+29OVOnbEmxbCyiSABAAAAAAmHU2ae7xKpr+0bNA32agVgwkVrSLI61Bb1r4ZlSxvEyhAYAAAADAkjsg9L2/s0SfDaYIxg+pUEidYKD6DOzIbJLZx6r0QIDPDQACAIAiCQAQYkZsLZCc2k6KXXjF3X1GWjq79caGEWkN8tXBCv09xGcJxpcHE3pyWZp/A4DbvzrBhwUAAJiSWta9J6dZ3xNOcYv+9BJweXqkocOjNxhcdKpa3tJXB1CUACAAAAAAzCYZyrwT1fq+b4pZ+INHey+1u3skvapD1ifWyYRowgAABAAAQJEEYNBN2FGsn0NP4YpAnjSQU+uU9Ul1+pGDfO4ADEIAUKX5dwIAUCQBACzr1U15+h5uClUEKwzo9PRIamWHLIutkVGOAj6HAIISAISd/fozHwMALiyMZ0lMtcSVtcmc45Xy+hYCBACA93ZmNbLvH4O6MuBkcatMO1whr2zi8wggoCsAfA0AjnNhYUhbU+u/e5A2O7tlb26zfLynVF7m2gAAejH1UDnFPwwRBCjVbV1i18Y0b2wr5PMJgAAAuJg9OU0XfKAWN7pkQ1IdD1IAwI+M054NTU4PBSgMRzWjVCsbpx6q0Leo8HkFjGfYBuMhAIBlHC5o6fOc3oTydpl3ourc+bxcMwCwMrVCLFF7LjD7D6OvDChvdsuahFoZHaK9AoxYJAFm9cRSAgBYxLHCFq8fpk3Obtmf1yyf7SuT1zbTLwAArEgVVB6Kf4SQ5s5u2ZHVqB8n+DKFNQACAFhZWlVHvx6mBfVntwiMjyyk8Q7AbBIs4sNdJfr57BSVCEXqBIGjBS16r6NXuCcCIAAAAYDvXJ6ze+3mHj+7ReBlCiUAMKXhm/M58g+m4NbGLvHa2GXKwXJ5dVM+n28ABAAUSdYx0ADg/L129R0evangR7tL9YEi1xcAzGN7Bkf+wXwNA1MrO2TKwQp5jSAAIADwawAw+TgXFqYOAM6n9obm1DplbUKtvBlZxH47AAhxkw+US0cXS/9h3iAg5dsggAkMgADAHwHAbQQAsFAAcL5WV7ecLGqVGUcqZaS9gGsOACFmlHbvLm1yUSjCGkFARYdMOsDWAIAAoO8AYAUBAEJRfFl7UB6qalVAWbNbojIa5Z9sEQCAkKBWcO3ObmLpPyzXLDCmpE1vFsgqRsB7L4awfgQA9skEAAhFh/Nbgv9g7erR99wtiamRN7YV0U8CAAxq1tFK/Z5NUQgrUide7M9t1o8PpEgCzO2p5Rnyq7FRPq0A+JQAAKHoUH7zoD5c69o9ciCvWSbtL5fwrWwRAACjGLetUMqa3BSCsLxGp0fsqfUyJqKQQgkwqaGrsuTKN7b7LwD4y6RjDCZgSJHpDcY4kqf7jOTVdcqGpDp5L7qY83kBZpMwiNTKLDXzydJ/4F/UVsaFp6r1bYzcJwACgF4DgBs+PsQgFYa0KbnecA/Yls5uiS1p05eejnEUUiQBQJCp+6+Tpf/ABXsaqQbKn+0rk2EbuVfAynJNxfIBAG9o61h0qtq4D9nuM/ryU9U48MPdpXpHXn5mABBYY7cV0vUf6IM6FnNvTrO8EVlkqSIJMKuhqzL9HwAwqIARfX24IjQetO4e/YzeRTHVeuNAfnYAEJil/3T9B7yjPidVrV36ZMrwzRT7AAEAAQBCgDrixuUJrWWe6mG7P69ZvthfLq+xDw8suQP8Zuqhcr3zOcUd4L2u7jOSUN4uH+wq4T4CEAAQAMDYJuwolianJzTP6e3qkawap6yKr5W3txdTJAHAAIy0F0hBfScFHdBPajy1KblOwrfmc0+Buaw3P4sFALyprWxMRIFUtLhDfgmeOk7waEGLPnv1+hYevADgi2GaqIwGvcEZhRwwsCaBmdVO+Wxfqf65skLhBJgiAFiZKVeO82sAcJABBgzplU15klvnNM2DV21nyK/vlPXqOMEdxWcfvgCAXqliRZ3AQgEH+Eez9nmyp9SfXQ1AcQUQAABGElPSasrGPGop3int7zbjaIXYWBUAltwBF6Tuj+lVHRRtQABOM9JXA+wt5V4DmCAACAu3/w8BAEzBkdZg6gewy3NGihtdsjW1Xt7fWcySPAA4z7rEWr2JGQUbELjeABuT6s6eFMA9Bwb3gkV5tQLAZr8m9AIA3tS4gLnHKy1zXI9akhdf1iazj1ZK+BaW5QGwtok7iqW+3UORBgThpIDE8nb9M/eChYsswFoBAAMNGNQ/d5VY7tgntSqgrNktjtQGeV/1CuB9AMBiXt2YJyeLWynOgCBORNS2dcnCU1X6akSKLsDMAcBHBAAwrnERhVLV2mXZh3HLeasCbKwKAEvuYBFzjlXqjVMpzIDgH2N8IK9ZRtjzuRcBBABA8L20IZcGUOdWBZSfWxXwXnQxRRkA0xrjKNB7o1CMAYN3XGBeXad8sqeUexJAAMBsEoJvZ1YjD+TzVgW0udSqgHaZdbRSXtucx3sEgGmoMUJkeoN+r+OeDwz+cYFLY6v1yRjuT4DJAgAuLIzMKo0AfeXuPiOVLW6xp9bLu9tp3AMg9H20p1RaXd3c4wGjjDU8Z/QtAeFb2RIAEAAAQaKOx1N74XkQX3xVQIe7RxLK22XmkQp5aSPvGQCh59VNeXoncu7rgPHGGTm1Tn0LIvcqgAAACMqgsKiB/aDeHuVT0eKWzSn1Mm5bIe8fACFjwckq/R7GvRwwpvoOj8w4UsF2XvjfOvSGAACWdDCvmYevj2l9p6dHYkpaZdKBMo70AWBoox0FeqNT7t+A0ZsS98im5LqzfQEozIDgBAArCABgQepIKJpC9S8IUDNqamC9LrFWRrCHD4ABG/9FZzZyjwdC6JSAE0Wt8vrmfIozwKABwEcEAAh1724vksYODw/eAYYBzq4eOVzQIp/t5Wgf8ECFMXy4s0Ta3T3cp4EQG1Pk1nbK25FF3McAAwYArxIAMHAPdWoJe2aNk4euH9P7gvpOWRZbQ4IPYNC8spHGf0Co9wX4eHdpSN+Hnl+XAxjac2uy5arx0X4OABiEIASoPWcsEfU/dcLCnuwmmRhdLMOYFQYQRLOPVuqBJPdiIHSp1YVqq+YLFGpAwPzmzR3+CwCu//AAgxCEhE92l7JMNMAnCKRVdegP8eGb8njPAcwmBdSILflS3MgJL4BZxhCq19CL67m3AYYPAH43YQ8DNoSE1zZyHGCwVLd2ydaUenk7qihgqwK4mQPWpWYK1aou7reAuezNadJPCOA+BxAAgELJLyLTG9gGEORlfaeKzx4l+NqmPN6DAPzi7ahCae6ksStgRqdL27QxA+NXwNABABcVoeKTPSXSwTaAQWsauOJ0jYyy57PPD0C/DVufI4fzm7m3AiaWVePUxwvc8wACAGBAXt6QK3l1nTxcB5E6jnF3dqN8uKtYXt5Iwg/AN+oYUpeHIBcw+zGBauLgnahC7nsAAQAwMOsTa9kGYAAuzxlJrmiX2UcrxLaF7QEA+vbKxly92Sj3UMAaypvd8v6OYu5/AAEA0H8TooukubObB6uBlDS6ZHNynbwZWUgHYAAXNfcYx/4BVlPf7pFP95ZwDwQIAID+d4+OL2vjoWpALZ3dcii/WT7fVyqv0gAIwHnUSqGyJjf3SsCC6tq75AttbMC9EAhQABDuIACAuc05ViHubmaRjEr9bDKrO2T+iUoZSRMgAJp1CbXcHwErTxK4umXGkQruh0BgAoA7CQBgasM35+n7ynigGr8JkPo52VPr9UZAbA8ArGmMo0BvIMp9EWCl4MyjhACAt55be5YXAcADBAAwPbXnnGaAofXQP1LQoi8BZHsAYK1tWzuyGrkPAtA1BygE+LZQAszoKgIAIEfejiqUJiczSqGm09MjGdUdsuBklYxmewBgehN3FEuHm2P/APwgBFDbASjsAAIAwBcH85pZBRCiVCfwsnPbAyZsL2J7AAy55A4Do2b/TxS1cs8D8OMQwOnRQwDulQABAOC1j3aXMLNkAmolx9GCFvlyf6l+Tjg3esAcPtlTIl00bAXQy/OfEAAgAGA2CT7NLsWVciSgWTi7eiStskO+OV4pI7bm8x4HQvz+nF7Vwb0NACEAYLQAgIuKUPbpnlK9cOQhah5qxrC0ySUbkurkrchC9ggCIejrw+X6Vh/uaQD6Ut/ukc/3lnLvBAgAgL6p4lDNGvMANecxgmpQsDenSV9K/CKraYCQmf0vanBxHwPgterWLkIAgAAA8M6Ug+Xi8rAKwMzaXN0SX9amLxOkTwBgbAtPVnHfAuCzima3vL+jmPsoQAAA9O5FegFYhttzRvLrO2V5bI2MstMnADCalzfkSkWLm/sVgH4panTJO1FF3E8BAgCgj27Tu0tZBWCxYwTVcsHI9AZ5dzsDBcAo1sTXcjwrgAHJqnHKuIgC7qlAPwOAJwkAYJVeAOq8aQae1j1GUDWEfIE+AcCgeW1TntS3d3FfAjDgHkBq259tSx73VkBz9Vs7fQoA7iQAgFW8F10k7W5WAVhVh/azT63skNlHK/VlyHwmgODaklJHCAvAbyv9jhW20PcHIe/ZNdkD9vuJewkAgIvZkdnIANTqfQK6z0hJo0tWnq6R1zczewAEg+rJoVbjcA8C4M9jgbdnNMiw9f4pooBQ5dcA4Ldv72LgAlMZuTVfGjoYhOLs7EFte5dEpNXL+G2FfD6AAFKfM8JXAIEI9VfF1cjzaykCQQDglwDg129sZ+AC01l+uoaBKL63l7Cls1sO57fIP3eV8BlhyR38bKyjgNl/AAHd4jfrSDn3WxAAEAAAFz8WMK+uk4cmfhQEOLt6JKG8XaYcLNcbBvJQAQZudxZbrwAEllrd+fHuEu65IAAgAGA2CRf24a5ife8YD01cKAhQSwrz6pwy/0SlvMTeQqDfxkcUSKurm3sLgICraHbLOEc+914QAAw0AOCiwqx2ZTXywESffQKqW7tkTXyN2Dbn8bkBmP0HYGAZ1R0yfFMu918QABAAAD+mHhC1bZxJDe9WBag9zNvTG2S0ndkFwKvZ/23M/gMI/vN6X06Tvt2T+zAIAAgAgB+ZerCMByZ87hNwKL9ZJkYX8RkCmP0HYMBn9eq4GnmO+zAIAAgAgB9SD4ejBc08MNGv84fjStvks70lHD8E/MCbava/k9l/AIOjs6tHJu0v5X4MAoCzHiQAAM7z+uZcfZ83D0z0t09Ado1Tvj5ULsNoGAjo9uY0cX8AMKjqOzx6GMk9GQQAjlEEAMAPfHWgTDycCoABKm50yZJTVfLqRhoQwbreiSqUFmb/ARhATq1TXuOZDAIAAgDgR1sB1mbLjswG9qvCL6pa3bIuoVbCt+SxBxGW3PvPfQCAUagVSS9YcKveM6thFQQAQD+pWdv8+k4elvDr8sPI9HoZY8+nTwAs4e3IQml2evj8AzCU+ScqKRRBAEAAAPyY6uzO0lX4m2qGpmYgVHH0AkEATDqTxOw/AKPqcPfI+9HFFIsgACAAAH5swclKvcM7D0wEYgByvLBF3t9RJC+s44EFc1EBVxOz/wAMqrTJpa/25H4NAgACALAv6XvUDO2+nCb6ASBg3J4zElPcKp/uKZEX1+Xw8IIp7GL2H4DBHcprZn88CAD6CgC4qLCi1zflSVa1k4clAkqtNEmuaJepB8vkpfUEAQjt2f9GZv8BhEI/gOP0AwABwEX/4ysJAGBhE6KKpKa1i4clAs6j/SO9qkPmHK2QVzewPBGhZ3tGA59lAKHRl8fVrYeW3LtBAEAAAPzI14fKpd3dwwMTQQsCcmud8s2xSrFtyuMziJAwzlEgNW2EpQBCg9rimVXjlGFswQMBAAEA8EPqDPfVcTX6nm0emgjm4KSk0SXLY6vFtpkgAMZmT62nZwqAkHvORmj3rtC752YBP/L7iXsIAAB/Uk3a9mY3iYeTATAYQUCTS9Yn1Mpoez6fRxjOWHsBW6UAhCRnV49M2ldKAQmLBQA2xzUEAEDfXtuYK6dL2nhgYtCCgMoWt2xIrJUx9nx5ls8kDDKbtDahVt+6wucUQKgeDRi+OZciEiHtug/2ex8AhNnsVxAAAN4ZvTVfsms4GQCDGwRUtXbJtrR6eTOi4FwQwIMPg2Pkljwpb3bz2QQQ0s/VA7lN8twa7ukIXTd8fJAAAOxNCpR3owqltNHFQxODrq79XBCwTQUBPPwQfCtOVzP7DyDkdXb1yPRDZYa7xw4FvOTfAGDcdnl6RSYDHeA8/9xVLLV0vIaBgoCdmQ3y3vZCeZYZDATJ65typbC+k88gAFMoa3bLiC15FJMgALhibJQ8sTSNwQ7wA6ppTKPTw0MThtGkvR/3ZDeeDQL4jCLAs0nzj1dKF41RAZhsK4AK0ikoQQBAAAD8iCqwZh+pkJbObh6cMFwQsDe7USacCwJ4MMLfXtmQI1k1HXzeAJjuVIDph8u5z4MAgAAA7E26MFVczTpSIa0uQgAYNwh4d3shD0f41bRDZeJm9h+ASU8FGLl1ELYCrAL6z+8BwONL0xjwABehgpBlsVV6asyDE4YNAnLOrgjgM4uBGrY+W5Iq2vlsATDtVoBdWY3yDEUlCAAY9AAXo46OWR5bTQgAQ2vu7JbjRS3y4c4iPrdWEKBBxmd7SrjXATC1dne3fLG3hMISBAAAetkOQAiAENHm6pYTRS3ygQoCeGjCByrsPFXcyucIgOnl1jrl1Q053PtBAABmk3BxKgRYcqpKT455eCIUZjhOFLbI25EFfH7hlX9EF+kBEp8fAGbn0f6xIaGWez9MEgDYJ/geAHBhAa+oPWMzD5czSEbI7HVUJ1nsy2mSt7cRBKD3e9ve7CY+NwAso6HDIxOiCnkGwAwBwBTvA4AxUfL4EgIAwNeB8ozD5RwRCIIAmMb4iAK9oSSfFwBWejaeLGrVtz/xHAABAIA+Q4BP95RIYwcDZoTWYKf1XBDwFkEAzmNPreczAsByVG+nrw+V8RwAAQAA7/fMVra4eYgi9IIAF0EAzhqxOY/7GADLKmzolOEbc/t1/3waCII/EQAAxvJmRIEU1HfyEEVIBgGqn0V0RoOM3JLH59miVsRW6+8FPhMArPos3JhUS6EJAgAA3rNtypWUynYG0QjpHgGRafUEAYMs2IMKdQxWfh0BJgBrq2/36CviKDZBAADAa8+vyZaDec2EAAj5HgGO1HqtMMzloWsB0w+Vc88CwPNP+8eh/GZ5ZjXPBRAAgNkk+GhDYi0DaoT8QEgdj7Reey+/siGHz7VJvbguW1Iq2nnPA4Cmw90jn+8tufh9c2UmMCj+9JGfA4DHlqQxEAL8bNrBMmlzc0wgQl+j0yMrT9foxSKfbXP5aFexuLsJKwHgW8kV7fLCGop9EAAA6Id3owqlotnNagCYQnWrW5bGVMmwb4MAHsgh7dnVWXKsoIX3NgCcp6v7jMw6Us5zAgQAAPq3DGz4plxJKGsTDyEATKKk0SWztcHRi2sJAULZmxH50s4qJQD4EdUYVTVI5VmBkAwAtP/D5YMaAPADA+S51VliT6kTt4cQACY6N7m+U6YdLJXnWSoZcoZqtqXW8z4GgAtQkzbLY6t4XiBkA4BL+w4AUrmwQBBMOVAm9e1dPFxhKhlVHfLl3hI96OJzHhrUsaW1bdyLAOBiyptdMmJzLs8MGMItXxz1KQD4CQEAYBxvOPIlXSuY2BIAU82WdJ+R+NI2+XhXsTy7is+50S2PqeJ9CwB92JRUyzMDhnDrl8cIAIBQpvZOR6bVi7OrhwcsTBcEHCtolveiCuUZggBDemldtr6/lfcrAPTd/Hb01jyeHX70FPrFrwHAL0dHysMLk3lDAoOwB3fKgVKpbOGUAJiP6nexJ7tRbzQ3lM+7wbYilfIeBQAvbU2po3DFoLvFnwHA5aO2yYPzEhkUAYNEJcvHC1toEAhTanN1683mmEExTkNStVWD9yYAeKexw6Nv36QIBQEAAL95XhuULzlVRVMumJZqfrkhoVbCN+XyIB9E70YViMvD1iMA8EVUej2rAEAAALA3yf/eiSyQxLI2cXezGgDmo7a6VDS7ZVlMlby8PpsHepA9vSpTdmY28F4EgH6sAhjHKgBYPQDgBwEExotrs2Xl6WqOC4Spz1fOqXXK14fK5IW1WXzug+T1TTnS5PTwHgQAVgHA6gHA3+clcmEBg5kQVShxpa30BoB5GwV2n5HTJa3yfnShDF3FZz7QVLDI+w4A+rmVraNL72fD8wQEAAAC5vk1WbL4VJVUcVIATKzV1S2R6fUyYgv9AQK5sqiogaP/AGAgNibWsgoABAAAAk/tOzuY2yQdbpp3wbz9AUqbXDL/eAXbAgLgq/0c/QcAA1XT1iUjCasvbgUCpe8AwLEizOa4hAAAMJFnV2fpg/i8Oqe+h5oHMcxIdaiPLWmVd6MKmWXxE7W9IqGMo/8AwB9Wna6mIIUBAwD7hiE2OwEAYEavbczRl6A1dNDMC2Y+NtAja+Nr5KV1nBbgj9NFOFkEAPyjvNktr67PoSgFAQCA4HprW4EcyW8WZxfbAmBOXVrRmlbVIf/cWXR2NQADgH7ZkcHRfwDgT/OOVfJ8AQEAwL6k4FPbAr7YWyJplR1sC4BptXR2y6bEWnlpbTaDAB+pWapmjv4DAL/KrnHKi2uyLPtseXJFBoIssAEAAyYg5AzTCqOFJyr1JmqcFgAz8nSfkZSKdnl/eyGfeR8sOVXF+wcA/P1M0v4xaV8JhSmCGAAcDUAAwEAJCHmvn+sPoPZPEwTAjBo7PHoDpudXZ/GZ78MzKzOlqMHF+wYAAkA1rH1mFbPhIAAAYACjt+TJrsxG/Xx1HtIwG9XQ7rQ28Bpnz2dQ0IuPdxUTBAJAAE+teTeqgOcNCAAA9ib57imN6nY+zp6nL3H+cm+JzD5Srs90bk6qlT3ZjXK0oFkSy9skubxdihtdUtZ0YTm1Tv2/O1HUIqkV7XojNR7UMKOqFrfMPFwmT69kYHAhxwtbeJ8AQADtymzQx3A8cxCSAQAXFgis51ZnyhitwP9oV5HMOlyuH3GmCntVrJdqBX1tW5c0OT3S7u7WU2UerEDfOrt6ZKc2ABu2Nov7zHlGbM7lPgIAAaaarA7fmMNzB6EXADwwL4ELC/jJi1ohMnF7gUw9UCqr46plf26jPiuvCnz1oFDH9tGxH/BvMyb1GVPn3XMPOkudmsB7AwACb3lMFc8dEAAAVjB0ZYaM2Zqnd4FdEVslh/KaJL+uUxo6zs7is/QeCPJMTGe3zDteYfnlmM+sytADR94TABB4BfWd8uxqmgHCeAFABwEAMIBiXxtQv+HIl2kHy2Rrcp3El7ZJXXuXtLm6xe05Q6MtwCgNArXP4/6cJnl+jXUHY18fKuOeBABBou63H+0sMsczZDmM6tYvj/kUAFyiKSMAALxvyDdyc65MOVAqW5Jr9WK/Xiv2O9w9zOoDITIYy611yhuOPEvew1Iq2gkAACCIjuY3n119RqGKAPnrtFM+BgA2RwkBAHDx5nxqz/7SU1VyOL9Jyptd3xX7DKKB0KW240w7WGqp+9mbEfk0/wOAIFPjxuEbcihUETB3EgAAA/Pahmy9SVZyRZvemE8NmCn2AfOtBFBbAuwpdfK0RWZmItPquZcBwCBYoZoBUqgiFAKAX4yMkL/NiacohKX2Jo3ekiselvMDlgkC1FaeV9Zlm3pw8MKaLP0oUX7mABB8hfWdMjSEwuYnEFL8ugXgshERcs/M0yQrsJSX1mZJRbObBxZgoRCgrMklb0Xkm/a+NvdIOUeMAsAgPmfeiyqkWAUBAGBE6gi/2OJWHliAxagjOqcfLDPd7If6+2RWd/AzBoBBtDOzgWIVBACAUakeADysAOtxd58RR0qdDF2ZaZqBgZp16uyi+R8ADKbmzm55ZlUmBSsIAMyEN6B5fL6nmIcVYFFqqfzxwhZ5eV22Ke5nu7Ma+bkCgAFMPVDKOBuhEQBwYWE16riWNlc3DyvAwnJqnfKGPS+k72UqxFBHHvLzBIDBd6qohXE2CAAAI3pudaZkVLFnFrC62rYu+WRXcciu8lp4opLmfwBgEOpo6WFrsxhrI8gBgGPTkHACAKBPOzIaeFgBkFZXt8w7ViFPrQix5n/anzeL5n8AYChzj1YwzkawA4ATQ2z2nxAAAH1Q+7R4UAFQOj09sjW5Vl8dFCr3sH9EF4qT5n8AYCjxpW2Ms0EAABiRbWOOtHTSBwDAWV3dZ+RgblPINAek+R8AGPC0Gc8ZeV0bYzLWBgEAYDDPrsqU5Ip2HlYAviepvE1Gbck19P3rtQ05Utfexc8LAAymW/uH6s/CWBsEAIABbUio4WEF4EcK6ztlQlSBYe9dC45X6CsW+FkBANsAEHiPL0sfNAQAgB+9v71QPAyiAVxAdatbPt9TojfbM9J9SzUrTK9k9RIAGFWHu0deWZ89qEUjzOOOqQQAgF/P0C5u6ORhBeCCmp0emX2kXJ42UAgwMapQ2l30LwEAo1LHs87Vnh0UryAAAAxoD420APQ2k9PVI6tiq+WZlZmGGAhEp9fzcwEAgztW0EzxCgIAwIi+2FOiJ7U8rABcvKtzj0Sk1snzqwc3BHhlXZa+NYGfCQAYmzpp6rlVmRSwIACwavMGGNer67OlvNnFwwpAn52dD+Q0ystaET5Y96tZh8vETd8SADA81aj1iz3FjLVhvADg7hmnubCwtCc0e7PZBgDAuxDgdEmr2DbmBP1e9eTydEksa+PnAAAh8rzYkVHPWBtGDABiubCwvM/3FHOkFgCvZVV3yOgtuUG9T72zLV9aaf4HACFDrTBV4S1jbQQtAAhTAUC4I4UAAOjdS2uzpIjTAAD4QJ0g8rZWlAfrPrU1uVafUeLaA0Bo6Ozqkbci8hlrY0DunB6j1e3ergCw2S8JC3ccIwAA+mZPqeNhBcAnNa1u+XhnUcDvT8PWZklpI71KACDUtgEsPVXJOBsDonr2/WJkBAEAEIjlte1ultcC8E1Dh0cm7ysJ6P1pyv4ScXl6uN4AEGLiS1sZZ4MAADCioSsz9Js0DysAvlLhoerQH6jmf6eKWrjOABCCGp0eeWENxwHCIAGA8tdpp7iwwHlHbLHHFkB/OLt6ZHlMld/vS+O25kljh4drDAAhSK3e+nR3EePsQfbY0tClTu27zJ8BwO1TTvKmAM55bX22lDWxzxZA/wd6mxJr5Qk/dn1efbqaYBIAQrgPwIaEmpAuQEEAAJja5qRaHlgA+k0dKRqRWidPrRj4/ei5VZmSU+vkugJACFNHx1LIggAAMKhxdpbbAhh4CHAot0mGrsgY0ENfnTCgjpHimgJA6Gp2euTV9dkUsyAAAIzoCc3e7EYeWAAGxNNzNgRQs/j9fejv414EACHP7TkjX+4poZgFAYDVGjggdLwXWSCtLo4EBDDwvZ8JpW3ywmrfQwDbxhypanFzHQHABM+Crcm1jLFhnACACwt8n1oFcDivmYcWAL8M/BLL2uTltVk+3Ye+OVpO8z8AoA8ACAD6CgBSwmwOAgBgwKsAogqkjVUAAPwUAuTWOmW4l3tAn1yeLsnlbVw7ADCJJqfH62cAjO+p5QYKAGyOMu3rTwkAAD+sAjiSzyoAAP4LAfK8DAHe3UYACQD0AUDf0oJKbUmfvLdEtqfVnwsBAv973j0jlgAAYBUAgFANAcqaXDJua16v9x61V5Tl/wBgxj4AaQhR/9heoG/pc3efka/2lQTt9yUAAIJIpXwHcujCDcC/g8DKFreMvUgIMGxNlhQ1dHKtAMBkMqraKaRD0PvnCn91xK96hhfUO+XZVRkEAIBZqZm6xg4PDy4AfqVCgDfseT960H+xp1gfZHCNAMBcGrTx5CvrsiiqQ8DTy9Nl6v4SPbTxnLciTwUAC45XBPXPQgCAkNsrYwZbkliOC8D/VLj4QXTBv/YWao7SewQATKmzq0c+3lkkj2r3ehiPega/vjFb1pyuvugxvKWNLnl+dUZQ/1x3BSYAoMADevPquiz9A8/DC4D/Z4S65MNzIcCozTlS197FdQEAk1p1uopi22CeWZmhr747XtAszq6eXrfwqdn/YP/5AhAAnKDAA7ww+3CZuDw9PLwA+D8EaFchQKEsPlHB9QAAEztV1ELRbQBDV6bLhKgC2ZZaJzWtbq9+doX1nUGf/ScAAAZzL9CKdDld0spWAAAB2xt6sSWHAABzqNaKTVV8UoQPzkz/29vyZWNCjV7M+/JzU30Aph8qHZQ/NwEAfMKH3b/eiqAhIAAAAPqn1dUtb2vjyUeXpCHA1J7+F1Zn6ivsItPqpLix/yfspJS36QHCYPw9AhIAUNgB3lsbV02HbgAAAPhMzSTPPFRGgR4gz6zIkPCNOfrW3cN5TX7pq6OaN34QXThof6e7pvsaANgcR3oLAG4jAAB88tyqDP1IELYCAAAAwFfR6fUU636ijut7eW2WfLqrSCJS6iS7ukMv2P3589qd2SBPLEsPkQAg3HGJZgsBAOBf72zLZysAAAAAfJZd0yGPUbz3e4b/tfXZ8sXuYtmcWCNJZW3S5PQEbGKussUtIzbmDOrf+d5ZcXL5qG1erwDQONYRAFgIN4agWR5TKW62AgAAAMAHzVrBOnlviby4OlMfUz6CC1Kz7sPWZMq4rbn6tokd6fX6KtzWzu6g/JzUOH/u0fJB/xn9bU68XD7a3wEAxRzgs6eWp8vJwha2AgAAAMC3XgBacVnU0KlvB/hkV5G8si5Lb1pn1WJfjatfWpslY7Vi/6t9JWJPrtVP3yptdA1a762YohZ5ekXGoF+be/0eAHxFAAD0l21DtpQ3u3iQAQAAoN+NAdUxsCcKW2TRiQp505GnF8NmDASeXH52Vn/Ephy9O//C4xWyI6Neksvb9DG1UVbXqp+HCiOMcM38HgDc/PlRCjlgAD7bVSRtrm4eYAAAABj40nPPGX3mO7a4VTYn1cqXe4v1ZfBqlYBqemf0Iv/pFWdn81WRr47Q/vpAqX6K1v6cRr3QL9H+bq0GHju7PD0y90i5Ya6n3wOAmz47QhEXotgbZBwrY6s4GhAAAAABoTrbVzS7Jb2yXY7mN8umxBq9SP3njkIZb8/Ti20VEDy7KkNfTu/vse7QFRny7MoMeVn7PV7fkC2jt+TK2xH5+vYFdeTeqtNVEp1Rry/bz6jq0AMM1ZzPE2JbZdXW3n3ZjfpKBVMHABRwwMA8vixNDuY20Q8AAAAAQQ8H1OlUFc0uya116gV4fGmr3qtqV2aDTq0kUEV6X9bGV+tL8tWv2asVwqqgV98rq7pD/95lTS6paeuSlk6PKce9OTVOeXV9tqHqDAIAwKCeX50p6VXthAAAAABAiFEhyvvbCwxXYxAAAAYWvimHpoAAAABAiK2imHes3JDbrAkAAIN7d1u+niByMwUAAACMTR3J6EiplSfUqQuLUw3n3tnxcvkoAgDA0D7fU8zJAAAAAIDBm/6dKGiWZ1akG7L4PxsAxPUaAISFO9za10sJAIBBNuNQmX6MCDdXAAAAwHgyqtrltXVZhi3+vQkAziEAAAab2kO04FgFIQAAAABgMMUNnTJmc46hi38CACsw+BsQvnl0SarMP1ZOCAAAAAAYRHWrW95y5MnD2njd6PwfAHx6hEINCKDHCAEAAAAAQ6hv75J/7igMieJfucf/AcBhijSAEAAAAACg+CcAAEAIAAAAAISuhg6P/DM6tIp/AgCTeRiWo3oCTN1fwhGBAAAAQBCL/w9DsPgPSABw46eHKcyAIFLhz6e7ivQlSNyQAQAAgMCpanXLB9EFIVs7EAAAJqE6j5Y1ubgxAwAAAAFQro21x23NDemagQAAMBHbhmxJq2jnBg0AAAD4Sbf2j+yaDnltfVbo1AaLLuyeWQQAgKk8typDDuQ0ike7UXHDBgAAAAZW/J8qbJFnV6RftKgOJb4FAOEOZRUBAGBsjy9Nk+WnKqWzixMCAAAAgP4W//bkWnl8SZopin/l3tnxcvlo3wKAyQQAQGj4ZGeh1LbRHBAAAADwRYe7R6YfKDVN4f+t+79JlCvGRHkXAJwLAb4kAICpmexDrvYqJZS26gkmN3MAAACg91l/1Vj7ja258pA2ljabwAQAi1IBGMiTS9NkQ3y1nmRyYwcAAAB+TPXQOlHQLM+uzDBl8a/c5/cA4BMCAMCoPowulNJGF6sBAAAAgPO0ubpl/rFyfcz8kIn5PQC47sMDFFqAgb24KkP2ZTeKy8NqAAAAADDrn13dIWO25Jq68A9YAPCHD/ZTZCFkPGRRj2im7CuRymY3qwEAAABgSe2ublkXXy1PLkuzTB0QkADgIQsXVkAoGbYmU3ZlNtAbAAAAAJbR1X1GMqva5e2IPMuN/wkAAItTKyE+2lEouTVOfQkUDwUAAACYkVr52tjhkZUxVfLUsnRLjv0JAADonlmRLmtOV+k3RbYFAAAAwEycXT1yJK9JRm3KsfSYnwAAwPeM3pwjh7Wbo7pJ8rAAAABAqC/3z6npkM93F8kji9V4N8XSvAwAfkYAAFhsW8DHOwolq7pD3N2sBgAAAEBoUVtbK5pdsuh4hQxdnmb5wv9fAUBCnwFAWLj9KgIAwIKeWJomsw+XSXFDJ9sCAAAAEBL7/Gta3bIpsUZeXpNJ0U8AAMBXz63KkGWnKqW8ycWDBQAAAIYs/Bs6uiQipVZe35BFsU8AAOvggx0oL67OlA3x1VLd6uZBAwAAAEMU/mpsujWpRsZsztHHrA8uxMUEKACgUALM7LV1mbI+vloqW9xsDQAAAMCg7PEva3LJRm1MOnx9FsW9twHAXL8HAPsokACLeGVtpiw7VSEljZ3ioVkgAAAAAszl6ZHcmg6Zd7RcXlqTSVFPAAAg2IatyZC5R8r0I1bcHoIAAAAA+HeZf0tnt5wsbJbPdxXJ08vTKOYJAGBFfIiNZeiKdPlyd7HElbRKu7ubBxYAAAAGtMxfnUa1MaFGxm3JlUcWM942XgDwj31cWMDiHl+SKu848mRnRj0NAwEAAOCTurYuOZLXpM/2P78qg/G1kQOAawkAAJzz0ELVMDBLFh0vl4yqdn3PFg81AAAA/FCz0yOnS1r0vf2qqd/DrPYlAAAQup5elibvR+XLnqwGqWnl9AAAAACK/n8V/eEbs+XRxamMmwkAAJhqVcCiFHl1babMOVwmCaWt0kGvAAAAAMvs6a9qccux/GaZebBUwjdQ9Bs+AAiz2f9BAADAL70ClqbK6M05svp0lWRXd7BFAAAAwGTaXN36VlBHcq38M7pAhq3OYHn/IHpgXpL8aqxvKwBsBAAA/L5FYHmavOXIFbv2cMivc+oJMQ9NAACA0KJOgsqq7pBdGfUyeW+xvL4+S55axrF9RvKrcdsJAAAY6DjB5enybkSeHgbk1HRIVzdhAAAAgBGX9Ne2denbOrcm1epd+4efK/gfYkxLAAAAvlIPkHFbcmTN6SpJq2yXzi62CQAAAAxGsV/Z7NaL/cjUOpl1qEzfyvn8ygx5bEmq/H1BCkIEAQCAkPDE0lQ9VZ57pExOFjZLQ0cXD2QAAAA/Uj2ZKppdklzepp/etOJUpXyys1Bfyq9WaaqmfRTRBADf+e07uylUAATcI4tT5LmV6fJhdIHeVCa7hiaCAAAA3uzRr2h26435ThQ0S3R6vayIqZRJe4pl/NZcfUZfrcB8jEKfAMC7AGAXxQmA4J8osCRVXluXJV8fKJG9WQ1S1uSikSAAAMC5Wf3jWrE/MTJfn8V/cunZAv/hhRTDBAAEAAgyPoTwt28DAdv6bJl9qEz2ZzdKOYEAAACwsG7tH+2uboktapGv9hbrIcDfFyTDgvweAFCAAAi2x5ekyatrs2TCtnyZvKdY5h8tl7Wnq2V7Wr2eeKdVtEtLp4cBAAAAsDx1wlKT0yO7M+vlw+0F8ujiFApjAgACAADGovakvR+Zr8/qb0qokcO5TZJZ1SH17V360ja354z+QFMz/d3M9gMAAHgVBqixlGr49/muQnlyaSpFMgEAAQCAYM7mp8pb9jx9Fj8qtU4v8lVKTXEPAAAQ2G0CHe5uOV3cInMPl8rLazIomC0YAGhuMHkAwJsAGCwPLUwW24YsmXWwVHZl1Et+nZO9+gAAAAYJBMoaXbI9rU4+21UoQ5enyYOMX82/AsBmv9fHAICLCuDCHtYK/lfWZuoF/4GcRn3JGQ9YAAAA41OTNDk1HfoRzCoQeH5luj62IxQgAACA7zy2OEXGb82R9fHVklfr1Jfy8xAFAAAI/f4BhfVOvX/A3CNlMmZzjjyxJFUeXsT4lwAAgKWobrJvbMmRTQnVUtbk4iEJAABgAapvU0p5m75KYMaBEhmzOVueWpaqjw1DYaXAAxZAAADAb/v5h63OkIXHyiWruoO9/AAAAJBWV7dkVrXLvuwGWXayQj6KLtAbDH4XDCy0RuFNAADAFB5ZlCLjtuTIzox6aXZ6eNABAACgTw0dXZJW2a73hVJbRafuL5E37bny3Mp0PRx4bIn1woG/a3/fQP+9CQAA9Mvj2s3pn9EFcrKwWdzs6wcAAICfegtUtbglvbJdjuY3SWRqnSw5WSGT9xbrAcFLazLk2ZXp8vSyNP346IcXpYRUka/+vE8sTdVPVXhhVbqM25ojU/eVyJrTVXoYsiuzXp7U/v8EAAAMcdNSS7XU0q2kslaW+QMAACCo1PGEzZ0evc+U2lpwqqhF9mY36H0HVsZUysxDpTJpb7FM2JYnY7fk6NsNXlydoa8sOLu6IE1fYfCk5hFtXHs+taX1gfkXp/7/5//3alysvpeiCnr1/Z/Xinr1e47enC3vRebLV/uKZd7RMlkXV6UX9+rPm13ToYccbk/P9/5uRQ2d8tq6zF7/DANl2gCA/R2Af6mlSCp1PaFm/D0U/gAAAAgNzq4e/fjpurYu/eSC/Dqn5NY6Jb6kVeLOc6KgWfZlNcjeiziu/f/P/+8TS1slX/s+igok1O/R3y2xxUEo/gMSAFAoAeajllpFpdVJh7uHhwgAAADgR9Wtbv0YxUAX/wQAAHqlmpDMOFii35S4OQMAAAD+VVDnDFrxTwAAGN38wTNyY7be4K+bff4AAACA36mtCLb1WUEd4/sWANjsjxoyAJgPwF/UsX6zDpXqe5i4MQMAAAD+l1PTEfTiX/nNWzu9DwDU/+gzAKCAAkKWOopkT1YDTf4AAACAAEksa5VX1mQOynhf1ewEAADkbXuunkSy5B8AAADwPzXOPpbfJC+uyhi0MT8BAGBxDy1IlukHSljyDwAAAARIV/cZ2ZFeJ08vS5P75ycNmqv9GQBc/fZOCioghDy6KEXWnK6SDnc3N2YAAAAgANq1sfbq2Ep5dHHyoBb/fg8Arhy3naIKCBFPLUuT3Zn17PcHAAAAAkStslXHaj+4IGnQi3+/BwC/IgAAQsLzK9MlpqhFX4rEjRkAAADwv+KGTpmwLU8bfxuj+CcAAAbJYH7oX12bKfGlreKh2R8AAADgd2qcHVPULMPXZcr985IM5eq3DRwA3G+gpAQwg9fWZUhmdTud/gEAAIAAcHb1yOaEanlySarhiv+ABAAUWQDFPwAAAGA11S1umbSnSB5ckGzI4p8AALCIVyn+AQAAgIAt+Y8raZERG7IMW/h7HQCEO14lAAD6yyAf9BkHStjzDwAAAPhZm6tb1sRWyRNLUgxf/HsTAGhswQkA5gEIFNX1v6Sxk5s0AAAA4AdqZW1uTYdM3JYnfw+hetb/AQDFFmBIC46WiYdj/wAAAIAB6XD3yJbEGhm6LDXkagICAMAinl6aKlnV7dy0AQAAgH7O+ufXOuW9iNCa9ScAACxq0u4icXl6uIEDAAAAPu71XxVTKY8vSZH7tHF1qCIAACzk4YXJElvUwk0cAAAA8HLWP7a4RcLPdfi/L8QRAAAWM35rjjQ7PdzQAQAAgF4K/7Iml3y2s1Bf7n/fPHMgAAAsaGtiDTd2AAAA4AJaO7tl2ckKffWsWQp/AgBgAEL9gz90eZqUNHAsIAAAAPAt1SsrMrVWnl6WarrCP2ABgFkvFGA2ajmTs4uGgAAAALD2Un9V+O/PbpCXVmeYvgYgAAAs6v75SbI7s16/6XHzBwAAgNUK/86us4W/bX2WZWoAnwIA7X8QAAAm8tyKNCltdPEQAAAAgGUKf3Wk3470er2zv2nH+t9c2G/f8S0AuJoAADDfVoAON1sBAAAAYF4e7R/17V2yOaFGXlZL/b9JsqTfT9zrwxaAcPtVBACA+bYCRKXVsRUAAAAApmzsV1DnlAVHy2XosjTLFv4EAAC+8+TSVMmqbicEAAAAgCmW+bd0euRkYbN8HF0gDy1ItnzhTwAA4HvGbcmRJqeHhwYAAABCkmrqV9TQKatjK+X1dZlyv0WK+r99k+g1/wYAY6P0b0oxFZwGDoC/zTlUqi+T4gECAACAUNDVfUaqW92yJ7NePozKl4cXJvtUEFuNXwOAX46JlLtnxVNIASHq/nlJEk0/AAAAABi86K/Riv4jeU0yaU+RDF2WSnFPAACgPx5fnCJpFW2EAAAAADBUM7/KZpccym3Ui351nDUFPQEAAD9QR6OUN7kIAQAAADCojfzy65ziSK6RD7fny9NLmeknALBwAwcgkN620xQQAAAAwdPh7tYnoY7mN+m9qUZtzJIH51MjGToAuGtWHBcWMAm1vMrZRVNAAAAA+J+a4Vdd+9Wy/gVHy+Qte448tTSFcfjgBgBjCAAAC1tyolzcHrYCAAAAoP/aXN1S0eySlPI22ZJYI1/tLZLRm7LkscV07TdYAPAlAQBgYfdptibViId+AAAAAPCiWZ/q0J9f65RThc2yPq5KJu8pkrGbs+X5lWly3zzG116b638EAAD69OCCJIlMreWhBgAAQHM+fTZfFfmFdU59Rn9fVoOsjqmUL3cVyptbcuTl1eny2KLkgBSwIAAAEASPajfxgzmNPPgAAABMxu3p0ffjN7R36cv0C7TCPqe6QxJKWvXx37aUWll+skK+2lMk7zpyZdSGLHl5Vbo8uSRF7v+GopoAgGIJMKXHF6sQoIEHJQAAgMGo05t2ptdJdNpZa2KrZJlWtP/QrIMlMnl3ke79bXn6jP3YTdliW5cpr67JkBdWpMlTWmHPDD4BAAEAAHl8cYocIAQAAAAwlMO5jRS4IezeIPkdAUDoNnAABssTKgTIJgQAAAAwijmHSoNWRCJ0+T8AmBlHgQRYgFoJEJVay+kAAAAAg6zV1a132afABQEAgIB5eEGyfo6rOu6Fhy8AAMDgKKx3yiMLkylwQQAAILD7kh6cnyRLjpdLh5sQAAAAYDDszWqguAUBgNkbOABGoY5/mbqvWJqdHh7CAAAAQaS2Y369v5gxKQYnALhzZhwXFrAgFX5NiMiV8iYXD2MAAIAgUcf/ha/PZDwK/wcA2v8IIwAA0JvX1mZIWkU7D2QAAIAgyK3p0LdkMg6FN/7wwX4fAgCb41ICAAB9eWpJquxIr5Oubk4IAAAACKSI5FrGn4aWYCh//OigTysACAAAeOXv85PkmyNl+rE0PJwBAAD8z+05I//cnm+4IhPGRQAAIKB9AcZvzdGPpuEhDQAA4F81rW55dnkqhS0IAAAYaEvA0lTZlVEvbrYEAAAA+E1sUTNFLQYxABgdKX+dcZqCB2Bv0o+oowIn7S6U2rYuHtgAAAB+MP9oKUWtgdwzx/iu+6cfA4BfjNomt0+LoUgCcFHPrUiVw7mN4mE1AAAAQL+1dnbLqI1ZIVF0wtQBwCmKHAC9+ts3CfpqgOoWt3T3EAQAAAD4qqjeqa+wpKgFAQCAkPDU0hTZnlornV09BAEAAABeUuOmrYk1FLQgAAB7ZRB63tyaI6kVbdLFtgAAAIA+qcmTidtyGUfCGAEAFxaAr9QStqn7iqSs0SUeVgMAAABclDr+7/HFyYwhEYgAYIHG+wDgtqkEAAD675GFSbLkeLk0tHexLQAAAOAC9mU1MG5EYAIAm2PdEJudAABAcD27LFXWx1URBAAAAJxHbZlUzZQZL4IAAID5goDlZ4OA+vYutgYAAADLU5MjzyxLZZwIAgAA5qUedEtPlEtFs4tmgQAAwLJiipoZG4IAAIA1PLowWabtK5b0yjbpcHczEAAAAJZa/v+1Ng5iTAgCAACWOzXgHXuO7Eyvk9q2LvGwKgAAAJhcU4dHnlvO8n8QAACwsOe1B+HMAyWSVNYqzU4PAwQAAGBKCSUtcvfsBKDfrvuQAACASdw3N0FGbsiUFacqJLOqXVo62SIAAADMQTVDnnOolCIWBAAA8EN/n5coYzZlybKTFfrKAI4TBAAAoayl0yPDVqZTxIIAAAB6XRnwTYIMX5shU/cWyb6sBimq75R2GggCAIAQ6/5PAQsCABgCHyaEkscXpciYjdn6MrrDuY1SUOfUewewQgAAABhy+X/3Gf0UpLtnxwMDct2HB/wfAFBgAAgl6mhB27pM+SS6QDbEVUtsUYsU1jmlsYNQAAAAGGP5/9ClKRSwGHgA8E/fAoCfalp6CwD+MoUAAEBou+fcKoFX12TIhIhc+eZwqTiSaiSmsFmyqzukotmlNxj0DFI4oEIJZ1cPAyIAACziWH4TxSv84oZPD/sYANgcZQQAAMyp75vmwwuS9PN3VU+BcZuz9VUDsw+W6CcPbE+tlUO5jRJb1Cwp5W36SQRZmpKGTilrcvUpv9ap/xolobRF/z6qZ0GU9n1XnKzQtyxM2VMkq2Mq9e/JgAgAAPPr6j4jX+wqoHiFfwKAz44QAMD/RRJgdfd/kyAPzU+UhxckytNLUuSZpX17fFGy/muUe+d8//upUw0+21EgSaWtzP4DAGAh6iSjRxcmMb6CkQMALiwA+IMKEKbtK5KMynZxeSj8AQCwErXtb1d6HWMiGDkAOMmFBYABemBegny6o0Cyqtv1zr8MggAAsOby/wmOXMZGMGgAMDJCbv2KAAAA+utvc+Plg8g8Sa1oY8YfAACLK29yyX1z2YILgwYAl42IkJsnHefCAkA/jNqQKUfzGqXDTeEPAADL/8/I+rgquUsbIwD+QgAAAIPsySXJsjG+Spo6PPrDnkEPAABQWwBfXZNO0QoCAAAwxXL/OfHyxc4C/Ug/D4U/AAA4T1pFGwUrCAAAwFdGvPk+vzxVDuQ0SCdH+gEAgAv4en8xBSsIAGCtIgkwm3vmxMvkPYVS0exiuT8AALigNle3PDQ/Ue6aFQ/41Q2f9hEAhDsODLHZL/EpAGCQDwA/pvb670yvk066+wMAgF7syqijWMWgBABh4Y5jPgUAfyYAAIAfGbMpS3JrOpj1BwAAfXpjczbFKggAAKBXBrzJqu01U/cV0eEfAAB4Ja+2Q+6ZTaEKAgCYvFACzOaBbxL14/3c3RT+AADAO/MOlzKOQggFAF8e58ICsLxHFiTJwewGZv0BAIDXOtzd8tjCZMZSIAAAgFAxdGmKJJa2MpABAAA+Uc2C72YsBQIAAAgNz2jFf2ZVO4MYAADgE7VqcMzGLMZT59yJgCAAAAA/Fv8ZlRT/AADAd2oM8bc5CRSpCKg/EQAAgH+W/VP8AwCA/pqyp4gCFQQAAGB0jy5IkhMFTQxeAABAv9S0uuWRhUkUqCAAANiXBCO7/5sE2Z5ay+AFAAD024a4KmuPL2fGIUj6EwCU+BIAUCAAMKu7Z8fLvCOl4uGoPwAA0E/Orh55YUUqxSmCwtcmgD/RJPQVAFAYALCCd+w50u7qZvACAAD67WBOg9wzm1lwBMdNXxzT6nZvAwCbXQUAJwgAAFjdE4uTpai+k4ELAADot67uM/L21mwKUxAAAOxLglGplD46rY6BCwAAGJDU8ja5f24C4yuEeADAhQVgYhMcOeLy9DBwAQAA/dat/WPSrkLGVgjxAED7hlxYAGb14LwEyahsZ+ACAAAGpLihUx5dkMj4CqEbAAzRvtFNnx/lwgIwren7ihi0AACAAVtwtIyxFUI8ANCoYwW4sADMOvuv0noGLQAAYCBqWt0ydEmKqcdNf4UhEQAAgJem7mX2HwAADNym+GqKZAyKGwkAAKBv986Ol+xq9v4DAICBaezwyLCVaRSjIAAAAKMaszFTPNpTm4ELAAAYiO2ptXL3LApRGDMA0MSGhTsIAMDeJFibI6mGQQsAABiQ1s5usa3LMN9YaQZCxY2f9xkAFA3xJQD406dHKBYAmMrds+OlqsXFwAUAAAzIwewGuUcbV1CIwrABgM1RQgAAwNJeW5POoAUAAAyI090j4zZlUYSCAAAAjGzOoRIGLgAAYEAO5TTqTYUpQkEAALA3CQa2P6uBgQsAAOg3l6dH3t6SbYpx0R0IaYEJACgYAJhIfq2TwQsAAOi3mMJmuW9OAgUoTBgAfEIAAMBcOrt6GLwAAIB+UeOI9xy5FJ8gAAAAo3tkfhKDFwAA0P/Z/yJm/0EAALA3CSFh6JIUBi8AAMCis/+nYTI3fn7U/wEARQMAAgAAAGB1sUXN8rc58RSeMG8AcD0BAAACAAAAYHHOrh6Z4Mih6AQBAAAQAAAAADM7ktsod89iGT1COAAIC3eoAOAIAQDYmwSreGRBIoMYAADgkw53t7yxKYuxFAznpi+Py2UjI7xcAaD9i2ZD7wHAYS4sAFPhGEAAAOCLQzkNchez/zCgP086Ib/wOgCw2S8ZEm4nAABgKQV1TgYzAADAKy1Oj4Svy2AMBQIAAAhFKsVnQAMAAPrSrf1jV3qd/JXxE85z+3TjIAAAgD7MP1LKoAYAAPSpvr1LXlqZaqiCDyAAAAAfjFyfwaAGAAD0Ofu/4XQVRSasFQD88aNDFAwATOXOmaelrq2LwQ0AALioymaXPLM0hSIT1goArv3gAAUDwL4kU1HXKDKlhsENAAC4II/2j0VHyxg3gQCAIgmAGYzbmKUv7WOQAwAAfii/tkMenp/ImAnWDAC4sADM5s6ZcZJb08EgBwAAfI/L0yOTdxcyXgIBAACYyYz9xQx0AADA9ySUtMjf5sQzVoI5AoBwR0tYuOMnBAAALO/+ufFS1tjJYAcAAOja3d0ywZ7DOAlmCgAUAgAA+HYVAL0AAACAGg/sy6qXv9IrDAQAXFgAZl0FkCBZVe0MfAAAsLiG9i55dXUa4yMQAHBhAZjZW1uypbOrh8EPAAAWPvZvbWwl4yIQABAAADD9iQAzTktEUg0DIAAALKqo3imPLkhiXGQRt30daxp/nnScAAAAfPXI/ETJrmYrAAAAVjz2b9KuAlMVhbCOm74kAACAfhm1PlOaOjwMhgAAsJC44ha5e+ZpikkQABAAALCSOzRT9hSKk34AAABYQkunR0auy6CQBAEAAQDA3iQrUv0AVsdUiLubowEBADD7sX9bEqrkdsY/IAAInQCAHzoAf7tn1tmmgKojMAMkAADMqbzJJY8uSGTsAwKA8/3+g/1cWACW88DceNmRVksIAACACamVfpN30/gPBAAEAABwXggQlVLLdgAAAEy29F81/ruLxn+wXAAQ7rhkiM2xjAAAAC7s3tlxsjamQjppDAgAgCm0dnpk+Oo0xjkwhZu/OimXj9rmXQBwNgSwTyEAAICLUzMEM/cX6Z2CGTgBABDas/9rYioY38A0biEAAAD/u2N6rLy9JUtKGjoZQAEAEKKK651y/5x4xjYgACAAAIC+Pbc0RY7kNoqHvgAAAIRW4z/PGXnXns14BgQABAAA4L2/zY6TuYdKpNnJlgAAAELFrvQ6uZ1xjKn8BfQAAIBguH16rLyyKlVOFjSxGgAAAIOrb++Sh+cnUDCCAKCvAOD/Ju5lsA8AF3H3rNMyaWcBvQEAADCwz3fkUyyCAMCbAOC3E3YzyAeAPjw0L0EWHyuThvYuBloAABiI6t2jVu5RLIIAgAAAYF8S/Eb9zJ9YlCTrT1dKUwf9AQAAGGyqX8/TS5IZp4S6abiYkAwAeFMDMFsQ8ND8BFl0tEyqWlwMwAAAGCRTdhdSJMLcAcDkAAQADOgBoH/umnVaPt6eJ/ElLdLdQ7NAAACC5VRBk/x1+mmKRBAAhDvCCAAAIMirAtQSRNUnoKyRhoEAAAR66f/QxckUiCAA0ITZ7FcQALBfBsAgemFZiiw5ViYpZa3i8vSwOgAAAD9Rz9SvWPoPAoABBABcWAAImL/PTZB/ROTKprgqya5ulw53j3R1nyEUAACgH07kN8mdM1j6DwKA/gUA7xIAAEAw3T8nXkavz5Dp+4rEnlit9w+obXVLh7tbOrt6xN19Rjz9CAjUf6+CBbenR/8+6vvVaN9X/TsDRgCAGajjeJ9ZwtJ/EAAQAACACYKBl1akyltbsuWT7fkya3+xftLA5vgqnSOpRg7nNOjnHR/IapAtCdXf/f/mHizR//t/RubJ2A2Z8sLyVH3lwQzt/6ZCAQaNAIBQp8LxL3bkM2YAAQABAADgfLd/HSszKf4BACayL7PeL0v/b50WA4SMP08+QQAAAKD4BwBYhzph54mFiRSEIAAgAAAAfOs2in8AgMk4u3rk/YgcikEQABAAAAgl3MQDi+IfAGDGI/9Ur5s7pjOOAAEAAQCFEgDobp+uiv8iin8AgKmkV7TJg9/E9/8ZORUIbQEJABg8A0Do+qtW/K88WS5uD8U/AMA8Gju6ZMS6dIpAWDsAmOTnAOBqAgAACN3if0asrD5VoR+NxGARAGAWbu259s2hErmNWXxYnM/HAIaFO94hAAAQdNywA+6eWadlU3wVy/4BAKZzILte7pl5muc9oPnl6EhfVgA4Rg1WAPDKqlSKIIokAIEo/rVB0Y60Wmb+AQCmU1TvlGeWJPO8BwIWAAToD/r2lix5e2s2PzQA8KMH58bLoZwGin8AgOm0ubploiOH5z0QigHAX6bFyPIT5fLFjnz5Cz84ABiwJxYmysmCJvH0UPwDAMxFbWlTTW1v/zqWZz4QigGAct/sOIkpbJZpewr5MAPAADy/LEXSytv0M5EZKAIAzOZEfpNeO/DMh5XdcgGXh1IAoAxbniIVTS5ZcqxMP66KHywA+GbE2nQprHMyQAQAmFJJQ6e8sCxlQEUSYFZ+DQCuemtnUAavn2zPk3ZXt2yOr6KjJwB4u5VKM8GeLVUtLgaIAADT7vv/x7ZcCj0gGAHAr9/cEZRBrFr+v/nccVX7Muv1JlYM7gGgl/vmtBj5aleBNHZ0MUAEAJh63/9tX1PkAaYKAJQH5sRLUmmL3rwqrrhZnl6UxCAfMMG+JPjfnTNO601U1copBogAALM6ltcof5sdx7MfMGMAoKi9PdUtbr2JVW51hwxfnUaRBADnuX9OnESl1IjL08PgEABgWkX1Thm6JJlnPzDAAGCIzX6NTwFAMP/wqjj+YFuudLjPzmpVNrv0/a0UzQAQI08vTjp7zF83nf4BAObV4vTIm5uzePYD/ggAwh13GjYAUG6bFiPLTpR9dwNo6vDIjH1FctvXsfyAAVjWiHXpklvTwTF/AABTUyvc5hwskVun8ewHLBEAKPfOipMjuY3f3QicXT2yMa5K7p55mh8yAEv5y7SzJ6XUtdHsDwBgbirk3plWK3dMZ+IPFjLl1ICYIgD4dqlrYb3ze11Aj+Y2yhMLE3mTALBMsz/V/ZhmfwAAK0gpb5UHv4kPWKEEmJFpAgBl9IYMaXZ6vpcKqiWwqjkgxQEAM3t4XoIczG7Qw08GhQAAs1O9v15clkJBB1g5AFDN/6buKfxRt+vaVrd8tiNf7xdAoQDAbF5bnSbZ1e3s9wcAWEK7u1ves2dTzAFWDwCUv06PlS0JVT+6Uai+AOtiK+WuGfQFAIy+NwneUfv9P4vOl8YO9vsDAKzB7Tkj8w+VyK2MA2ABNweA6QIA5b45cRJT2PyjG4Y6Ciu2qNlYfQF4YwPoh7tnxMqG05XaQKiHASEAwEJN/+rkjq9jglIoAWbk3wBg/A7DDI6HLkqSkobOC944Kppc8uamTIoIACHpmcVJklzWKh6W/AMALNb0T53yRREHEABc0LiNmd9rCvi9LQHuHllytPSCCSIAGJFa7vi+I0fq21nyDwCwlqpmlzy5MJECDiAA6N20CzQFPH81wMmCJnlsfgLFBWCgvUn4MRVWqiX/zPoDACzX9M/VLSPWpjMeAIwYABjtL/iXqadkozZo7q07dm2bW97dmiW3TuUNAcB4nlmSJDnV7QwCAQCWbPr3yfY8xgMAAYD37poRK8fyGnsNAdTZ2Wp27R72FQEwCBVKTtpVoM98MAgEAFiNWvW28mQ5YwLAj64Yu92nAODhUAwAlEfmJ0huTUef52RnV7XLyytTeXMAGFQPzo2XA1n1DAABAJbt+L8vs54VuoCfXflGtE8BwAOhGgAor65KlZpWd583nDZXt8w5WKzvueVNAiDYs/7vbs3Wmx0xAAQAWLbjf1mr/HV6LGODYPoKVmCpAECZ6MiR1k6PVzeemMJmeXpxEjcDAEFx3+w4sSdWi6ebRn8AAOsqbejUV8JRrAEEAH4x92DJRU8G+CF1jOCU3YWsBgAQ0Gal6tjS/Nq+tykBAGBm9W1d8uKyFAo1gADAf26bFiOb46v0xn/e7kFSxwWqTtwUKwD86YG5cXoDUmdXDwM/AIClqW24b27KpEgDQiUAuDJEAoDzTwbw5Uztxo4umbqnUP+1FC7sSwIG4rapMfLOliyvmpMCAGB2anXu59H5jBGC5M+wrF/5MwBQRwqE0hv/oW/iJa2izafBtwoMYoua5ZWVqWe7knIDAeCjJxYkiiOxWlzM+gMAoK/KXXikVG6ZQnEGhFQA8MsxUSE3EH9uSbLeaMTXG1VTh0eWHC2TB2bHUdAA8MqdX8fKp9vzpKQf9xwAAMx63N/WhGq5dWoMxRlAABAco9dlSH17V79uWBmVbfLW5iy5fVoMBQ6AC1IzGsOWp8ih7AZxe5j1BwDg27H0/qx6+evXsRRmAAFAcH22PU9vPNKfm5fT3SPRKbXy7JJkih32JgHf88CcOFlwuFTvasxgDwCAf1Hbav82K47xQsCdBL7jRQDwpE8BQKh+MG7RfOPD8YAXUtXskjkHirmRAdBXBU2wZ0u6j31GAACwAvV8fGRePAUZYLwA4FVLBADKX6bGyPrYSp9OBvhRk8DuM5JS3irvbs3WjxukEAKsRS33f3F5iuzJqONoPwAALiC/tkOeXZJEMQYQAAy+v06PlZ1ptQOesetwd+sFwEsrUuloCljEI/MSZOnxMpb7AwBwEWWNnTJ8dSqFGEAAYBxqCf+pgia/LNtVzQVXnaqQx+YnUiCxNwkmdffMWJm0M1+f0WC5PwAAFxkXt3XJiLXpjB0AcwUA5rgwD30TL5mV/tm7q75Hcb1TZuwrlL/NOs0bDzCJv0w9JW9uypS44ma6+wMA0Efx/86WLLmZ8QNAAGBUQxcnSnGD0283vq7us8cGfhadJ3dOj+ENCISom6eclNdWpcrB7AZp7+fpIQAAWEVrp0c+icql+AcIAIzv1ZUpUtfm9utNsLOrRxJKWuStzVly2zSWvwOh5LmlSbItuVqanB4GdQAAeFH8f7EjT26ZwhgCIAAIEeM2ZOg3L3/fENvd3XI8v1HGb8okCAAM7vEFCbIutsLvgSAAAGalTsOZtb+I4j9AbpoM+I4AwEvvO7L1zv6BuDmqIOBgdr2Er0nTlxZzQwOM47H5CbLiRJlUtbgYzAEA4EPxP/9wid4vh6ILIAAISV/tKtCX7wdyidSBrHNBAIUXMMiFf7ws1wr/6hZm/AEA6E/xf+sUin+AACCEqeVL3xwsFk93YI/5UkHA4ZwGeWNTJkumgCB7VCv8V5wr/DnSDwAA35ter42poPgHCADMQe3VX9ccdJ8AADiUSURBVHKsNOAhgKK2HMQUNsmbmzP15VPsSwIC58mFiRT+AAAMsPjfeLpS7pgWw9gCMEkAcHdfAYAVLpoKAbYmVAV1GVVqeat8EJEjd3zNDRXwp+eXJsvm+Cqpa+ui8AcAYIDF/+0U/4ChXfXWTp8CgGsIAM76q1aI24MYAihuT4/k1nTIjH2Fct/s07yBgX76s2bE2nTZnV4nzU4PhT8AABT/gDUCgLd3+RAA2OwEAOe5a3qs3r0/2DdZtf2gqsUtq0+Vy1OLEnkjA96u3pl6SiY6siWuqFnfYkPhDwDAwIv/TXGVchvFP0AAYAX3zjytN+wbjBuuKl5anB7Zl1kno9alyy00WwEu6P7Zp2XGviIpqO3QV9IwYAMAwI/FP0f9AQQAVnLPzNMSW9g0aDdfFQS4tKImrbxVP6rw7hmxvLnBMn/NC8vO7u+vb+sSD7P9AAD4tfjfrBX/f6H4BwgArOihufGSUtY66DdjVeTUtbm1G3KVDFueohdBvNFhqWX+007pDTPVMn+nu4dl/gAABKL4j6/iqD+AACDK0hfzwbnxerd+I9yYv10VkFzWKp9F58md01kVAHMbuihJlp8ok6oWV1CO6QQAwIrUM3YLxT9AAKBcPjpSbvjyOCGAQUKA88MA1enckVgtw1enyc1f8caHOahzhj/dnidxxc164MVsPwAAgV1pulUr/m/5iuLfX26cdAIIKt+OAfQmAPjiuOU/yH+fE6eHAEYtRgrqOmThkVJ5YkECWwQQclSzy5Fr0yUiqVpvgsmADACA4BxHvfhoqTZ2pIACCAAIAH68HHlxkhTWOQ09I6n2b6mZ02l7CuX+2XGsDIChi/6nFyXKihNlUlzvZCAGAECQi/8Fh0songBrBADDCQD66ZnFSVJg8BDgW053txzJadD7Bagj0wgDWAY22NTewqe0on++NuBIr2hlAAYAwCBwUfwDVgsAPjJcABBKF1gPAWqdIbU3ucPdLYfPhQEPzI6TW6ZQmCJYRf9JfaZ/7oEiiS9uZk8/AACDqLOrRz7XxoOMUQBLBQCfeh8AjNomf/r8GBf2RyFAouTXdoRkMaNu/KcKmmTa7gK9Z8BtU0/xM4Xf3KS5fdopeXFZkiw8UqIfpemh6AcAwBATQp9G5TJeAQgACAD649nFSSEbApy//0sVaEuPlcprq1LlrukxNIKBz9T2krtnxMrYDemyLqZCcmvaKfoBADCQ1s5uGb8xg3ELQABAADAQTy5IkOSyFlMsa1Z/h/KmTtmZVisfR+bKo/Pi9Zlcfs640Cz/Hdp7Q60gmbwrX/Zl1klNq5sBFgAABlTT4pZxGyj+AQIAAgC/ePibOEkqbTHd3uZ2V7f+91p1slzGb8rQj0L8C70DLEttFXlobpy8vTlT1sVWSFp5q76dhIEVAADGVdnskpeWpzCWAQgACAAIAXxT39al9w5Q2wVGrUuXv885Tf8Akxf8D2oF/9gNGfpRfbGFTdLU4WEwBQBAiMir6dD7VjGuAQgACAAIAQasttUtp4uaZfXJcnl3S5a+HPzuGTH68nDeD6G3pF/1f1A/wwlbs2RtTIX+s1WhDwMoAABCjzp5Rz3XGecABAAEAAEOAY7mNliyAZraMpBV1S47Umtl2p4CeX11qn49/vp1DO8Ng1H799Vy/tdWpug/K/Uzy6xs03+GDJoAAAjtnk5Hcxv1lZqMeRAKbvgSA0UAMMjumRErh3Ma6IKums60uiW5rFW2p9Toxw6qUOCx+fF6x3hWCgSHmtlXDR3VKQ9f7cqXbUnV+kqVqhYXAyUAAEykq/uMHuqrZz9FEWAdvyYAMEYIcCCrXr8R80D6cS8BNdt8MLtelh0vk48ic+Sl5cl6kapvIeAYwn658+sYeeSbeHluSZJMtGfLkqOlsl97D2ZUtEltm9syW1MAALAi1ZhXbeH7y5RTFEQAAQABwGD469enJCKxmhDAy8S6usWlBwPH8hplQ2yFfLWrQMasT5fnlybpha1aNfBnC4cDKhi5c3qMvnT/2cVJMnpdukzemS9rTpXLoewGvSu/6vRLZ34AAKylzdUtcw8Uy82TT1IMAQQABACD6fZpp2RLfJW4PRRl/dXh7paKJpfeX0A1potOqdFnt7/ckS/jN2bIKytSZOiiRL3fwN1agXxrAI4qDPSH9uavTurL9VTX/ScXJugrIlSB/2lUriw8UiIRSdVysqBJMirbpKyxU1o76cYPAABE6tu75OPIXH1rJYUQYNEeAG/v8iEACLf/r78CAC7+xYs7dXSe28NKgEBQ4Uqj9vAr1wrj7Kp2fX+7KpZV34E1MeV6Af1FdJ7+cByxJk3CNS8sTZbnlySdCw7idWpmXS2j/6E7pv14H92t2s/0Qv/t/bNPf/f9npifoC/HV2yr03QfROTof46Fh0tkxfEyiUyq0Vc8JBS36KsfShqcUtfmFiez+AAAoA+lDZ0ybkOG3Mh4G7C0q9/d40sA4PhZb//xL0Ztk+s/O8aFHWgIMPmkzNpXJE43XdaNQM2gNzs90qCCg6ZOXdm5AOGHVGGujtI5X2pZ6wX/26J653ffTzVAVL+Hwv57AADgT6rHz4vLkhlnAyAAMCqVzqo92y0s3wYAAEA/qEmF43mN8tj8BMbXAAgAQsGErVn6rDAPMQAAAPiy7dGRWC33zoxlTA2AACCUjFybLrWtbh5mAAAA6FO7q1vvIXQbx/wBIAAITc8vTZbieicPNQAAAFyU6ln0cVSu/Jlj/gAQAIS2JxYkSGp5Kw83AAAA/EhRnVNGrUvnxC0AQQoARm6T6z45woUNoL/PiZOjuQ085AAAAPBds7+44mb9yGLGyzC6P315HIPIrwHAZSMjCACC4K7psRKZVM0DDwAAwOK6us9IdEqN/G1mLMUNgD795t3dBACh6Lapp2TJsVK9wysPPwAAAOvpcHfL/MPFcuuUkxQ2APwUANinEQAY1M2TT8qUXQXS5urmIQgAAGAhdW1umejIlhsnUdAA8OsKgFUEAAZ206QTMmFrFscEAgAAWERWVZu8uCyJYgbG9wWMxu8BwB8+OcwbfRC8siJFihs4JhAAAMCsPNo/DmTVn93vTyEDgADA2h75Jk4SS1t4QAIAAJiM6vu06EiJ3PrVSYoYAAQAOOueGTGyO72WByUAAIBJNHV06Vs+b2BJNQACAPyQ6gS7/ESZuDghAAAAIGR1a//IrGyTpxYmULgAMGgA8PFhLqwB3Pjlcfl8ey4nBAAAAIRo8b8jtVZun3qKsS0AAgB45/VVqVLR5NIfIjxMAQAAjE+t4lRHPTOWBUAAAJ89MT9BkkpbCAEAAAAMPutf1tgpLy9PZgwLQHe9nxEAWMRdX8fIzrRa6eomBAAAADAadcTf4ZwGuXcGR/wZpVACzIgAwEL+POmELDxSIh1u+gIAAAAYhRqbLThcovdwokABQAAAv3pva5bUtLrZEgAAADDIS/5LGjplzPp0ZrABEAAgcJ5dnKgfK0MIAAAAEHzu7jNyIKte7p91mqIEwFmfB95v39vrUwDw70PC7XUEAObYl6T2mO1Opy8AAABAMLU4PTLnQJHcNOkEBY9BiyTArK6ZuM/7ACAs3HGp9n8o6y0AuPbjw9yUQsifJ5/Q95y1dnp4IAMAAAR4yX9Odbt+TPOfKGQBEABgsLy7JUvKmzrZEgAAABAAnV09EplUI/fNjKUIAUAAgMH31MIEiS9u1o+h4UENAADgH1XNLvkiOk8/kYkCBMBZxwYFAQB7k77njmmnZFNcpZ5S88AGAADoP9VnKaawSZ5dlEixE2JFEmBW/g8APjrMjSrEqT1pn0blSn17F1sCAAAA+qHZ6ZElR0vk9qknKToAEADA+F5aliwZFW08xAEAALyktlJmV7XLmHVpcsMXFBsATBwADBnhkN9/eJDi2UTu/jpGtiVVi9vDlgAAAIDedLi7JSKxSh6YFUuhAeA7fzQQvwcAv7NkAGDuN+xNXx6XL6Pz9C0BPNwBAAC+T22ZLGlwyj8c2fq4iYLHHIUSYEa/DUwAwM3LjF5eniyp5a086AEAAM5xeXpkZ1qtPDYvnuICgBkCgB0+BgAHKJZN7O7pp2QzpwQAAABIRVOnvkrylsknKCwAmCUAOEIAgB9tCfhnRLZ+pi0PfwAAYMXj/Q5m1ctTCxMoKAAQALAvyfzUtXhmUYKcyG/Uu90yGAAAAFZQ0+KWabsL5C9TTjImBEAAoAIALqx13DHtlCw6UiKtnR4GBQAAwNSz/kdzG+SZRYlMCgEgACAAsK4/fXFMP+s2t7qdAQIAADCd6haXfLUrX26dwl5/AAQABADQ/X32af3sWxoEAgAAM1DbHPdl1skT8+nwD+DHrvss9BAAwK/+POm4fBSZIxVNNAgEAACh3eH/06hcuZkO/5YskgCzupoAAIFoEPjUggQ5lF1Pg0AAABBye/2jU2r0lY0UCwAIAAgA4CW1T2763gJpaO9iQAEAAAyvqN4pb2/KlBu/PE6hAIAAgAAAPq8G+OKYPL8kURKKm1kNAAAADMnZ1SNrT5XLPdNjKBAAEABYIQDgzRBYt009Kd8cLJYWJ8cFAgAA40gpa5XhK1P0LYyM2QAQAPgYAPzfBwe4sLgg9WB9YWmSJJa0SDerAQAAwCBq7OiSmfsK5davTjJOA0AAcMEAwGZXAUAJAQAGQj1o1WqA1k5WAwAAgCAf7dd9RvZl1Mkj38TJHxmXAbCYa/6x3/sAQPsfP9WcIgDAQKkH7nNLkiS5lNUAAAAgeE3+3tqUITd8QZM/AL05alo+BwBhNgIA+I86W3fewWJpd3UzMAEAAAHRpo0zlhwtldumsNyfIgmwNgIAGMLTCxMkvriZ1QAAAMCvTuQ3ylBtnMHAHwAIAGCwJoFTd+dLs9NDEAAAAPpNjSOK653yzuYMbXzBgB8ACABg2GVgD82Jk0PZ9dLVfYYgAAAA+FT4t3R6ZOmxEvnLlBMM9hGy/vApEBgBCgD40GLg3rdnSVWzixAAAAD0yeXpkQOZdfL4vDgG+QBwEb99nwAABnbn16fEnlApnV09DG4AAMCPqBWDGRVtMnptGjOnABDUAEDz2/f3UbjC715bmaw93Fv1s3sZ7AAAALVCsLLZJVN35cufJx1nYA8ABAAw074k9XCfvb9Q6trcDHwAALBw4a8aBq+PrZB7Z8QwoAcAfwYANscxnwMALiwC6ZG5cbInvVacbAsAAMBSOtzdciCrXp5dlMiYCAACswKgwLcAYCIBAALvj58dlbc2ZUhWVZu+949BEQAA5m7wl1zaIqPWpuljAMZCABCwAKCEAACGdduUkzLvYDHbAgAAMCGP9o+C2g75JDJH/vwl+/wBgAAA0DwxP152pNZIu6ubARMAACZQ0dQps/YVyu1TTjLWAQACAOD7rv/8mIzbkC6JJS3i9tAfAACAUFTf1iVrTpbLA7NiGd8AAAEA0Lu/fHVCpuzKl5IGp94pmMEUAADGpzr7RyVXy5Pz4xnPAAABAOCbv8+OlTWnyqWxvYuBFQAABtXm6paDWfXy4tIkuY7xCwAQAAD9dd1nR/UBxb6MOvoDAABgIOo43xN5jWJbnSp/+vwY4xaYzrWAAREAwBJu+OKYjN+QIQnFzeL2sC0AAIDB0qkV/qcKGuWNDely05fHGZADAAEAELhjA7+IzpXc6nb9aCEGYgAABIfL06M36n1va5bcNInCHwAIAIAguWf6KfnmYJFUNrtoFAgAQAC5zxX+E+1ZcutXJxiAAwABANiXFHzqGjwyN07WxZRLA40CAQCg8Af64xMgdPg9ALh64j5uAggpqlHg0EUJsj2lRlo7PQzaAADwU+H/lx8W/gy+AWCQA4ADPgUAPwkLtx8gAIAZXf/5MXlpWbJ+FJFqUMQgDgAAHwr/7jNnC/+t5wp/BtoAYDjXfHBQhoyI8DoAuESzhQAAZqZODFBHEsUUNElXN/0BAADoa8Y/vrhZb+53K4U/ABAAgL1JoejPk47L2PXpElvYxAAPAIALFP4n8hplzLp0uWUyhT+s4ggQ0q754EAAAgBuDjBTEPDlcX05Y2pZKwM+AIDlqW1yBzLrZPTaNLlJe0ZSKAGAlQOA9wgAYE63Tj5BEAAAsKx2d7fsSK2RV5YnyQ2fH2MgDQAEAAQAsE4QkFZOEAAAML9mp0c2xVXK0wvi5Y+fMbMPAAQABADsTbIgtd/xva2ZBAEAAFOqbXXLkiMl8vCc03Ldpzz3YT2/B0woAAHAXm4YsFYQMOm4HgQkl7aIp4dTAwAAoa2wrkO+3p0vf516Uv5AoQQABAC9BQBXvbubohCWdNOXx2TsujSJK2oiCAAAhBx1lN9Ee5bcPOk4g2QAIADwMgB4hwAA1nbjF8dk1JpUOZJTL13dBAEAAONyeXpkT3qtvLIiWf70xVEGxwBgNh9/3zX/6DMAqCMAYG8S+uG6z47KS8uSZFdarX5kEgNNAIBRNHV4ZNXJMnn0m9Pyh095ZgMXKpQAM+ozALA5xOcAgBsI8C9qYPXE/DjZHFcpHe5uBp4AgEGTX9MhX+3Mk9umnKBIAgACgAvyKQD4NQEAcFF3Tz8lS4+VSEN7FwNRAEBQuD09cjyvQUavTZPrPzvKABgACAAIAIBgzm7cMvm4TN6ZJ0X1TunWRmfdNA0EAPiReq6osHn1yTJ5/Js4Br0AgAAGAFxYwCt//PSovLM5UxJKmvVGTAQBAICBFP2q+Wxqeat8HpWrH1PLsxYAQAAAGNCwpUkSnVIjba5uggAAgNfU0bOqqV9kUpW8sjxZrvuUZf4AAAIAICTcPzNGFhwqlspmF8cIAgAuOtuvVo7l1rTL9D0Fcte0UzxDAQAEAECo+vOXx+VDR7aklLWIk2MEAQBqtr/77N7+yKRqGbE6ldl+AIbyOxjebwkAAOMbviJZH+w1dXSxPQAALDjbr46Rzaho04/wu+drZvspkgCAAAAwvb/NiJGZewv0c5w7WRUAAKamtoFVNbtkQ2yFvrf/D58wcAUAEAAAlnPjF8dk7Lo02ZNeK43tXXoDKAbLAGAOTU6PnCr4/+3dCZDc1X0n8CmVSkVRKspFUa6Uy+4eCSEIZgkmxEtI1uV4HZZlvcRJXNhJvI6XJP/WfSMMwXawTViCKSxwjLHjYIXgi3SPrtGNOcQlDguZUyBBQAghQAhxCSGr3r7XMyMritTHTPdM98znVX22yVpz9XT/5//9vfd+77VwcfGJ8LEr73bDCoACAFhyd0c4LTrv2vvDtWufCZteekuvAIA2lZb4PxWv49++9dnwp9950E0q0OJup019+JK1jS8AeEPA4Dvz8rvKqwK6f7kjvPzGXqsCAFrc3n37w9bX9oSfPfBi+JsfbgxnfH2dv2eCEkBTnXLpraGzngJArlD6vgIAtLb/tWB9uHLF5vDw87vDm+/+yo02QKt08Y//z0u73w1rH38lzPvZY+Hj/3CPG1IABrEA8PPQObnGAkBPEaB4tQIAtIczvnZnuXHUzfe9EJ599Z3ybJMbcIDB7+Kfju676+md4bIlm8K537ov/JabUAAUAMCSu2b5g6vuCfNveTysfuzlsOONvY4TBGh6M7/3wkPPvR7+YcXm8KffeSB85DJ/m4A29BWGkyYVALxRoFWd9ne3h/OuXR+u6H46rH9mV3j9nX2KAQANkq6pG57bHRasfSb82Q0Phd/5+p3+9ghKAK1TAPjbhhcAVrj4Q5s4I96YphvU79z2bHjkhTfCO3v1CwDoV+h/fne4Lob+z93wYE/od5MJgAIA0KrOvHxduODGDeGHdz9fPlJQvwCAI9sdQ/8vnns9fGtNDP3ffTB8VOgHQAEALLlrRx/7f3eHbOHG8NP7t4Wnd7wV9v7KFgFAI7/X3n4vPPDsrvCt1c+Ez14v9APD039hWPtwowsAE+eu8MaBYeTjV94dsh/+uhjwnmIAMIJC/ytv7g23P/lquHL55vDH190fzkiN/PxtQIgAFAB6nDCr2x8FGO7FgPU9xYB3bRMAhqHndr4TVj36cpj/s8fD/16wPnzk7+5w0wiAAoACAIzsYsAXf7Ah/PCu58Oj2zQQBNrXu+/tD49tezP86L4XwuSbfhn++zfvMcMLgAKAAgCW3HE4v/f3d5VPE/j2rc+G+5/ZVW6OJVQArey1t94L92x+LXxr9Zbw5/H69XtX3OV6DoACQH8KAJ5YGLk++o114bxr7w+XL3sq3Pr4K+Gl3e8KG8CQS/1LNr/8duj6xfZw4c8eD+dec18442t3um4DoACgAAA0wumX3RH+8Jv3hlk/frTcRPCplzQRBAbPzt5Z/uvWPhP+4nu/KJ9wkk6OcX0GQAFAAQBoorR94/evuCt87rsPlc/NXvfUzvC6rQJAI/fy79sfHnnhjfCT9dvKhcf/cfW9ZvkBQAEAGGq/HW/KP/nNe8Pcnz4W/u2BF8OT298K+/ZbHQDULl0znn31nbBs447wtSVPhU8tWB/OvHydfjEAh/NluD18+JKfh85JCgDAUK4O+Ort4XfjTfunv31/uKL76bD28VfC9tffLZ/BLeQAfdI14YXX9oTVj74c/mHF5vDZ7z5YbkJ6mmX9CEkACgBAe0pnbqeb+r/8wYbyyQJ3P/1aeHOP7QIwEgP/i7ve7Qn8yzeH869/MJx1+V3la4SbOABQAACGaTPB1D8gW7gxfO+Ofw/rt+wKb737KwEJhqHnd+4JKx/pmeE//zsPhjO/sS6c9lWBHwAUALDkjhHp9LRC4PK7QvbDjeF7t/cUBDQUhPY8mm/T9rdC10Pbw5e7ngx/dO394aNfuzP8lr8JAP12ypdvgyM6+ZJbm1AA8MYDBtFHvnpHeZbwL/9pQ7hm9ZZw6xOvhpd2vytgQYt5Y8++csHuB3c+F2b96NHwB1feUy7oneo6hqAEoAAA0B9p9vC3L7sjnLfg/vDVridD8cHt5VnGvfv2C2EwiLP7m3e8Fbp+sT18fcmm8NnrHwy/0zu77wYMABQAAJpaFEjbBgoLN4br1j4bbnvy1fDyG3sFNWhQs75tu9Le/R1hwZot4a9ufDic+Y07w6lfcaMFAG1eACgN2wKAFwSMPGdffW+Y85NHw/fveC7cs/m1sPOt98ozlynQOIYQ/mPI3xellTQHh/2/+eHD4b9dcZfrCQC0ic7Ji+oqAMyp9I8nzOr2pAJt7VML7uspCtz5XLi9d6XAuzH09BUGhEGGu76g/857+8Mvt+4OizdsD99Y+lT46xsfDr97+TrXCQAYQQWAGQoAwEjzh9+8J0y56Zfhmys3h6UPvxSeePHN8lGEe2JA2vcrRQHaN+in4tbbe39VntVf+9gr5aM2L/zZY+FP//GB8JG/szoOABQAFAAAwu987Y5w/vUPhvkxLH33tn8Pqx99OWx++e1yp/N3YqB6T2GAFmrIl2bz02vzuVffCT9/4pXwz+ueD1/pejL8n+//whJ+ADjYpcObAgBAA511+brwue/2FAauW/tM6N64Izy67Y3w6lvvhTd7Vw3YSkAzZvP39Ib8tG0lLd1ftvGlcG18DaYZ/T+Lr0lBHxCUAAUAgEFwejqa8Nr1IVv4cLhs8abyDOzax18Jm156K7z65t6w+5195VnafYoDHKEJX9qXn7ae7Hr7vbBj97sHQv63b302XFp6IvzVjRvC/7zmvnDaVy3dF5QAQAEAoCX916/fWW4+mJqsXfxvj4dr1zxTPj/9/md2ha2v7SnP6L7+zr7yXm09B4avvhn8dBrF9tffDY+/+Ga5SLTw7q3hiu6nw+wfPxr+4nsPhU9edU9PyHcTAwAoAICZJIaX3/v7deHT194fLvjBhvLWgqtWbA7/cs/WsOrRl8PDz+8OL7y2J+zYvTe89nbPNoPU2E2gbq09+Kl4k2buUzEnNdxL4f7OTa+GWx54sTyD/+XSk2Hyv2wMn73+wXLTyY8I+AAwKD48wjS2ADBzmaAEMMhOjde6j11xVzhvwfpyU7dp//rLcGnxiXDN6i3hpnu2hmUPvxTu2/Ja2Lzj7fKKgjS7nGaZ+1YVaFjYv0Cftm30zdan53XLy2+XV22s+OWO8JP1L8Rg/0z4ateT5Zn7//uDDeFPrrs//MGVdwv3gJAEDI8CwPjpS10gAVrYGZfdcaBYcP53Hgh/9c8bwswfPVJuFHf1qi3lpnE/Xb+tvAVh3VM7w72bXyufbpDCbQq5L+zaE3a8sbccfJO0Jz2F4XTyQas3N9zXG9yTvqX2yUu73y3/XFt39oT49POmn/3O6N8eeDGG+W3l5+XqlZvLz9PMmx8pP29ptv6P4vP48f93d/l59fpCSAJAAQCA4bEV4fJ15U7y51x9b/ija9eHP77u/vCX//SL8ux2CsRppnvOT3qkme9vxsDc51urt4R/vWdr+NF9LxxWWqVw25OvVvbEq6H00ItH/BwL73r+P3zN5G+LTxz4nmbE4J6+1y9Gn//eQ+WfIUlL7tPP9bvfWCfAAQAKAAoAYDYJAABQAGiZAoBfKAAAAAxSAcCTCgAAAAoAAAAAgAIAAAAAoAAAAAAAKAAAAAAACgAAAACgAKAAAAAAQLs5+W9/To0UAAAAQEgCRkQBoEsBAABAUAJAAUABAAAhCQBghBUAstI0BQAQkgAAgPbym5fcWvcKgD9pdgHALwYAAAAa66SL14bOSXUUAHKF4nmVCwBLPLEAAADQggWAfCMLAOOmLvbEAgAAQKsVAL7U6ALAlEWeWAAAAGgxJ160pr4CQL5Q/JQCAAAAALRbAWB1yE86cp7PFUo7DzkFoHhapQJA55RF5c6CnlwAAABooQLAhasqzv5Hzx16DGDlAsDkReE3L17ryQUAAIAWMnFe1QLA+v/YAyArdioAAAAA0Ei/eQnNdsLcldUKAHcc0gOg9L6KHzCpK5x00RovYAAAN+0AtJAJs5dXKwAsPLQJ4DHx/3N3pQLAiQoAACAoAQAt5fiZ3ZULAFlpwaErAMbmCqWtlT7oxPmr3eQBghIAALSQ8dOXViwAxKx/6aEFgKOiDZU+aOKFq4QXIQkAAIAWMm7qkmpbAL54uALAuooFgHkrPbkAAADQIk66+NZy0/4qBYCzDy0AjI5uqfRBqbGAJxgAAABapADwpbWhc3JXtQLAyYcWADpyheL1lT4oNRbwBAMAAMBguvWITpy/pty0v0oB4JiOQ0e+UPxKpQ9KjQU88QAAQLuFJBiuUq++KuF/R1rxf5gCQOmCSh84bupiFxUAACEJgBZxwtwV1QoAD0SjDlcAOLvSB3ZOWVRuMOCPJgCCEgDA0Jswq7taAeCWfHaYAkAuK55csQAwuSuceNFaN4OAkAQAAE1wUp3SVv3KBYDiFann3+F6ABwb/4c9R/zASV3lBgOCjqAEAADtFJJgODrx4rWhc8riaisA/rrjcCP+D2OjTZU+eOK8VS44AACCEgBDXQD40ppajgA880gFgKPyWem2Sh88Yc5yf0gBEJIAAIbYxPmrqx0BuD963+ELAFlxVPwfF1YqABw/c5mbRBCSAACAgbh44E6Yu7Li7H+uUNoaH8d0HGnkC8VLKh4FOG2JACQoAQBAWwUlGI6Or34CwKpodIUCQOkz1Y4CTI0GXIgAAAQlAIbOuKonAJSuPuwJAAcVAE6p+AkmdYWJF632xxUAIQkAYIic+KW15Qn6ilsAsuIFHZVGPisdF//hzkqf5IQLV7lxBCEJAAAYIjU0AEw9AE6tXAAolI6O1lc7CUAwEpQAAAAYGtUaAEZvRsdUWwGQTgK4qdInGj9jmSccAAAAWrcB4LpcVhzTUW3Efzi/4kkAUxeX9xt40gEAAGDwpRP6qhQAFlRsAHhQAeDsiicBTF4UTrxojScdAAAADnFis120tpzLqxQAvtBRy4j/8IPRnkqfbGJqBOgXCwAAtGpIgmEqNebPTypVKwBMrLUAcEy+UNxQsRHg7OUuWgAAQhIAg+z4OSuqhf8tuax0dK0FgNHRjys2Apy+1B9kAAQlAIBBNi7m8YoFgKx0Sy4rje6odcR/PKdiH4ApGgGCkAQAACNczMWDaeJFa2Ier7r/f1ZNDQAPWgVwZsVPOKkrTJy/WkgCAABaLiTBcHXCvFXVwn/IZcXTOuoZ8YPeH22r2Adg7koXMgAAIQmAQXL87OXVCgDP5QvFY+otABwVranYB2DGMn+kARCUAAAGybhpSyrP/hdKt+QLxdH1FgCSy6v1AZiYvgk3oSAkAQAAzd3/P3916JzcVWUFQHFarp79/wcaARZKn6zWB+CE+A0ISQAAANBcaRt+leX/+6OTOvoz4gd+INpRsQ/AnBV+EQAAANBkaRt+lQLAhmhsfwsAqQ/AikpfIJ0/mI4h8MsAAACAJi3/r+34v+tyhdKojv6O+AkurdgHYPKi8j4EvxAAAIAmBkBGtAm1HP9XKJ3TMZARP8mZvfsIjvhFTpi30hsSAABBCaBJxs/qrlYA2B4dN9ACwHHRExWPA5zZ7Q8NAAhJAEATnJCW/09dXK0AcEs0eqAFgFG5rLSw4jaA+I3oAwAISQAAMDTL//NZ6fMdjRjxk51f7YudcOEqIQFBCQAAYPCX/78SfbBRBYBcteMAj4/fkF8MAAAADO7y/1xW6k6n+DWkABA/WToOsLvicYDxG0rfmF8QAAAADOLy/0Ip62jkyGfFrOIXnFQKEy5c5RcEAAAAjXDRmjB+5rIq4b+YVuvnGlsAKJROinbbBgAAANDIkAeHd8L81aFzyqJqzf+K0ZhGFwCOjp/01mqnAdgGAACAkAQwcBPmrKwS/ovp8fyOZoz4iWdV23tgGwAACEoAwEBn/9eEcdOXVtv7/1z0gaYUAHJZeRtAxdMAxs/sLu9TcPMFCEkAANDPAsC81SE/qataAeD70ajmrADISmOqnQaQ9ifYBiAoAQAAhwl1UKPxs5ZXa/63Nz5+oqOZI36RL1bdBjB3pTc3AABCEkA/TJi/JnROWVxt9n999L4mFwBKndHWSt9I2qeQ9iv44wUAghIAUJ/jqzX/6zGno9kj7S+IFlb8RiZ1hRMuXO2mDBCSAACgztn/cdOqNv9LvfkmdAzGiF/onGhvxWaAs5YLHEISAACMYGugbsfPWxXyk6rO/t+Uz4qjB6sAcGwuKz1UuRng4vI2AG96AACEJIDqJsxfHcbNWFYt/O+JPtkxmCOXlS6ttifh+Lkr/UEDAEEJAKilAHDhqpCfXPXov7ujYwa1ABC/4CnRKxWbAU5bWt6/4GYNEJIAAKCy8bO6q4X//blCKesY7BG/8Ojox1WPBJy3WhARkgAAYHibDwMz4cLVoXPyomoFgE3RBzqGYsQvfG4+K+8/OPIqgBnLelcBAAAgJAFwOKmRfg1H/12Wz4odQ1UAOCZXKD1Q7UjAtI/BHzwAEJQAgCPM/k9ZXC38b49O7hjKEb+BSWkfQuUjAbvjD7XajRwgJAEAwKGz/7Nrmv2/IRo11AWAD0ZbKn6jk7vKxxkIKoISAAC0/WwtNNDx5dn/anv/i7tyhdLpHUM94jfTEb+Rr1erVqSKhosFAICgBMCv1Tb7X0wN+Ed3tMJI+xB69yMc8RtO3QzTvgZ/CAFASAIAap39L+3OFUpndbTKSKsAoh9Uq1ocP8sqAEBIAgCA8ux/DZ3/Y/hvndn/vpHLSmfEb2qXVQCCEgAAANVn//OTq8/+51tp9v+QVQA3Ve0FMGu5XzYAAAAjVwz/42Z219L5/6dD3vm/QhHgY9GblU8EWFSudPilAwAAMCJn/+etCvlJXbXM/p/Z0aojVSairuqrALoVAQAAAEZqAB7J0uz/jGW1zP7flMtadPa/rlUAk7oUAAAAQFCCEWf83FXVw39WeiU+ntrR6qN3FcAt1X6gcTOXuaADAEISACMn/Kdj/6YtqWX2/5qOdhnxmz09V+VEgPIqgHmr3LAACEoAACMi/I+bvaKW8L815unxHe008llxYT6rsgpg+lI34ghJAAAwzPe8s7pcAKjh2L/90byOdhvxmz4pn5V2VG0IOHelNwQAAAhIMKx11tb4b2N0XEc7jnxWvKa3gnHkH3Dq4nIlxEUfABCUABiWs/9zV9YS/vfkCqXzO9p15ArFD8Yf4tmqDQFnL3cjAyAkAQAMv/A/b1XonLq4agEglxWXxscxHe084g8wK9pX8Yed3GUVAIISAAAw7Iyb1V3L7H869u+MjnYf8YcYm89KD1T7gdN+CC8OAAAAhtXS/0ldlWf+e7bNX9ExXEb8Yc7LF4p7qjYEnLPCiwQAAIDhsfR/2pJaZv8fyWdt2vjvCAWAUVFX1R98yuLyk+TFAgAAQHsv/V9eS/h/O/p0x3AbuULx5PiD7azaEHCmrQAAAAAtP8PNkaWl/5OrLv2Pj8Wb43+P7hiOI/5gl+aqHQs4qSuMn7PSGwoAAEEJaDvj5q0K+ak1LP3PSlvj4/iO4TpyheIx8QfcWLUh4FRbAQBASAKA9tM5s5au/8V9uULpCx3DfcQf8uz4A++pvhWg240QgJAEANA+s/9zVlTt+t/rlnxWGjPsCwC9DQFvqPqE2AqAoAQAAK1hHtWMm7uq3Ni++tL/4rZcodjZMVJG/KHfHz1bdStA76kA3nAAAAhKQMuK4b9z+tJaZv73RZ/vGGkjVyidV7UhYCoCzFjmjwgACEkA0Lqz/zNrOvIvNf67OTdcu/7XsBXgxupbAUph3OwVbpIAIQkAgNYL/3NW1rjvv7gln5WO6xipo7wVIKu+FSA/eVEYN3elEICgBAAAtN++/55G+J/oGMkjPgHJub37ICpvBZi2pHyeohcZAAAArRD+O6fVtO8/5LLiZblCaVTHSB/xyRidz0rX1PKkdc7o9kIDAABgyKV8WlP4L5RuzWfFozuMA0WAY6INtRwNOG7WCi82AAAAhm72f9byGvf9l7ZFnWn1u9FXAMiKqQhwRrS7pn4Ac1Z60QEAAAw0yM5bRb3mrIi5tKvGff/Fc1LeNf5zEWBULitNqWkrwNTF5f0W3rAAAAhJwGDpnLsy5Kcsqu3Iv0Lp0rx9/xW3AhyVKxRvqqkIMH1ZGK8IAACCEgAMVvifurjW8H9LZN9/TUcDFoqP1VQEmKkpICAkAQDQZDH8d05fWmv435DPSu+X7msYuUK5H8BZuayGfgCpKeBsTQGFJAAAoHqIpX9i+J+xrNbw/0q+UDxN07+6igClUfmslMUnbX/1poBd5aaA3tAAAAhJQKPVftxfcU98/HSa1DbqLwKMiU/e9TVVWaYsKu/H8AcLAAQlAGhY+J+5vNaZ/2R+LiuNlub73w/gmOjWmp7sqYsVAcCNOwAADNyclT3hf1JXreH/H6MxUvzAiwDjo6dretKnL21OEcAbAAAAYOSE/9kr6gn/S/NZaaz03rjtAGf1NFOo5XjA3iKAFy4AAABNCv+5JCutTyfZSe2NXwnw+WhPbUWAZaFzjiIAAAAATZv5fyKaIK03owCQFUfHJ/eSaF9NRYAZ3YoAAAAA1B7+Jy+qNfw/G50uqTd3FcBR0Q35rIbjAVMRYKYiAAAADIVOaBf1h//t0dkS+qCsBCifDLA4qrEIsFwRAAAQkgA4bPjP17fsf1fMpJ+WzAe3KeBv5LPiuvjEV/8FxV+kIgCAkAQAMODwXyh9PpcVR0nlg74doDghPvkP1fSLUgRAUAIAAA4O/7OW1xP+d/c2phf+h7AIcHr8BWzqbxHACx8AAGAEhv+ZdYX/t2P2nCX8t8Z2gDPiL2JLvUUAL3wAAICRJZ/C/4zumA1LNYb/Ygz/pTnRaOm7dYoA58RfyNYaqzc9v3BFAAAAgBEW/peFmnNjVnwzhf+c8N+SRwTWXQSwEgAAAGCELPufvrT28F8o7YwuyGfC//BZCTB9mSIAAADUFaSgveRnx/A/dUm94V/Dv7YoAmTFVATYVnsRYKkiAAAgJAEMx/A/a0XIT1lcT/jfXj7qT/hvu+0AtRcBpi1RBAAQkgCA4RT+U6f/yYvqCf9pNfk5EvVIKAKkqtBsRQAEJQAAaGuz+zr9d9UT/jflC8WzJOn2LgJ8MlfrEYFJqg7NXuENAwCA2dPUNA3aTcxz+Wl1NftLHoq58VQJengUAU6Pv8yna/7lpyrRzOUu+gCAoATQTmYtr3e///5oVfRByXl4FQFOyRVKD9VVBEgnBKQtAW5qAAQlAKC1zewO+cl1Lfnfn8uKN8bHYyXm4VkEGB/dVtdSkGlLFQEQkgAAoJWX/E+ve8n/3uiyXKF4lKQ8vI8IPC7+oov5QjHU1RwwHR3hzQUAANDOS/6TndEXYiYcLSGPjJUAY3NZ8bq6XiRpKUlaUuJNBgAAMPSz/vV3+U9Sb7izYvgfJRmPrCLAmGh+tKeuF0xaWjLbagAAAIAhC//TltQb/JM1MfiPl4ZHbhFgVHR+7xKQOrcELPfGAwAAGMzgX270t6jO4F9Mnf6vymXFsVLwiC8CFFNfgI/GF8Smfm0JsBoAAIC2C1LQZlJPtqn9mfUvvpLPSn+eK5Ts9zcOrARIOnM95z+Gek8JUAQAAEEJgCYF//7t9U8eyBeKp6a8ZxiHKwKMja5J50HWtxpgkS0BAG5SAICWmPUv57l/zGel9+WEf6NKIWB0+UiIrLir7heaBoEISgAAMPDgP31Zv2b9Y+DfHh8/k7fk36ijL0BqDnhatLHuIkDfagBvXAAAWkQO2sXM5SGXmq7XP+ufdKcu/7lCUag16iwCZKWOXFY6Lr6IFta9JaCvN0CqXPmDAwBCEgCVxeyUm7okzeD3J/i/Gc2JjrLf32jEloALol39Wg2QGlYoBABCEgDA4YP/9GUh178mf8nd0SmCv9HoQsDJ+ULx3n5VpFLjilQEaJFCgAsNAAAwpKE/mdE9kOC/O5qXZv2lVaMpI4b/sbmsdEV8kb1d9ws0vrDLla2+F7s3PgAAMBLD/8D2+aft2bfFXHaqhGoMxkqAUblC6RPRY/3pDZCbvKin0qUIAAAACP71SB3+p0RjJFNjsAsBx+YKpQX9Wg2QCgHxhV9+AygEAAAAIyD497PBX/q4PfHx5qhTEjWG8KSA8nGBZ0eP5AvF/f16MadOl7YFAABAi1tBPfr2+A9sxn9/LittiI+fStlLAjVaZTVAOi7wmt5GFP2paIXctKUKAQCAkAS0efBfHoP/shj8Fw0k+Id8VtqWKxTnx+A/VuI0WnRFQOlj8cW6Lj7u61chIDUK7CsEuIEAEJIAoF1Cf5Kank8eYPDvmVS9wXJ/o11WAxwdzYq25vrRJPA/FQIUA8AfVQCAVg3+M7tjdlkykOP8eldFF1NvtcX5rHSmVGm0YyFgfHRjfCG/2e83QV8hoOZmgS5CAAAwUB+aRWV9y/z739jvIHvLq6gLpXPzheJoSdJo4yJAuUngJ3JZ6Y74uG9ghYAlBxUCAACEJGAQxSzyoRnd4UNpgjIdbT7Q4J+V9sbPcW/MSp9Lq6ilR2M4rQY4Kp8VL4iPj+X7uS3gQLPAVGVL3TRT1c2NB4CgBADNDP3J9IbN9vfN+N8bCf7GsG8SmE4LuCT1BxjoGyd11Sw32ehruOHmGiEJAIBGh/4B7u0/TPA/X/A3RlohIPUHuCraMeBCwIHtAd3lvTguWgAAQL9D/9QljQz9yZ6Yf9ak4J/LioK/MaK3BpwcfT96ZcCFgGTyovKb9sAb2MUMAACotKe/8TP9fflkZ3wsxsez84XiGOnPMOLIFYqpEHBquRCQDbwQcGBVQHwTKwYAAABHbOTX4NDf2+/suei66IxIV3/DOMJqgHRiwGnRDdG2BlXdeooBU5f0vNEVAgAAYGQG/t5Z/lxjA/+vl/kXSuvzWWlGfOyMBDzDqG1FQGlUfONMjG+aK+PjlgYuwfl1McDKAAAAGJ5hf3ACf99Rftvi5785VyieG//vY6Q5w+j/ioAkF83KF4obBnJ84BGLAX3bBKwOAACAtty/fyDs9y7pb2rg7/F2tC5mlDTbP9Eyf8NoZCEgK/cIODadkxnfzKt633ChocWAvgaCtgoAAEDrhPxDg37q0H/QzP4ghP0++6KN+ax0VfyaZ8b/HiupGUbzVwUcne95w13X21yj4W/uA6sDUkEgXmQUBAAAoAnB/uBw3xfwD53NH5wZ/UoN/Tb1nlr2yeg4e/sNY0hWBZQbBqbtAZPyheJtjV4VcKSCwIH+AYoCAACND4PN0LcnvBn6gms76QvZzdA3O3846V764FB/ULgfwoB/5Jn+QmlBdE70G6lZuQRmGK2zKmBs76qAq6Mncllxf7MvDP+pKJBWCmgsCEA7B6V2Dknp73AzpDDTLEcKSY3QF7Sa4dDw1g4O3vLZBHnaX1baHR9vizni6ylX5DIz/YbRDoWAtCrg/b2VupviBXnrYF44DhQFDlcY6FsxoDgAZpOGMig1KSQdmPURkoQkIQloD/vzheIT8XFh9IUY+CekrcYSlWG0bzFgdO9ync/ks9JN6XiOobzI5A5dNZCkm8+DiwR9+kLAwWHDbNKwCEkfEpIGNyQ1OcwISQDQHnK/3sv/42hKdGrvfn5L+w1jmBYD0sqAz+Sy4o3Nah7YsCLBodp8xkdQAgBgkKUl/fdGN0QX9Ab+Yx3XZxgjbOQKxVG5rPzm//3oqmh9tNdFEgAA2nB2PyttT2E/19Opf070segD5T5hWdEMv2EYfcWAUt+xguPzWemL8fHm6GkXUgAAaLnO/GkV7x2p11d0aXR+vJ8/pXdm/2jL+Q3DqHerQGoiODaXFU/KZ+XjBW+ONvWe/+nCCwAAjbcn2hrD/Ib4uCrt089lpavzWXFG/O8/iU7v3c57THSUoG8YRvMKAlnvCoFC6fy0ZSDXU3Xc6UINADC8AmiTrI9h9t5Gi593TXRLw2Wln8bH6/KF4tUNcEX8XLOiGWVZ6a/j43m5QvG8+N+n9e7Lf19vsB8b/30K92Ms2zcMo1UKAsmYeNGNF6jSKblC6fPx8cp4AeuOj89aKQDAiApMWQw3jdazxPeh6O6Gy0q35csdwIvNcE10ZaPFoHRZvqdjeTOkmdVzG6/48RjgTmm4QunkXM9S77GNFu/tjo6f+6hmiM/HmHKobbzRvatXGytLj0U3/oZhGEcqCsQ/GqNyPRfiVME8M99TGLg813PMSGoyuMONItBbJEwh57lGi9ehh+I1Z12jxe/3tvj5b26KQmlBulY2QQpMk6Ks4bLip3NZ8eyGKxQ/EZ3UJMf2LplthuYFm6zYeH2BKSs2XrwfMAzDMAxjZK8WSBXUUb03HGlp08nR2dEXc6lxSVZakOtpPJi2FWyM/zbNerwtJB2suL93+dxzTbCx97lvtNt6G0oubIIFveGmGS5ohhhM0wzTJxot19Phd2IMTxMarbeYN7pJRjVNE0JNKnDGx46mEJgMwzAMwxiC8f8BKEAd6PlgJj8AAAAldEVYdGRhdGU6Y3JlYXRlADIwMTMtMTAtMTlUMDM6MTI6MDAtMDc6MDBPhLTDAAAAJXRFWHRkYXRlOm1vZGlmeQAyMDEzLTEwLTE5VDAzOjEyOjAwLTA3OjAwPtkMfwAAAABJRU5ErkJggg==;" parent="1" vertex="1">
          <mxGeometry x="-515.5" y="-1020" width="40" height="40" as="geometry" />
        </mxCell>
        <mxCell id="KTyvs7jCrJftO7zdNOzY-63" value="" style="shape=image;verticalLabelPosition=bottom;labelBackgroundColor=#ffffff;verticalAlign=top;aspect=fixed;imageAspect=0;image=data:image/jpeg,/9j/4AAQSkZJRgABAQAAAQABAAD/4gKgSUNDX1BST0ZJTEUAAQEAAAKQbGNtcwQwAABtbnRyUkdCIFhZWiAH5AABAA0AFAAHAAdhY3NwQVBQTAAAAAAAAAAAAAAAAAAAAAAAAAAAAAAAAAAA9tYAAQAAAADTLWxjbXMAAAAAAAAAAAAAAAAAAAAAAAAAAAAAAAAAAAAAAAAAAAAAAAAAAAAAAAAAAAAAAAtkZXNjAAABCAAAADhjcHJ0AAABQAAAAE53dHB0AAABkAAAABRjaGFkAAABpAAAACxyWFlaAAAB0AAAABRiWFlaAAAB5AAAABRnWFlaAAAB+AAAABRyVFJDAAACDAAAACBnVFJDAAACLAAAACBiVFJDAAACTAAAACBjaHJtAAACbAAAACRtbHVjAAAAAAAAAAEAAAAMZW5VUwAAABwAAAAcAHMAUgBHAEIAIABiAHUAaQBsAHQALQBpAG4AAG1sdWMAAAAAAAAAAQAAAAxlblVTAAAAMgAAABwATgBvACAAYwBvAHAAeQByAGkAZwBoAHQALAAgAHUAcwBlACAAZgByAGUAZQBsAHkAAAAAWFlaIAAAAAAAAPbWAAEAAAAA0y1zZjMyAAAAAAABDEoAAAXj///zKgAAB5sAAP2H///7ov///aMAAAPYAADAlFhZWiAAAAAAAABvlAAAOO4AAAOQWFlaIAAAAAAAACSdAAAPgwAAtr5YWVogAAAAAAAAYqUAALeQAAAY3nBhcmEAAAAAAAMAAAACZmYAAPKnAAANWQAAE9AAAApbcGFyYQAAAAAAAwAAAAJmZgAA8qcAAA1ZAAAT0AAACltwYXJhAAAAAAADAAAAAmZmAADypwAADVkAABPQAAAKW2Nocm0AAAAAAAMAAAAAo9cAAFR7AABMzQAAmZoAACZmAAAPXP/bAEMABQMEBAQDBQQEBAUFBQYHDAgHBwcHDwsLCQwRDxISEQ8RERMWHBcTFBoVEREYIRgaHR0fHx8TFyIkIh4kHB4fHv/bAEMBBQUFBwYHDggIDh4UERQeHh4eHh4eHh4eHh4eHh4eHh4eHh4eHh4eHh4eHh4eHh4eHh4eHh4eHh4eHh4eHh4eHv/CABEIAZABkAMBIgACEQEDEQH/xAAbAAEAAgMBAQAAAAAAAAAAAAAABgcDBAUBAv/EABsBAQACAwEBAAAAAAAAAAAAAAAEBQIDBgEH/9oADAMBAAIQAxAAAAG5QAAAAAAAAAAAAAAAAAAAAAAAAAAAAAAAADn+ZdBCI9Hs7T5VV/OixsXTgzXLmXkOY7JlngxjYvRqlnouvLSPW3QbYQmTyKvfG2KAAAAAAAAAAAAAOXjn1OBCuHDv+9wSHehjtAAAAAAe+CQTWqm+tvBWM/n83vjdBAAAAAAAAAAeYK00zu3CflWdaGEkAAAAAAAAABlxHliSyj5XO56xXz9TudAAAAAAAAaX1VMey+ucVnXh5mAAAAAAAAAAAA9WHsibchLbiwy1AAAAAAMWWt9Uvmcoqe1DzYAAAAAdPrbIsWTbJnogqa6XmUXdPmapgeZgAPVh7IiWFrxgZ6QAAAAABg89j9bbOtU9sGqaAAAPXnm3KptKpodKd1O58NkUABpbrzKDw+6MEW3pZLInB6R6sP3Wlha8YGekAAAAAABA5xBqezhjb1NHXhnkAANlj5Zmz07LkwlVIAAAAACKyphuicsAM9IAAAAAAAHF4OzrfO77yPSJqmQdI490lr8iTtA+7U4c1sOXCZRgAAAAAAAAAAAAAAAANXa40LdwB86vwGpts/Ydgmsa6Gz5/R51j2+En+i34kAAAAAAAAAAAAAAAAABGZND6CdrjjLcAADk2XHpJ29YF3WgAAAOB34LLj/aHr6tmCHiYIeJgh4mCHiYIeJgh4mCHiYIeJgh4sGTVXalNYBXygEImcL5WzDl7IAACQdjQ3/odAE/SAAAAgs6gs+LEh01OAAAAAAAABluKmLipbHKKSxAwQ6Yw7kbQObsQAAJbt6m39K50JGAAAACCzqCz4sSHTU4AAAAAAAAC3Kjtqon7oobMDHC5xCOVs/By9kAABKd/j9j6HQBP0gAAAILOoLPixIdNTgAAAAAAAALcqO4aefmFFZgIfMIzQTuaOMtwAAOpJK3sXuKD7F1pAAAAQWdcCXHrdMF9Ww9MBD0wEPTAQ9MBD0w42ePIEnSAAB93JVFr0VkFPYAON2dWFuiI+dX4AwZ4ZeDrYOl5BYVe9C7q7YfP1P6EAAAAAAAAABXFg1FbwMYvqwAACRWLEJfzNwECUABENbvcH53fDiatW3wfj3q+LCXBAm8xpmz5dx1xIsQAAAAAAABp++RqE5cXW0Yb9QAA2/PbH6pxt+GOQAGOEzqEVGUZ1D3mQz1AANjXe+2v0aeseZddobpwAAAAAAwe+fVZZON0NUFnDAAAS+I2xWy94c5bgAAMGd55T+vYdeQeeDXoAAAe+CYzOm9nfPt9DZNJtNwZ7gABjeZEcimqLMYDpPav1572GsJPoAA+yQ2Ho73KXYRd4AAACu7Ex4aKbdPmQOfDzEAAAADo9WMs9syyQlltmWrF3nnX5Xyx0BjiAG568967aFpkAmvCs2onfQobQAAAAADVq629PVEqN0OfCow8xAAAAAAAAAAAD098dHn7ufFnW03NtHM3AeegAAAAAAYK5s3zXGphNIZDpPBhqAAAAAAAAAAAb/SsDfO198l3Ie5AAAAAAAAAOb0nmNY8W6OHGrKzdviaK4McAAAAAAADdl2zfD5zIMkm1DdNAAAAAAAAAAAAAaG+8xhnAtJqiUx5cfM1RavWBqY6IUl3mOMSS7N77C0+3vdlZb9o7OzfApF222X56bJIAAAAAAAAAAAAAAAAAAAAAAAAAAAAAAAH//EACoQAAEEAQMDAwQDAQAAAAAAAAQBAgMFABUwQAYTIBESMxAUIVAiIzRg/9oACAEBAAEFAv8AuJJI40ktAWY+9FTHX+LfS5r0uJfSY2/TGXoq5HaAvyOSORP0hJgw+EXyZPZmy4qqq7KKqLBZmxYPfJgxgxP6A21FHwu1Ln4QlsVBgVmMTzDjoBEOsyCuMBbTj4GXAUzjqqIllc45yudx4pHxPrLds3GImjgis7KUteXVWroMa5rm8IwmIWE8yUyXm0Y0ww3BLIjGhOKkLm5tNWdnhSvbFHZmPMn5tNWdnh3p/wBxLvQgGS5HRlrjaB2aA30dQOySjLTJgDItmmrOzw783sQ7gw8xDhKJMHFHH2CBByMLosIglgf4U1Z2eHPK2GEqZ5E+0iKq11Kq5FGyJm3NFHMyyp3xfWmrOzxOpSvV20PDIRLW10Qbd+2qmz5TVnY4kjkYwljSMIgfCuwNBIRNXhxhw/pbOT8Y5EchQis82Nc99UE0OD9MS/uTfUoRH45Favh06F6N/TFP9kHiRAyZJonxO+lcMpZbURrf01o7+PlIxr2lCui+nTg3bF/T2LvUjYkA7ksbUYzbtLBQ3647NcdmuOzXHZrjs1x2a47NcdmuOzXHZrjs1x2a47NcdmuOzXHZrjs1x2a47NcdlfaKUT5Er7p9iub6z7nUvz8Srd7LDyX8rsVjf69zqX5+JE72y+Mvx7ICeg251L8/FiX3ReBHwbIf+bc6l+fihL6h+BHwbIf+bc6l+figf4fCX49kBfUbc6l+fihJ6B+K/hdisd/XudS/PxYE9IfElPbPsVzvSfc6l+fiRp7pPKxb6EbDze1IxyPZt2lepj9DdmhuzQ3Zobs0N2aG7NDdmhuzQ3Zobs0N2WQX2ezWt95/laN/j5OcjUJJWT6dPEdwXj30vcP2On2e4/yKZ74PGaVsSTSulX6V5CilNVHN4s8jYoZHrJJsdNR/1+ZLO3N9SSUjxzlcvh0+Z6t4vURP8dmpi7QHnZx/jF/GElevmxysdVmNLh4ZhDBoJpHSy7AcXfK2JGo9k7khwid0uyNNIPMAXGXFwZXsjjszHFzbPTcHq/Z6jGX3bQ80kEtdYRFt355Y4I7M55b9lEVVBg+3F2Z42zQkwuHn2kVUWvuFTI3skZuHWcA2FEylSbVCN3Sdu8D78O4ORMO4W7TICh59iR7I0JuBo8LsySNxjVe8EdBhty7B7Em9CcXFkd0UmJermut9FvVx92SuS2RsmOc567vT4e9KxskdkG4Sf9DVhqXO1Eam8VBGTCaNILNzwx5CZhYGDw8AseMqE4SUSXmjQSESgCsEh4U8Mc8dlXyCLywhJS5AhYhIuIqIqWNRjkVruRXVchGQRRwx8c0KApDa0gbjDDTEuAqYoOYZVjEYVVlQcIYQghQ6VjcjY2NvOJDGIwijTJq4yLFRUXahDKmyCkmdg9WJDifj9JJHHIklYE/H0gy46ixaOTNDlxKOTG0WMpB8jqgm5FBDF/3H/8QAMhEAAQMCAwYEBQQDAAAAAAAAAQIDBAARBSAxEhQhMDJREBMiQTNCUmGxFUBQoYGR0f/aAAgBAwEBPwH+BQhSzZIvTWDyF9XCm8CbHWqk4RFHtX6ZF+ijhUU/L+aXgkc6XFO4EsdCqehPsdaeehtTitlIuai4J7vH/FNMoaFkC3Jk4Ww/xtY1Lw92Nrp35kOA5KPDTvUaI3GTZA5hF+BqfhHzsf6/5ysPw8ylXPTSEJbTsp050uWiMjaVTzpeWVq9+RCiKlObI0pttLaQlOmdyYw31KFHFon1fmk4lFVoukOJWLpN8kuWiMjaVUiQuQvbXyACTYVBiiM1s+/vml4whv0tcT/VPzXn+tWRK1IN0mo2Mut8HOI/umJDb6dpBqXLRGRtKqRIXIXtr5OFpAd8xXtSVBQuMilBIuaxDE1PnYR0/nkMSFsL20GpEhche2vlR2/LbApp5TZ4U08lwcPHF522ryUaDX9mwjbcA8UqKTcUxJC+B1rEJO7slQ1/aQE3XfLiUhThCD7ZpKyhu4rene9b073rene9b073rene9b073rene9b073rene9b073qI4XE+rxw8dRyyDd05pnwjy4B1Hjh/ScrvWc0z4R5cHqPjh56hlkCzpzTPhHlwNT4wFWXbLJfadeIQb2zSUFbdhW6u9q3V3tW6u9q3V3tW6u9qUw4gXIywBwJ8WF7DgPi44ltO0s2FYjjCn/Q1wT+ajO+U5fmTl+kJyxE2ayR3PMbBqXNaip2l1Nnuy1XVp28YMjaHlq5RNhc0855i9rIBc2pKdkWyGauK0opF6deW8rbWbnIDY3FRZYc9KteQTapMnzPSnTLDb2l37ZSL1IZ8pdszM9SOC+NNyG3Ok5XZraPvTspbuulA3yx2vLRbNIZDybUpJSbHOl9xOhrfXu9GW8fmpS1K1OQKv4w2bnbPIlRg8LjWlJKTY84KqOwXT9qAtwHJfjJeH3p1lbRsrmxoZc9StKSkJFhy1JChY09h/u3S0KQbKHJajuO6CmISG+J4nnqSFcDS4DStOFKw5XymjBeHtW6PfTW5vdqEB00nDfqNNxGkaD+C//EADQRAAEDAQUGBAQGAwAAAAAAAAEAAgMEBRESIDAQExUhMVIGIkFRFDJhcTM0QFCxwUOR0f/aAAgBAgEBPwH9hJA6p1UwI1h9AjUyL4iT3XxEnuhVvTaweoTJWP6HXJA5lSVfYnOLuujHUPYo5mv1JZhGnyOeeerDU+j9Kabdj6okk3nWjjMhuCa3CLhoSyCNt6cS43nOInnoF8NJ7IwSD0RBHXJHGZDcExgYLhozSbx1+aOlLubkyJrOgyEA9VJStPyp7Cw3FRxmQ3BMYGC4aNqWg2mwsPqmPa8Ym5AL1DThnM9dB7A8XFMYGC4aVo1HxFQ5/oqeqfAb2qnqWTi9u2miuGI/o7Qm3NM9+1j3MOJqpLQbN5X8ioWY33fpPEMl1OG+5y2EXup8b81DG2SYNd0XD6ftXD6ftXD6ftXD6ftXD6ftXD6ftXD6ftXD6ftXD6ftXD6ftVowNhkGDpt8SO5xj7/1lsxmCkjH0/nNZv5gadsD5Tt8R/iM+2Wk/AZ9hms38wNO1/kbt8SN5xn7/wBZbMfjpIz9P4zWb+YGna58rdviGO+nDvY5bCEjafC8ZqGRscwc7ouIU/cuIU/cuIU/cuIU/cuIU/co6yGR2Fp55bXd5mjbaEO+pns2sY57sLeqobLbD55OZUbsLtSyYr3l+W0n4pz9Mlo0/wAPUOZ6KmpZKh1zFS0cdMPL12wyX8jpNaXG4KmgEEYZkc4NF5T343FxyWnZzaotefRRxNibhYOWWOXFyOgASbgqCh3Pnf1y2nNgiw++aRmE5mTEdU17XdMrpmhU1e+CTHcqarjqW4mHLWVG/lv9Mz2YgiLs4e4LfPW9f7oknrthmfC7Gw81QWmyp8ruTttp1eEbpvXQkjxIi7VBuVn2z/jn/wB/9VZWthb5epTnFxvOi+MOTmFvXVjiv5nUIvToO1EEddFsbnJkIbrkXowtKNOfRbl63T/Zbp6EDkKf3QiaP2L/xAA8EAABAgIFCAcIAQUBAQAAAAABAgMAERIhMEBRBBMiIzE0QZIgMlJhcXKBEDNCUJGhsdFiFGBjgqJzwf/aAAgBAQAGPwL++JuOJR4mUe/B8onGi26qNHJfquKsnR9Y9wj6xXk6PrGlkv0XGk26mPfgeYSiba0rHcZ/Jda6kHDjEsnZ9VxW8UjBNUTJmbKYMjFTxUMFVxLKGZd6I1ToJw4/ICkHOrwTEgrNJwTcpKVnUYK/cUaVBfZVfNYqauCRtgpnm2+ym7BK9a3gdoikyvxHEXiZMgILWSern6gqUSSeJvAW2opUOIgNZTJDnBXA3YuOqopEURoM9nHxvgZyglTXA8UwFJIIOwi55x0+Axims1fCnC/a5R0qwjs3IuumofeM44fAYX4ZRlA1nwp7NyU4sySnbFI1IHVTfhlGUDWfCns3PMNHVI/6NvoZOvxNUaS20+saWVDkjejPyRo5SD/pGiptfrGnk6/EV2IyjKBrPhT2bnmGzrHPsLWiy2VRSylyf8Uxqmkp7+NhrWUq7+MUslc/1VFB5BQeiMoygaz4U9m5qdX1UicKeXtVZyAmYDmV1DsD/wCxQbSEpHAWlB1AWnvguZNNaOzxHtGUZQNZ8KezdE5KnYNJVmG2kzUYpdd3ir9XAvMCi7xHagP5QNb8KezdCs8IOc2njFdacbENNCajFBFaj1lY/Jkt+p9kiJiKTdacMOmEpE1GoCMXFdY/J1K6FJupWGMSIkej/VuCs9T9/J1HpV1HGJKHtS1w2q8ICUiQGz5OlGNfToqExExWj2F8jSc/HyiWAsU5mqkdkJQnYkSFohIaC6QntjdxzRu45o3cc0buOaN3HNG7jmjdxzRu45o3cc0buOaN3HNG7jmjdxzRu45o3cc0buOaN3HNG7jmjdxzRu45ozJaCJjHprPfY0uyLVry3Vk/yl9enOxUrE2rXluqVYGfSV4WSe+1a8t2QcR0XPKbJHhateW7Mn/GPx0XPKbJHhateW7Mf+afx0VeFknutWvLdmR/jH46UrFScDateW7IGCR0ljvsaPaFq15bqlOJl054ixGarIMBadhExaIUHQiiJbI3gcsbwOWN4HLG8DljeByxvA5Y3gcsbwOWN4HLG8DljeBywgFymVd1iyP5z6aV4VdOajIRRTUn8+wsk6Tf4vBTwQJWNLsJJ6ah0pq+kV7MPal3hsV4QFAzB2XZTitiROFLVtUZmxddxNGwUnoUU1q/ETUZno/0rhrHU/V2GSpO2tdk0niRSPrYJc9D7JmKLezHphSTIjYYwcT1hdFOr9BiYU4szUozNi21ia7EoPGDnKpRgnCxDrZkRFJNSh1k4XIrWaKRtMT2IHVFkvKDw0RZJylOw1Ksw40qShFHqO8U3AuOqopES6rQ2JspDbCGuIFfjZKaX1VCFNL2ps5gyMBvKq/5iKbagpJ4i1KU6xzARSdV4DgLPPKGg3+bTPIGsR9xa0mXCmJZS3L+SY1TqVd3GwpLWlI7zEm5unu2RKlQRgm0CEiZNQhLQ9TibXPNjVq+xt9B9frXGkltXpFeTDnjdjzxVkw540W20x74jy1RNSio99t/VODyfu2KFiaTtijtQeqfkVfu09YwABIC3LTgq/EZtfocfkAbb9ThAabFQ+9xzbg8DhFFez4VY34NtJmfxFBNZ+JWNzLbqaSTFIabXaw8b5RbFXFWEUGx4nG6yImILmScn6iioEEcDeQt2bbX3MBtpISkXjWJkrgobYpSzjfaF2otIKu/gIC3pOufYXwqAza8UxMJzicU3LVNkjHhFLKVUz2RsiihISMBf9a0CceMTYe9FxWyVDFNcSIkbPVsLPfKNc4lHhXE6GcOK4q+SSWhKvER7kDymUaLjiY0cp+qIqfT9I9+j6RW+n6RpZT/AMRpOuGPdUvExq2kJ8B/fH//xAArEAABAgMGBwADAQEAAAAAAAABABEhMUEwQFFh0fAgcYGRobHBEFDh8WD/2gAIAQEAAT8h/wC4ZQsRpPycCJ6iAB7QKnP+CdQAzNf79O4gZGqwGzBQjpAI9qXk4ETMBg/0qH4bx7AhHc4G+DVOI2xwijookyTZDRQJEFMO3OcUYxOa+HVCOfsOw/oCrC8ocyn165fmaJJLmdwBIIILEJvaVWPRD4B3kPyNb5N4irLRT4lafM1uzmyCr2CmECRNhzBeDMYBySYBTjkQbdUbCzkjk3iRVQifhISNM3YOXyMgiN8Bg7uvinQJuoEJmzkODcypoJAmWAUIoZEhvoBJAAclFoimyrcmHkoCZYBFsJIchvoBJAAclDFxOJNo3INMRyKKnoPCGt9AJIADkoYuJxJtG51gkSNjWwyUdYGi3yor1sT6RAgDk76tgPaA8oz6oiKyIHyEFJYCizwjnxgEkAByUMXE4k2jc5GBRI7/AFtXeurSHMoFiy6PdBo/kfunYAi9ZG7hFTtjxXM5teWPAASQAHJQxcTiTaNzN+zoiuxnbAUFmJnELAARKcSZgNE8yBJHANaH58oCAsnE7T/gAkgAOShi4nEm0boYqPcTQWZ6niZlDhMURRLLBcBIqZR0FDAKZibRuktwHToByPiCrkSGx8T0gYlZ8ATLT9MwKZ/w/BSMSYKfH61XGKPNYVKbRaK+Yy/T4DOw5cDy3WoQpOBMHhyrgmgr+nNfNmHXiokyFdNYiR/IhPW4BNBABMAoP07I1TunGRhkREv41Rz/ABMyYZDL74/UOeCH2wMQxTWYxBwZhB4YQGAFo50Bxay3/Rb/AKLf9Fv+i3/Rb/ot/wBFv+i3/Rb/AKLf9Fv+i3/Rb/ot/wBFv+i3/Rb/AKLf9Fv+iEHYEEPlx81tjH0nOtr5r3dc9x9H3iJYOicKpexayR2/21817uuVf2HiJj4H6snliJ82vmvd2y1T44diwsga13mvd2zCL4cOxYWUVrvNe7ts2DhBx4n6smliI82vmvd2yGD4cJDhkDhULWL2aO/+Wvmvd2yPHji5rbGPpMdbXzXu65M3Gc8EfliItgok05I9jjEyNo50Bhe63/Vb/qt/1W/6rf8AVb/qt/1W/wCq3/Vb/qt/1RTEuYBrM1jyXdkfnG6NU7rxm4gKlOzvn/CZMwzKW+V4aQuH1zPux35JfeNr5s46cT9ImQTKfptQEh+RiekxqQQQDkKi7TF8SNE5nMNiweJAdIn2LDAZ3HLgcmfGhuYSp4Q40DNRW7AiKuyoPvaycwagWDgol/D8EAJAAKorztVj4yVj3BQp1loL7jK6UmIdgCiZgLE4AO30V8IAAMICwluAyiM4mbEos3IsXhFojArPeCZaXIK8FyKY8H9+dkwyA9WvzvZAORhWBobMiTzMihgmBMM8xcBkcRVMo5M6eZzshIBJFgAhY8DxKdkHV2BQpozPiKGzEzgRBBiEykhICj1CGpHCPaiCBjcBzKjyYPgFnn4RnTraTzBiBa7hHVpHmEazx0eyEx7M3ZOwzSk0EDPY7uKeo1lvzNoWUWwKlNfkiPeDa1v8QNzW3JUdYGzyoL18D7TWMOTPizBtgqfc3fF5CgSfaghFwAekVn3QnNswJwwE+bYHeKwFExPF441/RNwCI3yQSwDAClu6CKREyxCLgwnTH9AFqJjQDFNeJhqWJuJ4+FCZYhMDc5Ehvz+QmaBiUGx2LESuYiHgItfKYei+JVidJJphnzO6mYxAxBE1LWZM7dEWQLEDEXk3tBhqqKEBePCxTVPMAoy5il2zqz2CjRQEof7XyIDco8wnhj5viaIYsbj4F6HVMfQz3TKBRrIDC/8AQCYdwRDssr6NE/bI5RRkUChFmwMBqYO5TQQ+ERNRdaeJIAAAAAUH6RgPwEVOzcSJ7igR6QKnL+idxYzNf7hO4MZGtFH9ILxbD4pmR4nXdnCD/wBx/9oADAMBAAIAAwAAABDzzzzzzzzzzzzzzzzzzzzzzzzzzzzzzzzz31Wx7/8A3388888888888888+9d8888888sO088888888888k+88888888888uY188888888+98888888888888j888888885/8APPPPPPdPdvPPI3fPPPPPPOnfPPPPZvPPPLPvI3fPPPPPPPN//PPP/wDzzzzzzz93zzzzzzzzzczLzx7zzzzzzzzzzzzzzzzzzr773Xv3zzzzzzzzzzzzzzzzzzz7774fzzzzz/zzzzzzzzzzTzxT7777fzzzzz3/AP8A/wD/AP8A/wD/APc889++++9888889/8A/wD/AP8A/wD/AP8A7PPFPvvvn/PPPPPf/wD/AP8A/wD/AP8A/wC3zzz7775Hzzzzz/zzzzzz/wD/AP8A3zy777jsDzzzzzzzzzzyH/8A/wD9fPPH96ggsvPPPPPPPPOvP/8A/wA2888LACCCQd888888852//wD/AP8A8888/pCCCCDH28885wS//wD/APl/zzzzzgoIIIIIKEEJEIIFD/8An8888888YCCCCCCCCCCCCCAzoe88888888JNCCCCCCCCCCCCN/8APPPPPPPPPLCyAggggggggHPPPPPPPPPPPPPPP7CgTiDvDfPPPPPPPPPPPPPPPPPPPPPPPPPPPPPPPPP/xAAqEQEAAAIIBgMBAQEAAAAAAAABABEgITFBUWGx0TBxgZGh8BDB4UBQ8f/aAAgBAwEBPxD/AAZqywCcV+A5tfYn5lFqLyA1nFrt5r9JGW7u8ftd0Wn6k9RisDckl5JxXiBiVnc++OUUlxAVdM+3bvEj8Ze18BriYDNH2WOucJTM8KzrhxLojb9DF9Y6kze8304gBCYwNZc/Tx2whEZPBspi1xyPvCDByFhxrfi2F67YsS6pq7gAaoVrgbt0E3IWU1pCcJzexAGWnZDkg6zNQiRkMmelC34theu2LCVJr2DA4BoJrBq8rWexYUVlWw+hnXN+lWcJMyWBUdihOEHEZQwc29V9e8V7R5OZFvxbC9dsWEqTXsGBwTgzLHPHpEwEygheQWsIll5c2WXfKmWknw5MJUmvYMDhYg2vNiYrGETFaw+UZtQ4cjXl/Hzn0r+QCSYuT1ReYVHN2K4VWb/HOcBrRS6YdfykkeTVHrDaPWG0esNo9YbR6w2j1htHrDaPWG0esNo9YbQtVNH5quR90Z9zl2qpaDXh+C+/nyaPlutLQa8Pxfmq5H3Rl3OfeuloNeGK/l8znEaUZ4ICcrJ876SQ5tUetN49abx603j1pvHrTeHMsdKMjPHvn55z61fKYgWrE2zxv2GV9+ESx2NTygZ8MQN9dGVONdDEGx5kTm1tgWvuNkT0yFgsN3PT5GYVlmZ+acI2sCFZdOVBCFrBCbihMBNM84azRf7dlQQkkkClRr/cuAAm2ROf9H5RrPZquogEbGHa62cqUoqGN/7GMmF9BQJsVGM2W8PXMEAKqElqIkSta2lNO25h+ckp1eveAfybRamg0Iteeb8ijMgvlU3UWc8enAsQHzkwiOSca7YmhseygCWBwa6VXGJaOtzxZNU+TAA5Bw5e5kXp0fp37xNQHg4JYtkST6TtxwpMzOK4mWX7B7F51bxZE3Uj3S3gf9m8W9I67QWyff5FYzHFr/wv/8QAKhEBAAEBBAoDAQEBAAAAAAAAAREAICExQRAwUWFxkaGx0fCBweFAUPH/2gAIAQIBAT8Q/wAEWVFYXfTcApWDHxXqig/+KDjDSPq/gQNkgrIHy0tLnU3JMm+rvLnZrAr73ZU6esFGSvLeaGdScBip0kuu59KM8I1E4Y5UoS9t4yUL+jzWKUdgRY59NT3UCWlTJlayoOtkgCBNXrcelQxrn01XeHUuOMj9ezRtJGwigxojH7NRBHV948cUHAuOePzU3LszJ921Py/MzPdunb04fxx43xBxbjq6TaQlRH1Lw37uVRywz/kiv8AfuLKZJlg2wfs2h5lT2r1L5r1L5r1L5r1L5r1L5r1L5r1L5r1L5r1L5r1L5oYEI6y7dPMKyEjYe77tdK9tX1b609c72YXfsFrpXtqzzHtp5BWQkbB2fVrpXtq7p3v1piv8EfuLNy1epwd3GbS8wJ7V6h8V6h8V6h8V6h8V6h8UGnrc+LM2zi8/+aY8L4k4l51NJoJWRUBwXI8u/ltqOctYyeAQcX872YcZA++7YjwxScG85YfFRquzcj3ZUbErFzfBu0xM7VAzlaImOfHOwhwi+mxQq87C4Q44zNnw92ikQWBRkoto1BoJWoGZ6ftm7+N34z8fNlJIaSPK1cl8rFFhYrAWaJgJmbtziNfN0ZnGwoEtTBwXHD9xtFFSKG3gjW87UpTFE6T8Ie37ShzgGTw8Y8dISt7HcbPntx1BmTGkUOtRSY1gLw9OvPbUDU4Xl+ttIHldSTfjTMa0uUKACDVgISs+jsCNTgBV5N7rwENYZdWYUllog2VJxraKws/wv//EACsQAQABAgQFAwQDAQAAAAAAAAERADEhQVFhMHGBkaFAsfEgUMHwENHhYP/aAAgBAQABPxD/ALjaiqO6lTJkuRdQjzSKOma95PijyM0g+D86VPJAp7wfwyeWmBPs0qDWGXwn3qDRt0O6kvFRI/0F1SPNbboR3H7KKhGf78nNwpBjaZ73hU2ayQBpOJ1WsbviyvNeFjd8WE5JT4M7J64HRKaQM5R3p8qCDclSPW09TD7AgaSSimlk6SmlZDalUm97pBtSBFTKt19AzZEiMI6lNZ0GJO4dZNqRdhBxLscl9vWNb6QtEpk3fNNAsMIId7kwNvTNwjFifvgyaRULCT+tmpJv6hVHBwBdVsVHjT+QQfd0LNSRgIRqrf1CArmIT/NqSa0BxG/xO2B6Yn1YrdZBdXQpnsMeKFkLucWN7+scCUPkORqOlzK0UaRwADmJ6OI65llw19qSyujsZ7urnsQHrGbIgAlXQo4NJEIW85izDA5z6JOOExCLBmv+2qLwZW5U31c+3rWbIgAlXQojAoCQ6v7jnb0L52tYAfnasWhFPWd13tl61myIAJV0KIwKAkOr+4529EizIrsBu7ixri6RxQqAVcAM6hxcYkBqMR6USC8xK6EPNckCceTThAYXjE8v70Ni0Z+Lo6mwywq6QeazsWgxqswOdBFAiYI5fWzZEAEq6FEYFASHV/cc7eiUUoyIbDzYg6uRxV5XcI55gdWibwHDGy8XoHOiAcIhM5uV34BUy2zlEO9BDM3F9ieE60ivSBwGqMBufQzZEAEq6FEYFASHV/cc7ein1wpd0DdYDdqcxcmFoNgg4Z7vLlGwBdoTBFgQ2LcjHctWAfAMG+Ge/Ev+AmQ6jcdzGn1nFYjtFvnnekjnTNkQASroURgUBIdX9xzt6MLQxDCSekGPNNOG49LFhmmQa0QOSAncMm93wccq1EAH7t7OetIMBcA6uvt529Hfd8NdDq4VilYRgjmf1asBZEEwdnR24M2gXcBXTIP3GgYEZNH4QyMucv2a8E+kYDvPb+AhDAJGoPBxuf2Hn3+sk0QZUYAoaZYLXLaeXHQPs0Ost8lge30Q2TjY/ofHvSQhgEJ9I4gJM2OY2Np1Ps6Lo7/gPeen1RMwoJibOptWAcO2dn+TmE4OeJc3AN0oviyoAIA2D7PIy70EHu9vrycyOW5o1iRrL+rf2/gIynTMUJ3Mtz7QiFw66/64AEARIRzpZGo9gsOwXjtpQ5zUyEB2OIJIURhMRZr59T59T59T59T59T59T59T59T59T59T59T59T59T59T59T59T59T59T59T59SdUPs0TEQZT2+vEWRI5DB4ODPBiBzYHhfsRyzye4vqgROAS092IuvBmUxHpE/Yh2J8Y9yH8fVBJc33cLJRS7j8H2M7GGWfmbhv9OBhhudXCABu7r9jOwNjCtJ+kxEEtjq4SEGzy/aDgUEtjbdws1FLufyfYzprZxrWPpARGCQ092IunBmVxHpEfYx2DIYCWIB9WAsAxyWTw8GeTEDkxPA/YjnCuJ1Qow+qITDrp/jgk9sdziNZtNFvODMJHs8QSQojGZm5Xz6nz6nz6nz6nz6nz6nz6nz6nz6nz6nz6gs8ciO44t58PBw7klGo5+PrQMu9BJ7Pf68SqqlaAwtuZobfxihQJuKl7GTY9QKCg4t/oh04MQzCR3Y9q+tB09/xHtHX6sTn9oZb1g/D+wxd/wCV4U4efHcYJuFFiO1IhIm0emd6MSLwW5tutSBhWqS+/Bz4OuQPJ4OBDpBfNYnv9A2RDnzNXakqhKn04QszG5zC5tOh6a0soshf5vhq4WDhiy85nIQ6cC8E+k4rvPf+BotKmAKkCtWHk0N71fF+obpWIQZEoS4ADXLeeHDn6NmhjisWsfuALlUsgtw5GgWDIOCn4G2HF9AtEgAIAMA4F93y00ejjUUFp5gyDOkeM3Bb7urwZljs4quGY/uNBXIg7/Usn8yeilT0HAPy7UtxOobGa3R0wOFiXzNM0L5hDq4UTgF8eIkw5hrw1kJcsMwzHSkQCySN1zNrnl492BCsVkBm7FDxnFwvPssZZrwQPqAlVsFHkMENwu7HIOFPFo8zRNxhNyoa1iYXg2SHrw10eLhCyJZoDAngByr8zHZvR6AkMP8Au3FOOcDEvaORLyp4+M2A6fku5rw0xQgzZLOnkGvEY5bwMbiczFOppxWiHYp5pg9SgXbDjcy8TovKiCiJhE5uB24C8TuTvNQQnADjbl7DRbkqLMGlx8G38jrwSwtuSMBUOBxi58BsHFZYk8mD3Nlc0xNOMKIpEcEqEIG0SNAnHSgwKXVLtDxR+bTDy6vLe0Inn/WkGI5r+w0ag2o7wPFDK/o3qPdTBRu9Or9QxV/rWawJVi3uB124y7D2pH81Jmis6Tss98/WGFDP0k1OAwkyLq+CXSgrEOgBgAcdrGLRALJkn+VObciOdPyZetGf5zHoObX9Z2qH4pS5vuP9GXoVlpj1GNfenc3qL/I6mXKF9YNIQx/UCZBQwkJEPwgyMucvoy+hiN1kjkmtDBhCMZWAs5TZ2t6wDHcS4erq6F3vRCVEmtLuhoWO/pVESHIG4jcqX9xjJ93RsU+oJQjRG3qQiRCKQWxsbuk1YYMN3NXNdX1DfACIJoC5NnpFPE8QOYd7mxN/TTHA6XMMD3cqxEABxOw3bvYow9Wkli4QTWy9IXWs/wAEag3tdJN6RARGEcvQkCUQo6pYdL0lGOM6PP8AodaGa8Bh0PXgq/yPbF5OFIMaZJ+26p0asgHeMDqVh9YVCdHhbFTixUj7B5pa6FN5bYO7TqB5gZ2geFDUCAIA+ybIbb2SpRyXAugx4pdUnJO93mlym0keT8aHsYie0v8ABy9zFT2kqw8z8t/Gl52Jm+VQ6Esv4EPFBE6f2xEv/cf/2Q==;" parent="1" vertex="1">
          <mxGeometry x="-625.5" y="-1020" width="40" height="40" as="geometry" />
        </mxCell>
        <mxCell id="KTyvs7jCrJftO7zdNOzY-65" value="Platform" style="text;html=1;strokeColor=none;fillColor=none;align=center;verticalAlign=middle;whiteSpace=wrap;rounded=0;fontStyle=1;fontSize=13;" parent="1" vertex="1">
          <mxGeometry x="-400" y="-310" width="70" height="20" as="geometry" />
        </mxCell>
        <mxCell id="KTyvs7jCrJftO7zdNOzY-66" value="&lt;&lt;service&gt;&gt;&#xa;Platform SDK" style="shape=module;align=left;spacingLeft=20;align=center;verticalAlign=top;fontSize=12;" parent="1" vertex="1">
          <mxGeometry x="-370" y="-701" width="100" height="50" as="geometry" />
        </mxCell>
        <mxCell id="KTyvs7jCrJftO7zdNOzY-67" value="&lt;&lt;service&gt;&gt;&#xa;Embedded&#xa;Browser" style="shape=module;align=left;spacingLeft=20;align=center;verticalAlign=top;fontSize=12;" parent="1" vertex="1">
          <mxGeometry x="-370" y="-810" width="100" height="50" as="geometry" />
        </mxCell>
        <mxCell id="KTyvs7jCrJftO7zdNOzY-74" value="" style="edgeStyle=orthogonalEdgeStyle;rounded=0;orthogonalLoop=1;jettySize=auto;html=1;fontSize=12;endArrow=none;endFill=0;entryX=0.095;entryY=0.072;entryDx=0;entryDy=0;entryPerimeter=0;" parent="1" source="KTyvs7jCrJftO7zdNOzY-72" target="KTyvs7jCrJftO7zdNOzY-68" edge="1">
          <mxGeometry relative="1" as="geometry">
            <mxPoint x="-220" y="-850" as="targetPoint" />
          </mxGeometry>
        </mxCell>
        <mxCell id="KTyvs7jCrJftO7zdNOzY-76" value="" style="edgeStyle=orthogonalEdgeStyle;rounded=0;orthogonalLoop=1;jettySize=auto;html=1;endArrow=none;endFill=0;fontSize=12;entryX=1;entryY=0.411;entryDx=0;entryDy=0;entryPerimeter=0;" parent="1" source="KTyvs7jCrJftO7zdNOzY-72" target="41" edge="1">
          <mxGeometry relative="1" as="geometry">
            <mxPoint x="-400" y="-850" as="targetPoint" />
          </mxGeometry>
        </mxCell>
        <mxCell id="KTyvs7jCrJftO7zdNOzY-72" value="&lt;span style=&quot;font-family: &amp;#34;arial&amp;#34; ; font-size: 11px ; background-color: rgb(255 , 255 , 255)&quot;&gt;HTTPS&lt;br&gt;OAuth2 /&amp;nbsp;&lt;/span&gt;&lt;span style=&quot;font-family: &amp;#34;arial&amp;#34; ; font-size: 11px ; background-color: rgb(255 , 255 , 255)&quot;&gt;OpenID&lt;/span&gt;" style="shape=providedRequiredInterface;html=1;verticalLabelPosition=bottom;fontSize=12;spacingTop=-100;" parent="1" vertex="1">
          <mxGeometry x="-320" y="-860" width="20" height="20" as="geometry" />
        </mxCell>
        <mxCell id="KTyvs7jCrJftO7zdNOzY-82" value="" style="edgeStyle=orthogonalEdgeStyle;rounded=0;orthogonalLoop=1;jettySize=auto;html=1;endArrow=none;endFill=0;fontSize=12;entryX=0.081;entryY=0.54;entryDx=0;entryDy=0;entryPerimeter=0;" parent="1" source="KTyvs7jCrJftO7zdNOzY-79" target="KTyvs7jCrJftO7zdNOzY-68" edge="1">
          <mxGeometry relative="1" as="geometry" />
        </mxCell>
        <mxCell id="KTyvs7jCrJftO7zdNOzY-83" value="" style="edgeStyle=orthogonalEdgeStyle;rounded=0;orthogonalLoop=1;jettySize=auto;html=1;endArrow=none;endFill=0;fontSize=12;" parent="1" source="KTyvs7jCrJftO7zdNOzY-79" target="KTyvs7jCrJftO7zdNOzY-67" edge="1">
          <mxGeometry relative="1" as="geometry" />
        </mxCell>
        <mxCell id="KTyvs7jCrJftO7zdNOzY-79" value="Platform API" style="shape=providedRequiredInterface;html=1;verticalLabelPosition=bottom;fontSize=12;" parent="1" vertex="1">
          <mxGeometry x="-230" y="-795" width="20" height="20" as="geometry" />
        </mxCell>
        <mxCell id="KTyvs7jCrJftO7zdNOzY-88" value="" style="edgeStyle=orthogonalEdgeStyle;rounded=0;orthogonalLoop=1;jettySize=auto;html=1;endArrow=none;endFill=0;fontSize=12;entryX=0.101;entryY=0.468;entryDx=0;entryDy=0;entryPerimeter=0;" parent="1" source="KTyvs7jCrJftO7zdNOzY-87" target="KTyvs7jCrJftO7zdNOzY-67" edge="1">
          <mxGeometry relative="1" as="geometry" />
        </mxCell>
        <mxCell id="KTyvs7jCrJftO7zdNOzY-89" value="" style="edgeStyle=orthogonalEdgeStyle;rounded=0;orthogonalLoop=1;jettySize=auto;html=1;endArrow=none;endFill=0;fontSize=12;entryX=1.037;entryY=0.859;entryDx=0;entryDy=0;entryPerimeter=0;" parent="1" source="KTyvs7jCrJftO7zdNOzY-87" target="43" edge="1">
          <mxGeometry relative="1" as="geometry" />
        </mxCell>
        <mxCell id="KTyvs7jCrJftO7zdNOzY-87" value="HTTPS" style="shape=providedRequiredInterface;html=1;verticalLabelPosition=bottom;fontSize=12;" parent="1" vertex="1">
          <mxGeometry x="-440" y="-797" width="20" height="20" as="geometry" />
        </mxCell>
        <mxCell id="KTyvs7jCrJftO7zdNOzY-92" value="" style="edgeStyle=orthogonalEdgeStyle;rounded=0;orthogonalLoop=1;jettySize=auto;html=1;endArrow=none;endFill=0;fontSize=12;entryX=1.013;entryY=0.408;entryDx=0;entryDy=0;entryPerimeter=0;" parent="1" source="KTyvs7jCrJftO7zdNOzY-91" target="KTyvs7jCrJftO7zdNOzY-66" edge="1">
          <mxGeometry relative="1" as="geometry">
            <mxPoint x="-280" y="-678" as="targetPoint" />
          </mxGeometry>
        </mxCell>
        <mxCell id="KTyvs7jCrJftO7zdNOzY-93" value="" style="edgeStyle=orthogonalEdgeStyle;rounded=0;orthogonalLoop=1;jettySize=auto;html=1;endArrow=none;endFill=0;fontSize=12;" parent="1" source="KTyvs7jCrJftO7zdNOzY-91" edge="1">
          <mxGeometry relative="1" as="geometry">
            <mxPoint x="-176" y="-680" as="targetPoint" />
          </mxGeometry>
        </mxCell>
        <mxCell id="KTyvs7jCrJftO7zdNOzY-91" value="Platform API" style="shape=providedRequiredInterface;html=1;verticalLabelPosition=bottom;fontSize=12;" parent="1" vertex="1">
          <mxGeometry x="-230" y="-690" width="20" height="20" as="geometry" />
        </mxCell>
        <mxCell id="KTyvs7jCrJftO7zdNOzY-112" value="" style="edgeStyle=orthogonalEdgeStyle;rounded=0;orthogonalLoop=1;jettySize=auto;html=1;endArrow=none;endFill=0;fontSize=12;entryX=0;entryY=0.5;entryDx=0;entryDy=0;" parent="1" source="KTyvs7jCrJftO7zdNOzY-110" target="KTyvs7jCrJftO7zdNOzY-104" edge="1">
          <mxGeometry relative="1" as="geometry">
            <mxPoint x="-240" y="-375" as="targetPoint" />
          </mxGeometry>
        </mxCell>
        <mxCell id="KTyvs7jCrJftO7zdNOzY-114" value="" style="edgeStyle=orthogonalEdgeStyle;rounded=0;orthogonalLoop=1;jettySize=auto;html=1;endArrow=none;endFill=0;fontSize=12;entryX=1.018;entryY=0.657;entryDx=0;entryDy=0;entryPerimeter=0;" parent="1" source="KTyvs7jCrJftO7zdNOzY-110" target="31" edge="1">
          <mxGeometry relative="1" as="geometry">
            <mxPoint x="-420" y="-375" as="targetPoint" />
          </mxGeometry>
        </mxCell>
        <mxCell id="KTyvs7jCrJftO7zdNOzY-110" value="HTTPS&lt;br&gt;RTSP / RTMP /&lt;br&gt;MPEG2-TS&lt;br&gt;(encoded video)" style="shape=providedRequiredInterface;html=1;verticalLabelPosition=bottom;fontSize=12;spacingTop=30;" parent="1" vertex="1">
          <mxGeometry x="-340" y="-385" width="20" height="20" as="geometry" />
        </mxCell>
        <mxCell id="KTyvs7jCrJftO7zdNOzY-117" value="" style="edgeStyle=orthogonalEdgeStyle;rounded=0;orthogonalLoop=1;jettySize=auto;html=1;endArrow=none;endFill=0;fontSize=12;" parent="1" source="KTyvs7jCrJftO7zdNOzY-115" target="KTyvs7jCrJftO7zdNOzY-106" edge="1">
          <mxGeometry relative="1" as="geometry">
            <mxPoint x="-420" y="-520" as="targetPoint" />
          </mxGeometry>
        </mxCell>
        <mxCell id="KTyvs7jCrJftO7zdNOzY-119" value="" style="edgeStyle=orthogonalEdgeStyle;rounded=0;orthogonalLoop=1;jettySize=auto;html=1;endArrow=none;endFill=0;fontSize=12;entryX=0;entryY=0;entryDx=0;entryDy=15;entryPerimeter=0;" parent="1" source="KTyvs7jCrJftO7zdNOzY-115" target="KTyvs7jCrJftO7zdNOzY-103" edge="1">
          <mxGeometry relative="1" as="geometry">
            <mxPoint x="-240" y="-520" as="targetPoint" />
          </mxGeometry>
        </mxCell>
        <mxCell id="KTyvs7jCrJftO7zdNOzY-115" value="CDS API&lt;br&gt;HTTPS&lt;br&gt;(licences)" style="shape=providedRequiredInterface;html=1;verticalLabelPosition=bottom;fontSize=12;spacingTop=20;" parent="1" vertex="1">
          <mxGeometry x="-340" y="-530" width="20" height="20" as="geometry" />
        </mxCell>
        <mxCell id="KTyvs7jCrJftO7zdNOzY-125" value="&lt;&lt;component&gt;&gt;&#xa;Home" style="shape=module;align=left;spacingLeft=20;align=center;verticalAlign=top;fontSize=12;" parent="1" vertex="1">
          <mxGeometry x="90" y="-860" width="120" height="50" as="geometry" />
        </mxCell>
        <mxCell id="KTyvs7jCrJftO7zdNOzY-139" value="Provider&lt;br&gt;Backend" style="html=1;fontSize=12;" parent="1" vertex="1">
          <mxGeometry x="440" y="-769" width="110" height="109" as="geometry" />
        </mxCell>
        <mxCell id="KTyvs7jCrJftO7zdNOzY-142" value="" style="edgeStyle=orthogonalEdgeStyle;rounded=0;orthogonalLoop=1;jettySize=auto;html=1;endArrow=none;endFill=0;fontSize=12;entryX=0.009;entryY=0.36;entryDx=0;entryDy=0;entryPerimeter=0;" parent="1" source="KTyvs7jCrJftO7zdNOzY-140" target="KTyvs7jCrJftO7zdNOzY-139" edge="1">
          <mxGeometry relative="1" as="geometry" />
        </mxCell>
        <mxCell id="KTyvs7jCrJftO7zdNOzY-143" value="" style="edgeStyle=orthogonalEdgeStyle;rounded=0;orthogonalLoop=1;jettySize=auto;html=1;endArrow=none;endFill=0;fontSize=12;entryX=0.993;entryY=0.374;entryDx=0;entryDy=0;entryPerimeter=0;" parent="1" source="KTyvs7jCrJftO7zdNOzY-140" target="KTyvs7jCrJftO7zdNOzY-138" edge="1">
          <mxGeometry relative="1" as="geometry" />
        </mxCell>
        <mxCell id="KTyvs7jCrJftO7zdNOzY-140" value="" style="shape=providedRequiredInterface;html=1;verticalLabelPosition=bottom;fontSize=12;rotation=-180;horizontal=1;" parent="1" vertex="1">
          <mxGeometry x="340" y="-739" width="20" height="20" as="geometry" />
        </mxCell>
        <mxCell id="KTyvs7jCrJftO7zdNOzY-146" value="Backend API&lt;br&gt;HTTPS" style="text;html=1;strokeColor=none;fillColor=none;align=center;verticalAlign=middle;whiteSpace=wrap;rounded=0;fontSize=12;" parent="1" vertex="1">
          <mxGeometry x="310" y="-710" width="80" height="20" as="geometry" />
        </mxCell>
        <mxCell id="KTyvs7jCrJftO7zdNOzY-163" value="" style="edgeStyle=orthogonalEdgeStyle;rounded=0;orthogonalLoop=1;jettySize=auto;html=1;endArrow=none;endFill=0;fontSize=12;entryX=-0.014;entryY=0.394;entryDx=0;entryDy=0;entryPerimeter=0;" parent="1" source="KTyvs7jCrJftO7zdNOzY-161" target="33" edge="1">
          <mxGeometry relative="1" as="geometry" />
        </mxCell>
        <mxCell id="KTyvs7jCrJftO7zdNOzY-164" value="" style="edgeStyle=orthogonalEdgeStyle;rounded=0;orthogonalLoop=1;jettySize=auto;html=1;endArrow=none;endFill=0;fontSize=12;entryX=1;entryY=0.5;entryDx=0;entryDy=0;" parent="1" source="KTyvs7jCrJftO7zdNOzY-161" target="KTyvs7jCrJftO7zdNOzY-160" edge="1">
          <mxGeometry relative="1" as="geometry" />
        </mxCell>
        <mxCell id="KTyvs7jCrJftO7zdNOzY-161" value="" style="shape=providedRequiredInterface;html=1;verticalLabelPosition=bottom;fontSize=12;rotation=-180;horizontal=1;" parent="1" vertex="1">
          <mxGeometry x="340" y="-399" width="20" height="20" as="geometry" />
        </mxCell>
        <mxCell id="KTyvs7jCrJftO7zdNOzY-162" value="HTTPS&lt;br&gt;(logs collection, crash analytics)" style="text;html=1;strokeColor=none;fillColor=none;align=center;verticalAlign=middle;whiteSpace=wrap;rounded=0;fontSize=12;" parent="1" vertex="1">
          <mxGeometry x="285" y="-365" width="130" height="20" as="geometry" />
        </mxCell>
        <mxCell id="KTyvs7jCrJftO7zdNOzY-166" value="" style="edgeStyle=orthogonalEdgeStyle;rounded=0;orthogonalLoop=1;jettySize=auto;html=1;endArrow=none;endFill=0;fontSize=12;" parent="1" source="KTyvs7jCrJftO7zdNOzY-165" target="27" edge="1">
          <mxGeometry relative="1" as="geometry" />
        </mxCell>
        <mxCell id="KTyvs7jCrJftO7zdNOzY-167" value="" style="edgeStyle=orthogonalEdgeStyle;rounded=0;orthogonalLoop=1;jettySize=auto;html=1;endArrow=none;endFill=0;fontSize=12;entryX=1.005;entryY=0.62;entryDx=0;entryDy=0;entryPerimeter=0;" parent="1" source="KTyvs7jCrJftO7zdNOzY-165" target="4" edge="1">
          <mxGeometry relative="1" as="geometry" />
        </mxCell>
        <mxCell id="KTyvs7jCrJftO7zdNOzY-165" value="" style="shape=providedRequiredInterface;html=1;verticalLabelPosition=bottom;fontSize=12;rotation=-180;horizontal=1;" parent="1" vertex="1">
          <mxGeometry x="340" y="-573" width="20" height="20" as="geometry" />
        </mxCell>
        <mxCell id="KTyvs7jCrJftO7zdNOzY-168" value="Google API&lt;br&gt;HTTPS" style="text;html=1;strokeColor=none;fillColor=none;align=center;verticalAlign=middle;whiteSpace=wrap;rounded=0;fontSize=12;" parent="1" vertex="1">
          <mxGeometry x="285" y="-547" width="130" height="20" as="geometry" />
        </mxCell>
        <mxCell id="R-XISiOptKXvvySLi7NW-68" value="" style="endArrow=classic;startArrow=classic;html=1;entryX=0;entryY=0;entryDx=0;entryDy=35;entryPerimeter=0;exitX=0;exitY=0.5;exitDx=10;exitDy=0;exitPerimeter=0;edgeStyle=orthogonalEdgeStyle;dashed=1;" edge="1" parent="1" source="KTyvs7jCrJftO7zdNOzY-138" target="KTyvs7jCrJftO7zdNOzY-125">
          <mxGeometry width="50" height="50" relative="1" as="geometry">
            <mxPoint x="-60" y="-620" as="sourcePoint" />
            <mxPoint x="-10" y="-670" as="targetPoint" />
            <Array as="points">
              <mxPoint x="30" y="-715" />
              <mxPoint x="30" y="-825" />
            </Array>
          </mxGeometry>
        </mxCell>
      </root>
    </mxGraphModel>
  </diagram>
</mxfile>
